<svg viewBox="0 0 91 40" fill="none" xmlns="http://www.w3.org/2000/svg"><path d="M7.3 10.454H.811v20.07h6.487v-20.07z" fill="#fff"/><path fill-rule="evenodd" clip-rule="evenodd" d="M4.055 7.82c1.168 0 2.134-.37 2.903-1.108.769-.74 1.153-1.665 1.153-2.78 0-1.143-.384-2.083-1.153-2.822C6.189.37 5.223 0 4.055 0 2.86 0 1.885.37 1.131 1.108.377 1.847 0 2.787 0 3.93s.377 2.078 1.131 2.8c.755.727 1.729 1.09 2.924 1.09zm5.425 2.634v20.07h6.49V22.58c0-4.208 1.835-6.314 5.506-6.314.712 0 1.423.07 2.134.208v-6.146c-.455-.168-1.024-.25-1.706-.25-1.34 0-2.54.327-3.61.982-1.066.655-1.87 1.596-2.41 2.822h-.17l-.256-3.428H9.48zm17.845 1.254c-1.622 1.199-2.433 2.787-2.433 4.766 0 1.646.57 2.997 1.709 4.056 1.138 1.06 2.802 1.714 4.994 1.966l2.818.293c1.139.14 1.934.341 2.392.605.453.267.682.662.682 1.193 0 .614-.255 1.08-.768 1.4-.513.32-1.267.48-2.263.48-.997 0-1.793-.188-2.392-.564-.598-.377-.925-.884-.983-1.527h-6.275c.143 2.09 1.039 3.73 2.69 4.912 1.65 1.186 3.984 1.777 7.001 1.777 2.989 0 5.301-.598 6.938-1.798 1.638-1.199 2.456-2.87 2.456-5.017 0-1.727-.563-3.1-1.685-4.119-1.124-1.017-2.755-1.636-4.889-1.86l-2.822-.333c-1.167-.11-1.984-.3-2.454-.564-.47-.264-.704-.62-.704-1.066 0-.528.256-.947.769-1.255.513-.306 1.25-.46 2.22-.46 1.964 0 3.017.724 3.16 2.174h6.189c-.143-2.23-.99-3.93-2.54-5.101-1.551-1.171-3.807-1.756-6.767-1.756-3.074 0-5.422.6-7.044 1.798zm22.305-.44c-1.465.907-2.618 2.167-3.458 3.785-.84 1.617-1.26 3.43-1.26 5.435 0 2.007.42 3.82 1.26 5.436.84 1.617 1.993 2.878 3.458 3.785 1.466.905 3.123 1.358 4.974 1.358 1.366 0 2.576-.257 3.629-.774 1.052-.516 1.862-1.26 2.434-2.237h.17l.255 2.467h6.02V10.454h-6.02l-.255 2.467h-.17c-.57-.975-1.382-1.72-2.434-2.237-1.053-.517-2.263-.774-3.629-.774-1.851 0-3.508.453-4.974 1.358zm1.943 9.22c0-1.393.42-2.536 1.26-3.429.838-.89 1.97-1.337 3.394-1.337 1.423 0 2.561.446 3.416 1.337.854.893 1.281 2.036 1.281 3.43 0 1.393-.427 2.543-1.281 3.448-.855.907-1.993 1.358-3.416 1.358-1.394 0-2.518-.453-3.372-1.358-.855-.903-1.282-2.053-1.282-3.449zm21.707-9.22c-1.466.907-2.611 2.167-3.437 3.785-.826 1.617-1.239 3.43-1.239 5.435 0 2.035.413 3.853 1.24 5.457.825 1.603 1.978 2.857 3.458 3.764 1.48.905 3.145 1.358 4.995 1.358 1.337 0 2.533-.257 3.587-.774 1.053-.516 1.863-1.26 2.433-2.237h.171l.256 2.466h6.091V1.256h-6.473v11.666h-.13a5.895 5.895 0 00-2.453-2.237c-1.039-.517-2.227-.774-3.566-.774-1.823 0-3.467.453-4.933 1.358zm1.943 9.22c0-1.393.42-2.536 1.26-3.429.838-.891 1.97-1.337 3.394-1.337 1.423 0 2.561.446 3.416 1.337.854.893 1.281 2.036 1.281 3.43 0 1.393-.427 2.543-1.281 3.448-.855.907-1.993 1.358-3.416 1.358-1.394 0-2.518-.453-3.373-1.358-.854-.903-1.281-2.053-1.281-3.449z" fill="#fff"/><path d="M34.744 33.964H.812v4.173h33.932v-4.173z" fill="#40B659"/><path d="M90.834 33.964h-56.09v4.173h56.09v-4.173z" fill="#F6861F"/><path fill-rule="evenodd" clip-rule="evenodd" d="M37.882 33.964a3.773 3.773 0 00-.604-.742c-.776-.746-1.753-1.119-2.931-1.119-1.208 0-2.193.375-2.953 1.119-.232.23-.43.476-.593.742-.366.604-.55 1.308-.55 2.108 0 .786.176 1.475.53 2.065.166.277.37.53.611.764.762.731 1.747 1.097 2.953 1.097 1.178 0 2.156-.373 2.931-1.118.24-.23.442-.477.606-.743.372-.596.558-1.286.558-2.065.003-.8-.184-1.502-.558-2.108z" fill="#fff"/></svg>