<svg viewBox="0 0 88 26" fill="none" xmlns="http://www.w3.org/2000/svg"><path fill-rule="evenodd" clip-rule="evenodd" d="M1.614 7.547l5.743 2.226-.325-6.311h5.207l-.269 6.31 5.687-2.225 1.61 5.151-5.87 1.668 3.864 4.921-4.217 3.2L9.635 17.2l-3.368 5.289-4.217-3.2 3.821-4.967L0 12.653l1.614-5.106z" fill="#40B659"/><path fill-rule="evenodd" clip-rule="evenodd" d="M37.703 18.858c.805-1.278 1.201-3.229 1.201-5.854 0-2.63-.396-4.582-1.2-5.853-.823-1.278-1.953-1.918-3.44-1.918-1.472 0-2.617.64-3.438 1.918-.822 1.271-1.231 3.223-1.231 5.853 0 2.625.41 4.576 1.23 5.854.823 1.277 1.967 1.917 3.44 1.917 1.486 0 2.62-.64 3.438-1.917zm-8.857 5.604c-1.556-1.025-2.744-2.516-3.58-4.473-.821-1.957-1.244-4.287-1.244-6.985 0-2.698.426-5.028 1.245-6.985.835-1.957 2.023-3.45 3.58-4.48C30.388.513 32.2 0 34.263 0c2.08 0 3.892.514 5.419 1.538 1.543 1.03 2.717 2.522 3.552 4.481.822 1.957 1.245 4.287 1.245 6.985 0 2.698-.426 5.028-1.245 6.985-.835 1.957-2.01 3.45-3.552 4.473C38.156 25.492 36.344 26 34.264 26c-2.063 0-3.875-.508-5.418-1.538zM56.789.469v25.068h-5.503V6.556l-5.109 3.01v-5.73l5.66-3.367h4.952zm19.127 0v4.582l-9.068 20.486h-5.771l8.827-19.84H59.349V.469h16.567zM88 .469v25.068h-5.505V6.556l-5.12 3.01v-5.73L83.048.468H88z" fill="#fff"/></svg>