<?xml version="1.0" encoding="UTF-8"?>
<!DOCTYPE svg PUBLIC "-//W3C//DTD SVG 1.1//EN" "http://www.w3.org/Graphics/SVG/1.1/DTD/svg11.dtd">
<!-- Creator: CorelDRAW 2019 (64-Bit) -->
<svg xmlns="http://www.w3.org/2000/svg" xml:space="preserve" width="0.69402in" height="0.870567in" version="1.1" style="shape-rendering:geometricPrecision; text-rendering:geometricPrecision; image-rendering:optimizeQuality; fill-rule:evenodd; clip-rule:evenodd"
viewBox="0 0 36.66 45.99"
 xmlns:xlink="http://www.w3.org/1999/xlink"
 xmlns:xodm="http://www.corel.com/coreldraw/odm/2003">
 <defs>
  <style type="text/css">
   <![CDATA[
    .fil1 {fill:#01C764;fill-rule:nonzero}
    .fil0 {fill:#232D40;fill-rule:nonzero}
   ]]>
  </style>
 </defs>
 <g id="Layer_x0020_1">
  <metadata id="CorelCorpID_0Corel-Layer"/>
  <path class="fil0" d="M25.88 13.51l-3.96 0c-0.47,0 -0.85,-0.38 -0.85,-0.85 0,-0.47 0.38,-0.85 0.85,-0.85l3.96 0c0.47,0 0.85,0.38 0.85,0.85 0,0.47 -0.38,0.85 -0.85,0.85zm-21.63 -11.82c-1.41,0 -2.56,1.15 -2.56,2.56l0 28.82c0,1.41 1.15,2.56 2.56,2.56l6.9 0 0 1.7 -6.9 0c-2.35,0 -4.26,-1.91 -4.26,-4.26l0 -28.82c0,-2.35 1.91,-4.26 4.26,-4.26l18.45 0c2.35,0 4.26,1.91 4.26,4.26l0 2.69 -1.7 0 0 -2.69c0,-1.41 -1.15,-2.56 -2.56,-2.56l-18.45 0zm13.66 3.15l-8.86 0c-0.47,0 -0.85,-0.38 -0.85,-0.85 0,-0.47 0.38,-0.85 0.85,-0.85l8.86 0c0.47,0 0.85,0.38 0.85,0.85 0,0.47 -0.38,0.85 -0.85,0.85zm-0.78 5.51c-1.41,0 -2.56,1.15 -2.56,2.56l0 27.81 18.66 0 0 -27.81c0,-1.41 -1.15,-2.56 -2.56,-2.56l-13.55 0zm-2.46 32.07c0.3,1.08 1.29,1.87 2.46,1.87l13.55 0c1.17,0 2.16,-0.79 2.46,-1.87l-18.47 0zm16.01 3.56l-13.55 0c-2.35,0 -4.26,-1.91 -4.26,-4.26l0 -0.16 0 -28.66c0,-2.35 1.91,-4.26 4.26,-4.26l13.55 0c2.35,0 4.26,1.91 4.26,4.26l0 28.66 0 0.16c0,2.35 -1.91,4.26 -4.26,4.26z"/>
  <path class="fil1" d="M31.5 34.64c0,1.43 1.16,2.58 2.58,2.58 1.42,0 2.58,-1.16 2.58,-2.58 0,-1.43 -1.16,-2.58 -2.58,-2.58 -1.43,0 -2.58,1.16 -2.58,2.58z"/>
 </g>
</svg>
