<?xml version="1.0" encoding="UTF-8"?>
<!DOCTYPE svg PUBLIC "-//W3C//DTD SVG 1.1//EN" "http://www.w3.org/Graphics/SVG/1.1/DTD/svg11.dtd">
<!-- Creator: CorelDRAW 2019 (64-Bit) -->
<svg xmlns="http://www.w3.org/2000/svg" xml:space="preserve" width="0.835732in" height="0.610681in" version="1.1" style="shape-rendering:geometricPrecision; text-rendering:geometricPrecision; image-rendering:optimizeQuality; fill-rule:evenodd; clip-rule:evenodd"
viewBox="0 0 118.04 86.26"
 xmlns:xlink="http://www.w3.org/1999/xlink"
 xmlns:xodm="http://www.corel.com/coreldraw/odm/2003">
 <defs>
  <style type="text/css">
   <![CDATA[
    .fil1 {fill:#01C764;fill-rule:nonzero}
    .fil0 {fill:#232D40;fill-rule:nonzero}
   ]]>
  </style>
 </defs>
 <g id="Layer_x0020_1">
  <metadata id="CorelCorpID_0Corel-Layer"/>
  <path class="fil0" d="M4.54 61.24l52.19 0 52.15 0 0 -56.71 -104.34 0 0 56.71zm49.92 16.84l0 -12.3 -54.46 0 0 -65.78 113.41 0 0 65.78 -54.41 0 0 12.3 38.7 3.6c1.25,0.12 2.16,1.22 2.05,2.47 -0.12,1.25 -1.22,2.17 -2.47,2.05l-40.55 -3.77 -40.64 3.82c-0.07,0.01 -0.14,0.01 -0.22,0.01 -1.16,0 -2.15,-0.88 -2.25,-2.06 -0.12,-1.25 0.8,-2.35 2.05,-2.47l38.8 -3.65z"/>
  <path class="fil1" d="M104.24 43.13c0,3.81 3.09,6.9 6.9,6.9 3.81,0 6.9,-3.09 6.9,-6.9 0,-3.81 -3.09,-6.9 -6.9,-6.9 -3.81,0 -6.9,3.09 -6.9,6.9z"/>
 </g>
</svg>
