<?xml version="1.0" encoding="utf-8"?>
<svg xmlns="http://www.w3.org/2000/svg" height="313.07pt" version="1.1" viewBox="0 0 658.8 313.07" width="658.8pt">
<g id="surface1">
<path d="M 0 313.070313 L 658.800781 313.070313 L 658.800781 0 L 0 0 Z M 0 313.070313" style="stroke:none;fill-rule:nonzero;fill:rgb(13.699341%,12.199402%,12.5%);fill-opacity:1;"/>
<path d="M 354.238281 214.9375 L 354.238281 226.308594 L 376.835938 226.308594 L 376.835938 269.046875 L 389.222656 269.046875 L 389.222656 226.308594 L 411.289063 226.308594 L 411.289063 214.9375" style="stroke:none;fill-rule:nonzero;fill:rgb(100%,100%,100%);fill-opacity:1;"/>
<path d="M 544.566406 214.9375 L 544.566406 253.363281 L 510.636719 218.324219 C 507.605469 215.152344 504.113281 213.835938 500.226563 214.441406 C 496.671875 215.011719 494.367188 217.898438 494.367188 221.816406 L 494.367188 269.046875 L 506.488281 269.046875 L 506.488281 230.625 L 539.890625 265.128906 C 543.378906 268.761719 546.476563 270.152344 550.101563 269.652344 C 556.03125 268.796875 556.6875 264.449219 556.6875 261.242188 L 556.6875 214.9375" style="stroke:none;fill-rule:nonzero;fill:rgb(100%,100%,100%);fill-opacity:1;"/>
<path d="M 470.253906 241.921875 C 470.253906 257.570313 463.398438 258.285156 450.289063 258.285156 C 437.183594 258.285156 430.328125 257.570313 430.328125 241.921875 C 430.328125 226.273438 437.183594 225.5625 450.289063 225.5625 C 463.398438 225.5625 470.253906 226.273438 470.253906 241.921875 M 417.21875 241.921875 C 417.21875 265.375 429.011719 269.941406 450.289063 269.941406 C 471.503906 269.941406 483.363281 265.375 483.363281 241.921875 C 483.363281 218.46875 471.503906 213.90625 450.289063 213.90625 C 429.011719 213.90625 417.21875 218.46875 417.21875 241.921875" style="stroke:none;fill-rule:nonzero;fill:rgb(100%,100%,100%);fill-opacity:1;"/>
<path d="M 258.25 214.9375 L 258.25 269.011719 L 270.570313 269.011719 L 270.570313 214.9375 L 269.382813 214.9375" style="stroke:none;fill-rule:nonzero;fill:rgb(100%,100%,100%);fill-opacity:1;"/>
<path d="M 198.101563 226.167969 L 222.9375 226.167969 C 230.253906 226.167969 231.175781 229.480469 231.175781 232.621094 C 231.175781 235.792969 230.183594 239.140625 223.003906 239.140625 L 198.101563 239.140625 Z M 231.371094 248.480469 C 239.144531 246.589844 243.492188 240.710938 243.492188 232.65625 C 243.492188 221.710938 236.246094 214.9375 224.652344 214.9375 L 185.980469 214.9375 L 185.980469 269.011719 L 198.101563 269.011719 L 198.101563 249.730469 L 217.800781 249.730469 L 231.371094 269.011719 L 245.601563 269.011719" style="stroke:none;fill-rule:nonzero;fill:rgb(100%,100%,100%);fill-opacity:1;"/>
<path d="M 321.035156 235.042969 L 310.230469 235.042969 C 300.875 235.042969 298.964844 233.261719 298.964844 229.945313 C 298.964844 225.882813 305.222656 224.316406 313.984375 224.316406 C 321.757813 224.316406 329.070313 225.632813 337.503906 229.589844 L 344.023438 220.429688 C 334.804688 214.867188 325.644531 212.835938 314.117188 212.835938 C 296.460938 212.835938 285.921875 219.46875 285.921875 230.550781 C 285.921875 242.636719 295.933594 246.734375 308.78125 246.628906 L 320.769531 246.628906 C 332.5625 246.628906 334.078125 247.980469 334.078125 252.472656 C 334.078125 256.894531 327.621094 259.671875 317.082031 259.671875 C 307.859375 259.671875 298.4375 257.855469 290.070313 252.292969 C 290.070313 252.257813 283.480469 261.671875 283.480469 261.671875 C 292.308594 268.691406 303.246094 271.117188 317.015625 271.117188 C 336.316406 271.117188 347.386719 264.09375 347.386719 251.902344 C 347.386719 240.640625 338.492188 235.042969 321.035156 235.042969" style="stroke:none;fill-rule:nonzero;fill:rgb(100%,100%,100%);fill-opacity:1;"/>
<path d="M 140.390625 228.949219 C 140.785156 229.695313 146.648438 239.464844 152.382813 249.195313 L 128.335938 249.195313 C 128.335938 249.195313 139.929688 229.695313 140.390625 228.949219 M 140.390625 213.335938 C 137.886719 213.335938 135.382813 214.476563 134.199219 216.398438 L 102.113281 269.050781 L 116.542969 269.050781 L 122.40625 259.175781 L 158.308594 259.175781 L 164.171875 269.050781 L 178.667969 269.050781 L 146.515625 216.398438 C 145.332031 214.476563 142.894531 213.335938 140.390625 213.335938" style="stroke:none;fill-rule:nonzero;fill:rgb(100%,100%,100%);fill-opacity:1;"/>
<path d="M 252.386719 98.132813 C 252.386719 85.011719 256.539063 79.738281 267.34375 79.738281 C 278.277344 79.738281 282.363281 84.835938 282.363281 98.132813 C 282.363281 111.246094 278.144531 116.558594 267.34375 116.558594 C 256.40625 116.558594 252.386719 111.425781 252.386719 98.132813 M 238.089844 98.132813 C 238.089844 118.019531 247.972656 128.109375 267.40625 128.109375 C 286.84375 128.109375 296.65625 118.019531 296.65625 98.132813 C 296.65625 78.171875 286.84375 68.046875 267.40625 68.046875 C 247.972656 68.046875 238.089844 78.171875 238.089844 98.132813" style="stroke:none;fill-rule:nonzero;fill:rgb(100%,100%,100%);fill-opacity:1;"/>
<path d="M 429.40625 98.132813 C 429.40625 85.011719 433.621094 79.738281 444.363281 79.738281 C 455.363281 79.738281 459.382813 84.835938 459.382813 98.132813 C 459.382813 111.246094 455.230469 116.558594 444.363281 116.558594 C 433.492188 116.558594 429.40625 111.425781 429.40625 98.132813 M 415.109375 98.132813 C 415.109375 118.019531 424.992188 128.109375 444.492188 128.109375 C 463.863281 128.109375 473.679688 118.019531 473.679688 98.132813 C 473.679688 78.171875 463.863281 68.046875 444.492188 68.046875 C 424.992188 68.046875 415.109375 78.171875 415.109375 98.132813" style="stroke:none;fill-rule:nonzero;fill:rgb(100%,100%,100%);fill-opacity:1;"/>
<path d="M 578.558594 55.640625 L 578.558594 110.144531 C 578.558594 121.230469 585.28125 127.109375 597.863281 127.109375 L 610.246094 127.109375 C 613.34375 127.109375 614.792969 124.292969 614.792969 121.546875 C 614.792969 118.839844 613.34375 116.023438 610.246094 116.023438 L 603.066406 116.023438 C 596.542969 116.023438 593.121094 115.632813 593.121094 107.898438 L 593.121094 81.519531 L 609.195313 81.519531 C 612.355469 81.519531 613.738281 78.703125 613.738281 75.957031 C 613.738281 73.25 612.355469 70.433594 609.195313 70.433594 L 593.121094 70.433594 L 593.121094 55.640625 C 593.121094 51.898438 590.484375 49.652344 586.070313 49.652344 C 582.578125 49.652344 578.558594 51.222656 578.558594 55.640625" style="stroke:none;fill-rule:nonzero;fill:rgb(100%,100%,100%);fill-opacity:1;"/>
<path d="M 307.53125 55.640625 L 307.53125 110.144531 C 307.53125 121.230469 314.183594 127.109375 326.832031 127.109375 L 339.148438 127.109375 C 342.3125 127.109375 343.699219 124.292969 343.699219 121.546875 C 343.699219 118.839844 342.3125 116.023438 339.148438 116.023438 L 331.972656 116.023438 C 325.449219 116.023438 322.019531 115.632813 322.019531 107.898438 L 322.019531 81.519531 L 338.164063 81.519531 C 341.257813 81.519531 342.710938 78.703125 342.710938 75.957031 C 342.710938 73.25 341.257813 70.433594 338.164063 70.433594 L 322.019531 70.433594 L 322.019531 55.640625 C 322.019531 51.898438 319.386719 49.652344 314.972656 49.652344 C 311.546875 49.652344 307.53125 51.222656 307.53125 55.640625" style="stroke:none;fill-rule:nonzero;fill:rgb(100%,100%,100%);fill-opacity:1;"/>
<path d="M 535.738281 69.257813 C 519.070313 69.257813 511.953125 75.886719 511.953125 91.464844 L 511.953125 120.980469 C 511.953125 124.652344 514.65625 126.859375 519.203125 126.859375 C 523.746094 126.859375 526.449219 124.652344 526.449219 120.980469 L 526.449219 92.53125 C 526.449219 84.191406 527.898438 81.589844 536.921875 81.589844 L 541.203125 81.589844 C 550.230469 81.589844 551.679688 84.191406 551.679688 92.53125 L 551.679688 120.980469 C 551.679688 124.652344 554.382813 126.859375 558.992188 126.859375 C 563.539063 126.859375 566.242188 124.652344 566.242188 120.980469 L 566.242188 91.464844 C 566.242188 75.886719 559.125 69.257813 542.390625 69.257813 L 535.738281 69.257813" style="stroke:none;fill-rule:nonzero;fill:rgb(100%,100%,100%);fill-opacity:1;"/>
<path d="M 484.546875 75.53125 L 484.546875 120.695313 C 484.546875 125.328125 488.367188 126.96875 491.859375 126.96875 C 495.417969 126.96875 499.238281 125.328125 499.238281 120.695313 L 499.238281 75.53125 C 499.238281 70.933594 495.417969 69.257813 491.859375 69.257813 C 488.367188 69.257813 484.546875 70.933594 484.546875 75.53125" style="stroke:none;fill-rule:nonzero;fill:rgb(100%,100%,100%);fill-opacity:1;"/>
<path d="M 483.625 53.503906 C 483.625 58.066406 487.382813 61.808594 491.859375 61.808594 C 496.40625 61.808594 500.097656 58.066406 500.097656 53.503906 C 500.097656 48.902344 496.40625 45.164063 491.859375 45.164063 C 487.382813 45.164063 483.625 48.902344 483.625 53.503906" style="stroke:none;fill-rule:nonzero;fill:rgb(100%,100%,100%);fill-opacity:1;"/>
<path d="M 366.292969 115.027344 L 366.292969 82.230469 C 369.257813 81.554688 372.945313 81.269531 376.503906 81.269531 C 388.03125 81.269531 392.644531 85.546875 392.644531 97.703125 C 392.644531 111.28125 388.757813 115.988281 376.308594 115.988281 C 372.882813 115.988281 368.863281 115.703125 366.292969 115.027344 M 360.496094 70.96875 C 354.894531 72.214844 351.734375 75.78125 351.734375 81.984375 L 351.734375 144.433594 C 351.734375 148.855469 355.488281 150.421875 358.980469 150.421875 C 362.535156 150.421875 366.292969 148.855469 366.292969 144.433594 L 366.292969 126.289063 C 369.71875 127.039063 372.75 127.359375 376.769531 127.359375 C 385.660156 127.359375 390.273438 125.859375 395.347656 122.867188 C 402.855469 118.449219 407.203125 110 407.203125 98.808594 C 407.203125 79.273438 397.257813 69.363281 377.492188 69.363281 C 372.089844 69.363281 365.503906 69.863281 360.496094 70.96875" style="stroke:none;fill-rule:nonzero;fill:rgb(100%,100%,100%);fill-opacity:1;"/>
<path d="M 212.726563 53.964844 L 212.726563 80.378906 L 181.566406 80.378906 L 181.566406 53.964844 C 181.566406 50.1875 178.929688 47.976563 174.515625 47.976563 C 171.089844 47.976563 167.070313 49.546875 167.070313 53.964844 L 167.070313 120.90625 C 167.070313 124.652344 169.707031 126.894531 174.121094 126.894531 C 177.546875 126.894531 181.566406 125.328125 181.566406 120.90625 L 181.566406 93.640625 L 212.726563 93.640625 L 212.726563 120.90625 C 212.726563 124.652344 215.425781 126.894531 219.84375 126.894531 C 223.269531 126.894531 227.285156 125.328125 227.285156 120.90625 L 227.285156 53.964844 C 227.285156 50.1875 224.652344 47.976563 220.234375 47.976563 C 216.8125 47.976563 212.726563 49.546875 212.726563 53.964844" style="stroke:none;fill-rule:nonzero;fill:rgb(100%,100%,100%);fill-opacity:1;"/>
<path d="M 87.421875 80.558594 C 80.242188 80.558594 74.445313 74.746094 74.445313 67.546875 C 74.445313 60.347656 80.242188 54.535156 87.421875 54.535156 C 94.671875 54.535156 100.46875 60.347656 100.46875 67.546875 C 100.46875 74.746094 94.671875 80.558594 87.421875 80.558594 M 122.867188 44.019531 L 51.980469 44.019531 C 47.566406 44.019531 44.007813 47.585938 44.007813 51.972656 L 44.007813 122.867188 C 44.007813 127.21875 47.566406 130.78125 51.980469 130.78125 L 122.867188 130.78125 C 127.214844 130.78125 130.773438 127.21875 130.773438 122.867188 L 130.773438 51.972656 C 130.773438 47.585938 127.214844 44.019531 122.867188 44.019531" style="stroke:none;fill-rule:nonzero;fill:rgb(100%,100%,100%);fill-opacity:1;"/>
<path d="M 608.46875 170.917969 L 50.332031 170.917969 C 45.65625 170.917969 44.007813 174.730469 44.007813 178.261719 C 44.007813 181.824219 45.65625 185.605469 50.332031 185.605469 L 608.46875 185.605469 C 613.148438 185.605469 614.792969 181.824219 614.792969 178.261719 C 614.792969 174.730469 613.148438 170.917969 608.46875 170.917969" style="stroke:none;fill-rule:nonzero;fill:rgb(100%,100%,100%);fill-opacity:1;"/>
</g>
</svg>