<?xml version="1.0" encoding="UTF-8"?>
<!DOCTYPE svg PUBLIC "-//W3C//DTD SVG 1.1//EN" "http://www.w3.org/Graphics/SVG/1.1/DTD/svg11.dtd">
<!-- Creator: CorelDRAW 2019 (64-Bit) -->
<svg xmlns="http://www.w3.org/2000/svg" xml:space="preserve" width="1.03504in" height="0.682646in" version="1.1" style="shape-rendering:geometricPrecision; text-rendering:geometricPrecision; image-rendering:optimizeQuality; fill-rule:evenodd; clip-rule:evenodd"
viewBox="0 0 412.33 271.95"
 xmlns:xlink="http://www.w3.org/1999/xlink"
 xmlns:xodm="http://www.corel.com/coreldraw/odm/2003">
 <defs>
  <style type="text/css">
   <![CDATA[
    .fil0 {fill:#232D40}
    .fil1 {fill:#01C764;fill-rule:nonzero}
   ]]>
  </style>
 </defs>
 <g id="Layer_x0020_1">
  <metadata id="CorelCorpID_0Corel-Layer"/>
  <path class="fil0" d="M59.03 12.79l0 163.16 294.28 0 0 -163.16 -294.28 0zm-0.01 175.95l-37.66 70.4 369.62 0 -37.66 -70.4 -294.3 0zm-12.78 -188.75l319.87 0 0 185.52 46.23 86.43 -412.33 0 46.23 -86.43 0 -185.52zm213.69 218.24l-107.51 0 -5.59 11.42 118.69 0 -5.59 -11.42zm5.34 -9.74l-118.19 0 -15.12 30.91 148.43 0 -15.12 -30.91z"/>
  <path class="fil1" d="M340.24 110.22c0,10.75 8.71,19.46 19.46,19.46 10.75,0 19.46,-8.71 19.46,-19.46 0,-10.75 -8.71,-19.46 -19.46,-19.46 -10.75,0 -19.46,8.71 -19.46,19.46z"/>
 </g>
</svg>
