<?xml version="1.0" encoding="UTF-8"?>
<!DOCTYPE svg PUBLIC "-//W3C//DTD SVG 1.1//EN" "http://www.w3.org/Graphics/SVG/1.1/DTD/svg11.dtd">
<!-- Creator: CorelDRAW 2019 (64-Bit) -->
<svg xmlns="http://www.w3.org/2000/svg" xml:space="preserve" width="0.664764in" height="0.776252in" version="1.1" style="shape-rendering:geometricPrecision; text-rendering:geometricPrecision; image-rendering:optimizeQuality; fill-rule:evenodd; clip-rule:evenodd"
viewBox="0 0 294.69 344.11"
 xmlns:xlink="http://www.w3.org/1999/xlink"
 xmlns:xodm="http://www.corel.com/coreldraw/odm/2003">
 <defs>
  <style type="text/css">
   <![CDATA[
    .fil0 {fill:#232D40}
    .fil1 {fill:#01C764;fill-rule:nonzero}
   ]]>
  </style>
 </defs>
 <g id="Layer_x0020_1">
  <metadata id="CorelCorpID_0Corel-Layer"/>
  <path class="fil0" d="M281.96 112.63c7.63,6.84 12.51,16.69 12.72,27.64l0.01 0.72 0 0.05 0 0.3 0 164.68c0,20.95 -17.14,38.09 -38.09,38.09l-206.19 0c-20.95,0 -38.09,-17.14 -38.09,-38.09l0 -164.53 0 -0.5 0.01 -0.72 0 -0.03c0.21,-10.93 5.09,-20.77 12.71,-27.59l101.53 -101.53c14.82,-14.81 39.05,-14.81 53.87,0l101.52 101.52zm-87.02 117.8c-0.86,0 -1.55,0.05 -2.33,-0.12 -0.79,-0.17 -1.44,-0.38 -2.19,-0.46l-4.6 -0.7c-0.59,-0.1 -1.27,-0.35 -2.18,-0.47 -5.76,-0.81 -10.8,-1.66 -16.65,-1.92 -0.78,-0.03 -1.67,-0.28 -2.3,-0.36l-17.1 -0.26c-1.18,-0 -1.5,0.16 -2.44,0.21 -0.85,0.05 -1.78,-0.06 -2.63,0.03 -0.66,0.07 -1.57,0.32 -2.28,0.37 -1.47,0.11 -3.67,0.04 -5.01,0.29 -1.99,0.38 -3.13,0.33 -4.69,0.61 -3.13,0.57 -5.4,0.67 -9.15,1.46 -1.75,0.37 -4.34,0.58 -6.8,1.16 -0.81,0.19 -1.42,0.16 -2.5,0.16 -0.22,-0.97 -0.56,-2.13 -0.61,-3.27l-2.26 -26.11c-0.4,-4.83 -0.86,-9.98 -1.38,-14.74 -0.19,-1.75 0.07,-0.9 -0.36,-3.72 -0.11,-0.73 -0.05,-1.23 -0.08,-1.96l-0.96 -10.98c0.19,-3.5 0.45,-5.43 2.81,-8.4l0.99 -1.05c0.74,-0.71 2.03,-1.68 2.99,-2.11 3.59,-1.6 3.99,-0.97 6.54,-1.62 1.02,-0.26 2.52,-0.2 3.67,-0.41 0.66,-0.12 0.86,-0.27 1.52,-0.31l20.6 -1.85c2.93,0.01 5.12,-0.2 7.96,-0.2 2.13,0 9.33,0.18 11.57,0.47 3.88,0.51 8.83,0.51 12.83,1.25 0.68,0.13 1.17,0.08 1.87,0.17 0.55,0.07 1.09,0.1 1.88,0.16 0.68,0.05 1.17,0.27 1.7,0.35 3.6,0.53 4.67,0.33 8.68,1.32 3.63,0.9 6.88,4.59 8.1,8.23 0.5,1.51 0.41,3.8 0.32,5.39 -0.07,1.43 -0.2,2.34 -0.21,3.68 -0.01,1.53 -0.41,2.03 -0.41,3.67l-1.28 15.05c-0.6,4.47 -0.86,10.24 -1.37,14.75l-1.03 11.22c0.01,1.28 -0.54,4.79 -0.6,7.56 -0.03,1.25 -0.38,2.43 -0.62,3.46zm14.22 70.21l-1.72 0c-2.21,-0.29 -4.41,-1.78 -5.46,-5.41 -0.12,-0.39 -0.17,-0.46 -0.26,-0.76l-0.84 -3.03c-0.18,-0.82 -0.25,-0.77 -0.47,-1.57l-1.79 -6.17c-0.37,-1.27 -1.12,-3.23 -1.23,-4.49l-87.77 0c-0.11,1.35 -1.71,6.2 -2.2,7.8l-2.24 7.76c-0.18,0.56 -0.28,1.1 -0.46,1.58 -0.1,0.27 -0.41,0.97 -0.57,1.26 -0.96,1.78 -2.95,2.84 -5,3.02l-1.29 0c-1.44,-0.13 -2.81,-0.71 -3.8,-1.78 -2.15,-2.35 -1.97,-4.63 -1.21,-7.45l4.74 -16.28c-0.36,-0.24 -0.33,-0.25 -0.67,-0.55l-0.44 -0.38c-0.03,-0.03 -0.08,-0.06 -0.11,-0.09l-1.72 -1.55c-0.03,-0.03 -0.07,-0.07 -0.1,-0.1 -2.08,-1.99 -4.08,-4.13 -5.85,-6.4l-2.01 -2.48c-1.91,-2.52 -3.77,-5.23 -5.22,-8.05l-2.62 -5.34c-0.11,-0.24 -0.17,-0.35 -0.33,-0.7l-3.65 -11.86c-0.09,-0.42 -0.19,-0.52 -0.28,-0.94 -0.79,-3.57 -0.88,-7.82 -0.88,-11.79l0 -0.19c0,-5.87 3.17,-11.04 7.76,-14.49 0.45,-0.33 0.76,-0.61 1.32,-0.92 4.09,-2.23 6.42,-2.55 11.12,-2.55 1.37,0 1.9,0.38 3.06,0.41l-0.35 -3.73c-0.45,-2.58 -0.86,-11.03 -1.38,-14.54 -0.16,-1.12 -0.17,-2.62 -0.28,-3.6 -0.14,-1.27 -0.24,-2.61 -0.39,-3.69 -0.17,-1.27 -0.1,-2.4 -0.27,-3.61 -0.31,-2.09 -0.5,-5.13 -0.6,-7.36 -0.26,-5.93 1.39,-11.72 4.93,-16.51 1.27,-1.71 2.78,-3.21 4.43,-4.55l0.99 -0.84c1.34,-1.06 2.84,-1.79 4.42,-2.53 4.04,-1.88 8.58,-2.35 12.98,-2.73 0.83,-0.07 0.95,-0.28 1.67,-0.37 0.66,-0.08 1.41,-0.12 1.87,-0.17 0.68,-0.09 1.23,-0.03 1.9,-0.13 0.52,-0.09 1.11,-0.26 1.54,-0.3 1.34,-0.13 2.47,-0.11 3.8,-0.28 0.4,-0.05 1.25,-0.28 1.71,-0.33 1.9,-0.2 3.72,-0.03 5.64,-0.28 3.38,-0.45 7.23,-0.56 10.9,-0.56l0.17 0 12.86 0.2c2.6,-0.02 4.8,0.56 7.34,0.62 2.07,0.06 1.97,0.2 3.71,0.38 1.32,0.13 2.3,0.12 3.62,0.26 0.58,0.06 1.11,0.3 1.69,0.36l3.8 0.28c0.41,0.06 1.01,0.28 1.5,0.33 2.21,0.24 4.99,0.45 7.06,0.9 0.65,0.14 0.78,0.24 1.68,0.36l5.81 2.14c0.54,0.3 0.88,0.42 1.35,0.69 0.9,0.51 1.46,0.97 2.29,1.59 1.56,1.17 2.83,2.38 4.09,3.87 0.36,0.43 0.61,0.68 0.93,1.11 1.75,2.35 3.28,5.15 4.02,8.02 0.42,1.64 0.78,3.29 0.9,5.02l0.01 3.46c-0.05,3.19 -0.84,10.99 -1.26,14.66l-2.01 21.88c1.17,-0.02 1.69,-0.41 3.06,-0.41l2.86 0c4.51,0 8.89,2.46 11.99,5.56 0.81,0.82 1.48,1.47 2.08,2.41 1.19,1.85 2.13,3.62 2.72,5.85 0.29,1.05 0.55,2.32 0.55,3.73 0,6.36 -0.18,9.01 -1.45,15.08 -0.4,1.93 -1.11,3.81 -1.7,5.65l-2.18 5.57c-0.77,1.71 -1.52,3.39 -2.88,4.67 -1.85,1.73 -4.92,1.92 -7.17,0.73 -1.87,-0.99 -2.77,-2.57 -3.23,-4.75 -0.45,-2.14 0.78,-4.16 1.67,-5.93 1.25,-2.49 2.2,-5.31 2.84,-7.98 0.19,-0.78 0.3,-1.38 0.49,-2.16 0.18,-0.72 0.24,-1.55 0.36,-2.29 0.42,-2.46 0.59,-4.79 0.59,-7.38 0,-4.42 -4.64,-7.36 -8.59,-5.52 -1.2,0.56 -2.24,1.5 -2.82,2.69 -1.05,2.16 -0.76,4.54 -1.12,7.04 -0.14,0.95 -0.22,1.49 -0.35,2.5 -0.11,0.81 -0.38,1.2 -0.66,1.99 -0.46,1.3 -1.19,2.6 -1.93,3.58 -0.22,0.29 -0.43,0.53 -0.64,0.78 -0.03,0.03 -0.07,0.08 -0.1,0.11 -0.03,0.03 -0.06,0.08 -0.09,0.11l-1.94 1.73c-1.01,0.8 -2.32,1.52 -3.59,1.93 -4,1.26 -5.71,0.67 -9.7,0.12l-17.2 -2.6c-4.35,-0.62 -8.78,-1.01 -13.1,-0.98 -1.87,0.01 -3.25,-0.2 -5.31,-0.2 -3.46,0 -10.24,0.24 -13.56,0.73l-5.21 0.5c-1.93,0.28 -5.55,0.51 -7.45,0.92 -0.82,0.18 -1.68,0.34 -2.42,0.44l-2.41 0.44c-1.8,0.35 -8.28,1.45 -9.77,1.45 -5.85,0 -10.9,-3.85 -12.84,-9.21 -1.31,-3.63 -0.72,-6.49 -1.49,-9.53 -0.18,-0.72 -0.44,-1.57 -0.74,-2.12 -2.75,-5.14 -11.27,-3.2 -11.27,3.11 0,3.62 0.54,9.07 1.63,12.46 0.91,2.83 1.72,5.69 3.09,8.34l2.95 5.42c1.52,2.54 3.39,4.93 5.28,7.17l5.75 5.88c0.19,0.16 0.16,0.14 0.32,0.29 0.34,0.32 1.27,1.21 1.69,1.37 1.01,0.38 86.19,0.1 92.15,0.1 3.95,0 6.86,-0.04 8.65,3.6 0.36,0.73 0.52,1.46 0.8,2.26l4.81 16.62c0.18,0.53 0.17,0.72 0.34,1.3 0.15,0.52 0.18,0.46 0.35,1.08 0.54,2 0.94,3.92 -0.12,5.88 -0.2,0.38 -0.82,1.27 -1.09,1.56 -0.79,0.86 -2.21,1.58 -3.8,1.78zm-182.59 -160.07l-0.01 0.92 0 164.53c0,13.09 10.76,23.85 23.85,23.85l206.19 0c13.09,0 23.85,-10.76 23.85,-23.85l0 -164.83 -0.01 -0.72c-0.1,-6.64 -3.06,-12.82 -7.98,-17.24 -0.21,-0.18 -0.37,-0.34 -0.57,-0.54l-101.52 -101.52c-9.26,-9.25 -24.48,-9.26 -33.73,0l-101.53 101.53c-0.19,0.19 -0.36,0.35 -0.56,0.54 -4.94,4.42 -7.85,10.63 -7.98,17.27 -0,0.02 -0,0.04 -0,0.06z"/>
  <path class="fil1" d="M0 131.3c0,11.96 9.69,21.65 21.65,21.65 11.96,0 21.65,-9.69 21.65,-21.65 0,-11.96 -9.69,-21.65 -21.65,-21.65 -11.96,0 -21.65,9.69 -21.65,21.65z"/>
 </g>
</svg>
