<?xml version="1.0" encoding="UTF-8"?>
<!DOCTYPE svg PUBLIC "-//W3C//DTD SVG 1.1//EN" "http://www.w3.org/Graphics/SVG/1.1/DTD/svg11.dtd">
<!-- Creator: CorelDRAW 2019 (64-Bit) -->
<svg xmlns="http://www.w3.org/2000/svg" xml:space="preserve" width="0.754409in" height="0.512996in" version="1.1" style="shape-rendering:geometricPrecision; text-rendering:geometricPrecision; image-rendering:optimizeQuality; fill-rule:evenodd; clip-rule:evenodd"
viewBox="0 0 108.82 74"
 xmlns:xlink="http://www.w3.org/1999/xlink"
 xmlns:xodm="http://www.corel.com/coreldraw/odm/2003">
 <defs>
  <style type="text/css">
   <![CDATA[
    .fil1 {fill:#01C764;fill-rule:nonzero}
    .fil0 {fill:#232D40;fill-rule:nonzero}
   ]]>
  </style>
 </defs>
 <g id="Layer_x0020_1">
  <metadata id="CorelCorpID_0Corel-Layer"/>
  <path class="fil0" d="M31.24 11.46c-1.51,0 -3.03,0.21 -4.53,0.63 -7.21,1.98 -13.69,7.92 -17.8,16.32 -7.29,14.73 -5.14,31.56 4.89,38.32 2.6,1.75 5.57,2.64 8.83,2.64 1.46,0 2.94,-0.2 4.4,-0.59 6.9,-1.87 13.23,-7.44 17.36,-15.26 0.25,-0.48 0.67,-0.86 1.17,-1.06 5.79,-2.36 12.45,-2.45 18.28,-0.25 0.52,0.2 0.96,0.58 1.22,1.07 4.15,7.75 10.35,13.19 17.02,14.93 4.76,1.2 9.27,0.5 13.04,-2.04 9.89,-6.7 12.05,-23.17 4.9,-37.51 -4.17,-8.32 -10.57,-14.15 -17.55,-15.99 -4.03,-1.04 -7.99,-0.71 -11.43,0.95 -0.13,0.06 -0.27,0.14 -0.44,0.24 -1.75,0.98 -5.4,3.01 -15.35,3.01 -6.55,0 -12.15,-1.2 -16.64,-3.58 -2.29,-1.21 -4.81,-1.82 -7.38,-1.82zm48.92 17.01c-4.97,0 -9.02,4.05 -9.02,9.02 0,4.97 4.05,9.02 9.02,9.02 4.97,0 9.02,-4.05 9.02,-9.02 0,-4.97 -4.05,-9.02 -9.02,-9.02zm0 22.67c-7.53,0 -13.65,-6.12 -13.65,-13.65 0,-7.53 6.12,-13.65 13.65,-13.65 7.53,0 13.65,6.12 13.65,13.65 0,7.53 -6.12,13.65 -13.65,13.65zm-42.53 -10.87l-7.7 0 0 7.7c0,1.28 -1.04,2.32 -2.32,2.32 -1.28,0 -2.32,-1.04 -2.32,-2.32l0 -7.7 -7.7 0c-1.28,0 -2.32,-1.04 -2.32,-2.32 0,-1.28 1.04,-2.32 2.32,-2.32l7.7 0 0 -7.7c0,-1.28 1.04,-2.32 2.32,-2.32 1.28,0 2.32,1.04 2.32,2.32l0 7.7 7.7 0c1.28,0 2.32,1.04 2.32,2.32 0,1.28 -1.04,2.32 -2.32,2.32zm-14.99 33.72c-4.2,0 -8.04,-1.15 -11.42,-3.43 -11.92,-8.03 -14.76,-27.44 -6.46,-44.2 4.69,-9.58 12.24,-16.42 20.72,-18.74 5.21,-1.46 10.63,-0.92 15.25,1.52 3.35,1.77 7.44,2.78 12.22,3.02l0 -9.85c0,-1.28 1.04,-2.32 2.32,-2.32 1.28,0 2.32,1.04 2.32,2.32l0 9.87c6.97,-0.26 9.5,-1.67 10.78,-2.38 0.25,-0.14 0.48,-0.26 0.67,-0.36 4.44,-2.15 9.49,-2.59 14.62,-1.26 8.28,2.18 15.75,8.89 20.52,18.4 8.17,16.38 5.33,35.45 -6.45,43.42 -4.82,3.25 -10.78,4.2 -16.78,2.69 -7.69,-2 -14.76,-7.97 -19.51,-16.43 -4.3,-1.42 -9.07,-1.35 -13.35,0.19 -4.74,8.55 -11.93,14.65 -19.83,16.79 -1.86,0.5 -3.75,0.76 -5.61,0.76z"/>
  <path class="fil1" d="M10.55 14.98c0,3.89 3.15,7.05 7.05,7.05 3.89,0 7.05,-3.15 7.05,-7.05 0,-3.89 -3.15,-7.05 -7.05,-7.05 -3.89,0 -7.05,3.15 -7.05,7.05z"/>
 </g>
</svg>
