<?xml version="1.0" encoding="UTF-8"?>
<!DOCTYPE svg PUBLIC "-//W3C//DTD SVG 1.1//EN" "http://www.w3.org/Graphics/SVG/1.1/DTD/svg11.dtd">
<!-- Creator: CorelDRAW 2019 (64-Bit) -->
<svg xmlns="http://www.w3.org/2000/svg" xml:space="preserve" width="0.828327in" height="0.794098in" version="1.1" style="shape-rendering:geometricPrecision; text-rendering:geometricPrecision; image-rendering:optimizeQuality; fill-rule:evenodd; clip-rule:evenodd"
viewBox="0 0 56.11 53.79"
 xmlns:xlink="http://www.w3.org/1999/xlink"
 xmlns:xodm="http://www.corel.com/coreldraw/odm/2003">
 <defs>
  <style type="text/css">
   <![CDATA[
    .fil0 {fill:#232D40}
    .fil1 {fill:#01C764;fill-rule:nonzero}
   ]]>
  </style>
 </defs>
 <g id="Layer_x0020_1">
  <metadata id="CorelCorpID_0Corel-Layer"/>
  <path class="fil0" d="M11.02 11.47c-0.25,-0.01 -0.51,-0.03 -0.76,-0.07 -3.13,-0.51 -5.25,-3.45 -4.75,-6.58 0.51,-3.13 3.45,-5.25 6.58,-4.75 0.42,0.07 0.83,0.18 1.22,0.34 2.33,0.82 4.67,1.64 7,2.47 2.1,0.59 3.44,2.67 3.09,4.84 -0.35,2.16 -2.28,3.72 -4.46,3.62l-1.07 0.02 0 8.33c0.71,0.17 1.41,0.4 2.08,0.68 7.27,2.56 14.54,5.12 21.82,7.68l4.02 -20.72 -2.92 0c-0.51,0 -0.93,-0.42 -0.93,-0.93l0 -0c0,-0.51 0.42,-0.93 0.93,-0.93l9.65 0 0.96 -4.65c0.1,-0.5 0.58,-0.73 1.1,-0.73l0 0c0.51,0 0.84,0.59 0.73,1.1l-0.89 4.29 0.73 0c0.51,0 0.93,0.42 0.93,0.93l0 0c0,0.51 -0.42,0.93 -0.93,0.93l-2.52 0 -4.46 23c3.56,1.72 5.69,5.62 5.03,9.67 -0.75,4.65 -4.93,7.97 -9.62,7.64l-0.79 0.01 2.47 4.28 2.85 0c0.51,0 0.93,0.42 0.93,0.93l0 0c0,0.51 -0.42,0.93 -0.93,0.93l-5.97 0c-0.51,0 -0.93,-0.42 -0.93,-0.93l0 -0c0,-0.51 0.42,-0.93 0.93,-0.93l0.96 0 -2.26 -3.9c-0.06,-0.11 -0.1,-0.22 -0.12,-0.34 -8.43,0.15 -16.86,0.3 -25.29,0.45 -1,0.07 -2.01,0.04 -3,-0.1l-2.25 3.9 0.96 0c0.51,0 0.93,0.42 0.93,0.93l0 0c0,0.51 -0.42,0.93 -0.93,0.93l-5.97 0c-0.51,0 -0.93,-0.42 -0.93,-0.93l0 -0c0,-0.51 0.42,-0.93 0.93,-0.93l2.85 0 2.49 -4.3c-6.99,-1.95 -11.54,-8.89 -10.36,-16.22 0.96,-5.9 5.36,-10.39 10.83,-11.73l0 -8.21zm4.75 22.55l2.34 4.03c1,-0.84 1.72,-2.04 1.95,-3.43 0.5,-3.1 -1.6,-6.01 -4.7,-6.51 -3.1,-0.5 -6.01,1.6 -6.51,4.7 -0.5,3.1 1.6,6.01 4.7,6.51 1.04,0.17 2.05,0.04 2.96,-0.31l-2.35 -4.05c-0.26,-0.44 -0.12,-1.05 0.34,-1.27l0 -0c0.46,-0.23 1.02,-0.1 1.27,0.34zm3.29 5.67l1.13 1.95 2.85 0c0.51,0 0.93,0.42 0.93,0.93l0 0c0,0.51 -0.42,0.93 -0.93,0.93l-5.97 0c-0.51,0 -0.93,-0.42 -0.93,-0.93l0 -0c0,-0.51 0.42,-0.93 0.93,-0.93l0.96 0 -0.58 -1c-1.28,0.56 -2.73,0.76 -4.21,0.52 -4.11,-0.67 -6.91,-4.54 -6.24,-8.65 0.67,-4.11 4.54,-6.91 8.65,-6.24 4.11,0.67 6.91,4.54 6.24,8.65 -0.32,1.97 -1.38,3.64 -2.84,4.77zm28.61 -32.36l-4.14 21.33 2.93 1.03 4.34 -22.36 -3.13 0zm-31.65 12.03l0 -7.97 -3.13 0.05 0 7.91c1.02,-0.11 2.07,-0.11 3.13,0zm-0.63 26.91c-0.96,0.07 -1.95,0.03 -2.95,-0.13 -6.86,-1.11 -11.52,-7.57 -10.41,-14.43 1.11,-6.86 7.57,-11.52 14.43,-10.41 1,0.16 1.95,0.44 2.84,0.81l0 0c8.89,3.13 17.79,6.26 26.68,9.39 3.63,0.89 6.03,4.44 5.42,8.2 -0.61,3.76 -4,6.37 -7.73,6.07 -9.43,0.17 -18.85,0.33 -28.28,0.5l-0 -0zm-3.94 -36.67c-0.3,0.02 -0.6,0.01 -0.89,-0.04 -2.11,-0.34 -3.54,-2.33 -3.2,-4.44 0.34,-2.11 2.33,-3.54 4.44,-3.2 0.29,0.05 0.58,0.13 0.86,0.24 2.37,0.83 4.74,1.67 7.11,2.5 1.22,0.31 2,1.51 1.8,2.75 -0.2,1.25 -1.32,2.13 -2.58,2.05 -2.51,0.04 -5.02,0.09 -7.54,0.13z"/>
  <path class="fil1" d="M11.14 33.72c0,1.83 1.48,3.31 3.31,3.31 1.83,0 3.31,-1.48 3.31,-3.31 0,-1.83 -1.48,-3.31 -3.31,-3.31 -1.83,0 -3.31,1.48 -3.31,3.31z"/>
 </g>
</svg>
