<svg width="138" height="48" fill="none" xmlns="http://www.w3.org/2000/svg"><g clip-path="url(#clip0_2630_6976)" fill="#fff"><path d="M128.666 2.848c2.454 0 4.103.474 5.082 1.437.966.963 1.435 2.63 1.435 5.085v29.288c0 2.454-.469 4.108-1.435 5.057-.965.963-2.628 1.424-5.082 1.424H9.24c-2.44 0-4.09-.461-5.03-1.41-.938-.95-1.394-2.603-1.394-5.071V9.383c0-2.82.308-4.366 1.02-5.18.79-.922 2.52-1.342 5.417-1.342h119.413m0-1.898H9.253C2.12.949.938 3.444.938 9.383v29.302c0 5.925 2.441 8.38 8.302 8.38h119.426c5.874 0 8.395-2.455 8.395-8.38V9.383c0-5.939-2.521-8.434-8.395-8.434v.014z"/><path fill-rule="evenodd" clip-rule="evenodd" d="M36.425 29.64c-.684 1.533-1.02 2.224-1.891 3.58-1.234 1.899-2.964 4.258-5.123 4.272-1.918.013-2.401-1.262-5.003-1.248-2.588.014-3.138 1.261-5.042 1.248-2.146-.014-3.796-2.156-5.03-4.055-3.446-5.301-3.808-11.525-1.676-14.834 1.516-2.345 3.89-3.729 6.129-3.729 2.24 0 3.715 1.261 5.592 1.261 1.878 0 2.938-1.26 5.58-1.26 2.641 0 4.103 1.098 5.605 2.996-4.922 2.726-4.13 9.844.859 11.756"/><path fill-rule="evenodd" clip-rule="evenodd" d="M27.975 12.786c.952-1.247 1.69-2.996 1.422-4.786-1.57.108-3.393 1.112-4.466 2.427-.966 1.193-1.77 2.956-1.462 4.678 1.703.054 3.474-.976 4.506-2.305m96.936 19.336h-6.92c.027.949.362 1.776 1.006 2.332.576.488 1.341.718 2.266.718s1.958-.176 2.803-.515l.362 1.614c-.979.434-2.146.637-3.487.637-1.341 0-2.87-.474-3.795-1.437-.912-.963-1.381-2.237-1.381-3.851 0-1.614.429-2.902 1.287-3.96.899-1.125 2.119-1.68 3.634-1.68 1.516 0 2.629.555 3.393 1.68.617.896.926 2.048.926 3.35 0 1.301-.027.827-.081 1.098l-.013.014zm-9.844-3.851c-.134-.04-.496-.054-.751-.054-.818 0-1.448.311-1.891.922-.389.542-.59 1.234-.59 2.074v5.383h-2.28v-7.078c0-1.206-.053-2.278-.094-3.362h2.012l.08 2.17h.067c.242-.679.631-1.29 1.154-1.71a2.805 2.805 0 011.69-.582c.603 0 .456 0 .59.013v2.224h.013zm-8.342 7.091c-.952 1.058-2.226 1.6-3.808 1.6-1.583 0-2.75-.515-3.648-1.532-.899-1.017-1.355-2.319-1.355-3.864 0-1.546.47-2.956 1.395-4 .939-1.044 2.186-1.56 3.769-1.56 1.582 0 2.749.502 3.674 1.533.885.99 1.328 2.278 1.328 3.837 0 1.56-.456 2.942-1.368 3.973l.013.013zm-9.495-7.308h-2.414v5.017c0 1.301.403 1.939 1.301 1.939.899 0 .724-.027.993-.109l.053 1.763c-.456.176-1.06.258-1.797.258-.737 0-1.65-.272-2.159-.841-.523-.556-.791-1.505-.791-2.834v-5.207H90.94v-1.898h1.475v-1.858l2.414-.691v2.549h2.414v1.898l-.014.014zm-8.113 7.607c-.94.854-2.253 1.274-3.93 1.274-1.676 0-2.79-.298-3.728-.908l.536-1.94a6.422 6.422 0 003.326.91c1.207 0 1.543-.204 2.039-.597.483-.394.724-.922.724-1.6s-.201-1.085-.59-1.492c-.402-.407-1.06-.773-1.985-1.125-2.521-.95-3.782-2.332-3.782-4.163 0-1.83.443-2.183 1.328-2.942.885-.76 2.065-1.14 3.54-1.14 1.476 0 2.401.231 3.273.692l-.577 1.899c-.818-.448-1.73-.665-2.763-.665-1.032 0-1.448.203-1.904.597a1.73 1.73 0 00-.577 1.315c0 .515.215 1.044.657 1.424.39.339 1.087.718 2.093 1.125 1.247.502 2.145 1.098 2.736 1.776.576.678.871 1.519.871 2.522 0 1.004-.429 2.251-1.274 3.024l-.013.014zm-13.33-.082c-.86.922-1.932 1.383-3.206 1.383s-2.293-.501-2.964-1.491v5.613h-2.28V29.695c0-1.125-.04-2.156-.094-3.512h2.025l.134 1.763h.04c.779-1.22 1.945-1.898 3.501-1.898 1.556 0 2.253.474 3.071 1.464.818.976 1.234 2.264 1.234 3.864s-.483 3.187-1.449 4.23l-.013-.013zm-11.414 0c-.858.922-1.93 1.383-3.205 1.383-1.274 0-2.293-.501-2.964-1.491v5.613h-2.28V29.695c0-1.125-.053-2.156-.107-3.512h2.025l.134 1.763h.04c.778-1.22 1.945-1.898 3.514-1.898 1.57 0 2.24.474 3.071 1.464.818.976 1.234 2.264 1.234 3.864s-.483 3.187-1.448 4.23l-.014-.013zM52.035 36.61l-1.341-4.203h-4.68l-1.288 4.203h-2.387l4.627-14.508h2.87l4.667 14.508h-2.468zm68.477-9.003c-.751 0-1.368.393-1.837 1.017-.389.502-.617 1.058-.684 1.871h4.801c0-.814-.134-1.356-.443-1.858-.402-.65-1.019-1.044-1.837-1.044v.014zm-72.165-3.471h-.04a88.216 88.216 0 01-.684 2.793l-1.194 3.85h3.863l-1.207-3.85c-.135-.393-.376-1.437-.725-2.793h-.013zm23.845 3.742c-.577 0-1.086.19-1.542.57-.47.393-.778.88-.912 1.505a3.335 3.335 0 00-.108.718v1.75c0 .759.242 1.41.698 1.938.456.516 1.073.787 1.81.787.738 0 1.556-.34 2.039-1.017.483-.678.724-1.573.724-2.685s-.228-1.857-.684-2.522c-.496-.691-1.167-1.044-2.012-1.044h-.013zm30.819-.15c-.926 0-1.623.421-2.106 1.248-.416.692-.617 1.519-.617 2.522 0 1.004.201 1.79.617 2.482.496.827 1.194 1.247 2.092 1.247.899 0 1.569-.42 2.065-1.274.43-.692.644-1.533.644-2.495 0-.963-.201-1.79-.617-2.482-.496-.84-1.18-1.247-2.078-1.247zm-42.232.15c-.563 0-1.086.19-1.542.57-.47.393-.765.88-.912 1.505a3.335 3.335 0 00-.107.718v1.75c0 .759.228 1.41.697 1.938.456.516 1.06.787 1.81.787.752 0 1.556-.34 2.039-1.017.483-.678.724-1.573.724-2.685s-.228-1.857-.684-2.522c-.496-.691-1.167-1.044-2.012-1.044h-.013z"/><path d="M45.37 16.38l-.644 2.128H43.33l2.387-7.511h1.73l2.414 7.511H48.4l-.67-2.128h-2.36zm2.132-1.03l-.59-1.858c-.148-.462-.268-.977-.376-1.41h-.026c-.108.433-.215.962-.35 1.41l-.576 1.857h1.918zm3.903-2.265l.871 2.752c.161.475.269.909.362 1.356h.027c.094-.447.215-.867.362-1.356l.845-2.752h1.435l-2.052 5.437h-1.34l-1.999-5.437h1.489zm7.698 5.437l-.094-.596h-.027c-.335.42-.898.718-1.582.718-1.087 0-1.69-.786-1.69-1.613 0-1.37 1.207-2.061 3.192-2.048v-.095c0-.352-.148-.949-1.087-.949-.938 0-1.086.163-1.448.407l-.268-.895c.402-.244 1.086-.474 1.945-.474 1.716 0 2.212 1.098 2.212 2.291v1.966c0 .488.027.976.08 1.302h-1.22l-.013-.014zm-.174-2.657c-.966-.027-1.878.19-1.878 1.017s.335.786.778.786.939-.352 1.06-.746c.026-.095.04-.217.04-.298v-.759zm2.761-5.261h1.368v7.918H61.69v-7.918zm4.28.962c0 .407-.296.732-.778.732-.483 0-.752-.325-.752-.732s.309-.746.765-.746.75.326.764.746zm-1.45 6.942v-5.437h1.369v5.437H64.52zm2.777.014c.026-.366.04-.976.04-1.532v-6.386h1.354v3.24h.027c.335-.529.912-.868 1.717-.868 1.314 0 2.253 1.099 2.24 2.753 0 1.953-1.221 2.915-2.441 2.915-1.22 0-1.315-.271-1.704-.935h-.026l-.067.813h-1.154.014zm1.394-2.237c0 .108 0 .217.027.325.148.543.617.963 1.207.963.845 0 1.368-.692 1.368-1.79s-.456-1.735-1.354-1.735c-.899 0-1.046.406-1.207 1.003a1.34 1.34 0 00-.04.352v.882zm5.109-5.681h1.369v7.918H73.8v-7.918zm3.797 5.586c.027.976.791 1.41 1.65 1.41.858 0 1.086-.095 1.488-.244l.201.949c-.47.19-1.1.339-1.877.339-1.744 0-2.763-1.085-2.763-2.739s.898-2.915 2.628-2.915 2.32 1.45 2.32 2.644c0 1.193-.026.46-.04.583H77.61l-.013-.027zm2.36-.963c0-.502-.214-1.329-1.113-1.329-.898 0-1.194.773-1.247 1.329h2.36zm9.749.529c0 1.993-1.394 2.888-2.762 2.888s-2.696-1.057-2.696-2.793c0-1.736 1.153-2.874 2.776-2.874 1.623 0 2.669 1.139 2.669 2.793l.013-.014zm-4.05.054c0 1.045.51 1.844 1.341 1.844.832 0 1.315-.772 1.315-1.857s-.376-1.817-1.301-1.817c-.926 0-1.341.935-1.341 1.844l-.014-.014zm5.177-1.112c0-.623 0-1.152-.04-1.613h1.194l.067.813h.026c.228-.42.819-.935 1.704-.935s1.904.61 1.904 2.332v3.227h-1.355v-3.064c0-.787-.281-1.37-1.019-1.37-.737 0-.912.394-1.06.8-.04.122-.053.285-.053.448v3.186h-1.368v-3.824zm10.139-3.158v1.545h1.287v1.03h-1.287v2.4c0 .665.174 1.004.697 1.004.523 0 .403-.027.523-.068l.027 1.044c-.201.081-.55.136-.979.136-.429 0-.912-.163-1.167-.448-.281-.312-.415-.8-.415-1.518v-2.55h-.778v-1.03h.778v-1.22l1.327-.326h-.013zm2.32-.936h1.368v3.24h.027c.161-.257.389-.474.67-.623.269-.163.59-.245.926-.245.912 0 1.877.61 1.877 2.36v3.2h-1.354v-3.051c0-.787-.282-1.383-1.033-1.383-.751 0-.898.352-1.046.773a1.25 1.25 0 00-.054.406v3.241h-1.368v-7.918h-.013zm7.269 5.586c.026.976.791 1.41 1.649 1.41.859 0 1.086-.095 1.489-.244l.201.949c-.469.19-1.1.339-1.878.339-1.743 0-2.762-1.085-2.762-2.739s.898-2.915 2.628-2.915 2.32 1.45 2.32 2.644c0 1.193-.026.46-.04.583h-3.594l-.013-.027zm2.36-.963c0-.502-.215-1.329-1.113-1.329-.899 0-1.194.773-1.247 1.329h2.36z"/></g><defs><clipPath id="clip0_2630_6976"><path fill="#fff" d="M0 0h138v48H0z"/></clipPath></defs></svg>