<?xml version="1.0" encoding="utf-8"?>
<svg xmlns="http://www.w3.org/2000/svg" fill="none" height="19" width="90">
  <path clip-rule="evenodd" d="M37.634 4.35c-1.621 0-3.465.751-4.592 2.256v-2.02h-3.866v14.082h3.866v-8.013c0-1.442 1.118-2.975 3.189-2.975 1.6 0 3.255 1.113 3.255 2.975v8.013h3.868v-8.73c0-3.238-2.318-5.588-5.72-5.588zm33.203.236l-3.496 9.593-3.495-9.593h-4.418l5.794 14.078h4.238l5.794-14.078h-4.417z" fill="#D2232A" fill-rule="evenodd"/>
  <mask height="19" id="a" maskUnits="userSpaceOnUse" width="28" x="0" y="0">
    <path d="M.023.374h27.763v18.534H.023V.374z" fill="#fff"/>
  </mask>
  <g clip-rule="evenodd" fill="#D2232A" fill-rule="evenodd" mask="url(#a)">
    <path d="M25.06 14.338c-1.627 1.205-2.557 1.492-4.041 1.492-1.336 0-2.381-.414-3.119-1.142l9.886-4.1c-.215-1.529-.795-2.894-1.688-3.932-1.3-1.51-3.221-2.307-5.563-2.307-4.251 0-7.458 3.137-7.458 7.28 0 4.25 3.214 7.279 7.885 7.279 2.616 0 5.292-1.24 6.544-2.69l-2.445-1.88zm-7.429-5.51c.66-.883 1.708-1.402 2.975-1.402 1.393 0 2.45.795 2.997 1.97L16.847 12.2c-.184-1.439.183-2.564.784-3.37zm-4.922 6.289h-8.79V.374H0v18.294h12.709v-3.55z"/>
  </g>
  <path clip-rule="evenodd" d="M82.198 18.905c-4.23 0-7.543-3.15-7.543-7.278 0-4.08 3.337-7.278 7.594-7.278 4.23 0 7.543 3.15 7.543 7.278 0 4.08-3.336 7.278-7.594 7.278zm0-11.242c-2.16 0-3.728 1.636-3.728 3.964 0 2.223 1.661 3.965 3.78 3.965 2.16 0 3.727-1.682 3.727-3.965 0-2.223-1.66-3.964-3.78-3.964zM52.425 18.905c-4.229 0-7.542-3.15-7.542-7.278 0-4.08 3.336-7.278 7.595-7.278 4.228 0 7.542 3.15 7.542 7.278 0 4.08-3.337 7.278-7.595 7.278zm0-11.242c-2.16 0-3.727 1.636-3.727 3.964 0 2.223 1.66 3.965 3.78 3.965 2.16 0 3.727-1.682 3.727-3.965 0-2.223-1.66-3.964-3.78-3.964z" fill="#D2232A" fill-rule="evenodd"/>
</svg>