<?xml version="1.0" encoding="utf-8"?>
<svg xmlns="http://www.w3.org/2000/svg" fill="none" height="36" width="80">
  <path clip-rule="evenodd" d="M48.39 6.116h-5.248v22.72h16.123V24.41H48.39V6.115zm22.422 14.06h4.273v3.972c-.788.3-2.323.601-3.785.601-4.726 0-6.3-2.401-6.3-7.274 0-4.65 1.498-7.386 6.222-7.386 2.627 0 4.126.824 5.362 2.4l3.263-3c-1.988-2.847-5.475-3.71-8.737-3.71-7.348 0-11.21 4.01-11.21 11.658 0 7.612 3.487 11.736 11.173 11.736 3.524 0 6.974-.902 8.848-2.212V15.938h-9.11v4.238z" fill="#6D6E70" fill-rule="evenodd"/>
  <path clip-rule="evenodd" d="M17.703 0C8.016.007.16 7.85.14 17.536.118 27.222 7.938 35.1 17.625 35.149c9.686.05 17.586-7.748 17.664-17.434v-.274C35.215 7.783 27.36-.006 17.703 0z" fill="url(#paint0_radial)" fill-rule="evenodd"/>
  <path clip-rule="evenodd" d="M5.815 5.676c-5.871 5.874-6.467 14.822-1.31 19.98 5.157 5.159 14.097 4.564 19.979-1.313 5.88-5.877 6.467-14.832 1.316-19.987C23.446 2 20.302.84 17.015.84c-3.903 0-8.006 1.636-11.2 4.832" fill="url(#paint1_linear)" fill-rule="evenodd"/>
  <path d="M16.803 25.447l.434-.248V10.352l-.108-.173.108-.03v-.023h.076l1.313-.45.237.405a.155.155 0 01.032.112l-.013 13.519h3.195l.256.4a.23.23 0 01.039.165v1.36a.106.106 0 01-.099.116h-4.89a.459.459 0 01-.244-.071l-.336-.235zm15.854-8.683h-10.87v1.74l.27.36a.13.13 0 00.093.037h9.095c-.47 6.876-6.27 12.261-13.2 12.261a13.216 13.216 0 01-9.357-3.854 13.024 13.024 0 01-3.868-9.295c0-3.515 1.3-6.889 3.796-9.365 2.495-2.476 5.667-3.783 9.448-3.865l.713-.011h.083c.049 0 .091-.007.091-.117V3.234a.282.282 0 00-.035-.153l-.32-.404-.725.104-.365.121c-8.255 0-14.444 6.9-14.444 15.116a14.762 14.762 0 004.39 10.529c2.826 2.812 6.571 4.239 10.568 4.239 3.998 0 7.785-1.514 10.608-4.329a14.742 14.742 0 004.39-10.53v-.857l-.361-.306zM12.322 9.883a2.345 2.345 0 102.362 2.348 2.355 2.355 0 00-2.362-2.348z" fill="url(#paint2_linear)"/>
  <path clip-rule="evenodd" d="M17.16 25.105l-.357.342h5.27l-.344-.352-4.569.01z" fill="#626D77" fill-rule="evenodd"/>
  <path clip-rule="evenodd" d="M21.73 24.046l.344-.333h-3.45l-.41.333h3.515z" fill="#8699A3" fill-rule="evenodd"/>
  <path clip-rule="evenodd" d="M18.624 9.676h-1.821l.341.326 1.09-.001.39-.325z" fill="#8D9AA1" fill-rule="evenodd"/>
  <path clip-rule="evenodd" d="M18.244 24.02l.38-.307V9.676l-.39.325.01 14.019z" fill="url(#paint3_linear)" fill-rule="evenodd"/>
  <path clip-rule="evenodd" d="M21.73 24.046v1.05l.344.35v-1.733l-.345.333z" fill="url(#paint4_linear)" fill-rule="evenodd"/>
  <path clip-rule="evenodd" d="M16.803 9.676v15.77l.357-.34-.015-15.104-.342-.326z" fill="#B4BDC3" fill-rule="evenodd"/>
  <path d="M9.805 11.96a2.293 2.293 0 104.586.004 2.293 2.293 0 00-4.586-.003zm4.246 0a1.954 1.954 0 11-3.908.015 1.954 1.954 0 013.908-.014z" fill="url(#paint5_linear)"/>
  <path clip-rule="evenodd" d="M31.172 18.109l-9.11-.011-.337.355h9.097l.181-.188.169-.156z" fill="#505C61" fill-rule="evenodd"/>
  <path clip-rule="evenodd" d="M22.063 17.071l10.187-.016.345-.348-10.87.003.337.361z" fill="#8F9CA4" fill-rule="evenodd"/>
  <path clip-rule="evenodd" d="M32.595 17.566v-.853l-.345.346v.513c-.004 8.03-6.515 14.538-14.546 14.538-8.03-.001-14.541-6.51-14.543-14.541-.003-8.03 6.504-14.544 14.535-14.55l.555-.006.34-.33-.895-.009c-8.201 0-14.878 6.683-14.878 14.903a14.89 14.89 0 1029.777 0v-.01z" fill="url(#paint6_linear)" fill-rule="evenodd"/>
  <path clip-rule="evenodd" d="M18.25 4.089l-.383-.009h-.363c-7.328.174-13.177 6.169-13.17 13.5.007 7.33 5.867 13.313 13.196 13.474h.345c7.023-.109 12.794-5.573 13.286-12.578l.012-.371-.17.154-.181.189c-.478 7.134-6.568 12.579-13.71 12.26-7.143-.32-12.722-6.288-12.56-13.436.161-7.148 6.004-12.858 13.153-12.854l.886.008-.34-.337z" fill="url(#paint7_linear)" fill-rule="evenodd"/>
  <path clip-rule="evenodd" d="M22.063 17.071l-.338-.361v1.743l.337-.355V17.07z" fill="#B4BDC3" fill-rule="evenodd"/>
  <path clip-rule="evenodd" d="M18.251 4.091l.34.34V2.679l-.34.33V4.09z" fill="url(#paint8_linear)" fill-rule="evenodd"/>
  <path d="M16.997 9.861v15.4h4.895v-1.378H18.4V9.861h-1.402zm.512-7.006C9.495 2.951 2.993 9.513 2.993 17.566c0 8.12 6.583 14.704 14.704 14.704 8.12 0 14.704-6.583 14.704-14.704v-.668H21.904v1.361h9.1v.2c-.486 7.234-6.66 12.756-13.904 12.432-7.243-.323-12.9-6.375-12.738-13.623C4.525 10.019 10.45 4.228 17.7 4.23h.703V2.864c-.14 0-.369 0-.55-.009h-.344z" fill="url(#paint9_radial)"/>
  <path clip-rule="evenodd" d="M9.978 11.96a2.109 2.109 0 104.218 0 2.109 2.109 0 00-4.218 0z" fill="url(#paint10_radial)" fill-rule="evenodd"/>
  <path clip-rule="evenodd" d="M12.47 10.231c.465.003.915.16 1.28.449a2.088 2.088 0 00-1.659-.827 2.109 2.109 0 00-2.109 2.109 2.08 2.08 0 00.822 1.648 2.069 2.069 0 01-.443-1.266c0-1.164.944-2.108 2.109-2.108" fill="#fff" fill-rule="evenodd"/>
  <path clip-rule="evenodd" d="M18.399 2.864c-.185 0-.535-.011-.712-.011-8.093 0-14.692 6.608-14.692 14.713A14.622 14.622 0 007.3 27.971c.088.088.18.171.27.26a14.622 14.622 0 01-4.06-10.146c0-8.093 5.73-14.813 14.889-15.218m0 21.016s1.01.293 3.49.293v-.293H18.4zm0-13.588V9.86h-1.406v15.401s.437-2.342.437-14.966h.969zM32.4 16.897H21.903v1.363h.38v-.985c9.14 0 10.115-.38 10.115-.38" fill="#fff" fill-rule="evenodd"/>
  <path clip-rule="evenodd" d="M31.005 18.26c0 .029 0 .177-.009.203a13.333 13.333 0 01-26.14 2.698 13.507 13.507 0 0013.076 9.901c6.698 0 12.869-5.245 13.253-12.794l-.18-.009z" fill="#fff" fill-rule="evenodd"/>
  <defs>
    <linearGradient gradientUnits="userSpaceOnUse" id="paint1_linear" x1="10.517" x2="19.795" y1="2.269" y2="27.739">
      <stop stop-color="#F38895"/>
      <stop offset=".09" stop-color="#EB7588"/>
      <stop offset=".31" stop-color="#D84869"/>
      <stop offset=".52" stop-color="#CA2752"/>
      <stop offset=".69" stop-color="#C21344"/>
      <stop offset=".8" stop-color="#BF0C3F"/>
      <stop offset="1" stop-color="#BF0C3F"/>
    </linearGradient>
    <linearGradient gradientUnits="userSpaceOnUse" id="paint2_linear" x1="5.987" x2="27.36" y1="8.565" y2="29.722">
      <stop stop-color="#CD425C"/>
      <stop offset=".09" stop-color="#BE3351"/>
      <stop offset=".25" stop-color="#AA1F43"/>
      <stop offset=".43" stop-color="#9B1039"/>
      <stop offset=".65" stop-color="#930833"/>
      <stop offset="1" stop-color="#900531"/>
    </linearGradient>
    <linearGradient gradientUnits="userSpaceOnUse" id="paint3_linear" x1="18.234" x2="18.624" y1="16.848" y2="16.848">
      <stop stop-color="#B4BDC3"/>
      <stop offset=".04" stop-color="#AEB7BD"/>
      <stop offset=".5" stop-color="#6C737A"/>
      <stop offset=".83" stop-color="#434950"/>
      <stop offset="1" stop-color="#333940"/>
    </linearGradient>
    <linearGradient gradientUnits="userSpaceOnUse" id="paint4_linear" x1="21.729" x2="22.074" y1="24.579" y2="24.579">
      <stop stop-color="#B3BBC1"/>
      <stop offset=".08" stop-color="#A6AEB4"/>
      <stop offset=".52" stop-color="#636B70"/>
      <stop offset=".84" stop-color="#3A4246"/>
      <stop offset="1" stop-color="#2A3236"/>
    </linearGradient>
    <linearGradient gradientUnits="userSpaceOnUse" id="paint5_linear" x1="10.104" x2="13.35" y1="10.496" y2="13.742">
      <stop stop-color="#ABBAC2"/>
      <stop offset="1" stop-color="#262A30"/>
    </linearGradient>
    <linearGradient gradientUnits="userSpaceOnUse" id="paint6_linear" x1="5.169" x2="26.484" y1="8.623" y2="29.713">
      <stop stop-color="#B4BDC3"/>
      <stop offset="1" stop-color="#3E454D"/>
    </linearGradient>
    <linearGradient gradientUnits="userSpaceOnUse" id="paint7_linear" x1="31.011" x2="4" y1="18.043" y2="18.043">
      <stop stop-color="#B4BDC3"/>
      <stop offset="1" stop-color="#485159"/>
    </linearGradient>
    <linearGradient gradientUnits="userSpaceOnUse" id="paint8_linear" x1="18.251" x2="18.591" y1="3.554" y2="3.554">
      <stop stop-color="#B3BBC1"/>
      <stop offset=".08" stop-color="#A6AEB4"/>
      <stop offset=".52" stop-color="#636B70"/>
      <stop offset=".84" stop-color="#3A4246"/>
      <stop offset="1" stop-color="#2A3236"/>
    </linearGradient>
    <radialGradient cx="0" cy="0" gradientTransform="translate(16.914 17.369) scale(18.3163)" gradientUnits="userSpaceOnUse" id="paint0_radial" r="1">
      <stop stop-color="#BF0C3F"/>
      <stop offset=".5" stop-color="#BF0C3F"/>
      <stop offset=".75" stop-color="#BD0B3E"/>
      <stop offset=".86" stop-color="#B6093A"/>
      <stop offset=".94" stop-color="#A90534"/>
      <stop offset="1" stop-color="#99002C"/>
    </radialGradient>
    <radialGradient cx="0" cy="0" gradientTransform="translate(11.938 11.25) scale(22.5831)" gradientUnits="userSpaceOnUse" id="paint9_radial" r="1">
      <stop stop-color="#fff"/>
      <stop offset=".35" stop-color="#fff"/>
      <stop offset=".51" stop-color="#FBFCFC"/>
      <stop offset=".68" stop-color="#EEF2F3"/>
      <stop offset=".85" stop-color="#DAE1E5"/>
      <stop offset="1" stop-color="#C0CCD2"/>
    </radialGradient>
    <radialGradient cx="0" cy="0" gradientTransform="translate(11.383 11.096) scale(3.298)" gradientUnits="userSpaceOnUse" id="paint10_radial" r="1">
      <stop stop-color="#fff"/>
      <stop offset=".35" stop-color="#fff"/>
      <stop offset=".54" stop-color="#FBFCFC"/>
      <stop offset=".73" stop-color="#EEF2F4"/>
      <stop offset=".93" stop-color="#DAE2E6"/>
      <stop offset="1" stop-color="#D0DADF"/>
    </radialGradient>
  </defs>
</svg>