<?xml version="1.0" encoding="utf-8"?>
<svg xmlns="http://www.w3.org/2000/svg" height="0.984366in" style="shape-rendering:geometricPrecision; text-rendering:geometricPrecision; image-rendering:optimizeQuality; fill-rule:evenodd; clip-rule:evenodd" version="1.1" viewBox="0 0 6281.49 984.3" width="6.2819in">
 <defs>
  <style type="text/css">
   
    .fil0 {fill:#394043;fill-rule:nonzero}
    .fil2 {fill:#4F575C;fill-rule:nonzero}
    .fil1 {fill:#FF6A00;fill-rule:nonzero}
   
  </style>
 </defs>
 <g id="Layer_x0020_1">
  
  <path class="fil0" d="M5090.09 251.31c89.22,0 149.53,90.9 114.56,172.98l-22.22 51.72c-61.57,144.31 -203.12,238.55 -360.41,241.25l-364.19 0c-17.8,0 -29.96,-18.2 -22.84,-34.56 55.93,-131.31 112.88,-261.97 168.39,-393.49 9.63,-23.05 32.04,-37.91 56.95,-37.91l429.76 0zm-59.89 179.46c17.38,-41.04 -12.79,-86.28 -57.38,-86.28l-219.27 0c-43.77,92.16 -83.16,185.77 -123.15,279.59l189.95 0c81.69,-10.27 154.77,-63.86 187.43,-140.32l22.42 -52.99z"/>
  <path class="fil0" d="M4375.71 251.31c89.22,0 149.54,90.9 114.56,172.98l-20.95 47.97c-26.18,61.76 -75.81,108.89 -136.12,133.18 -17.39,5.46 -31.83,9.43 -44.19,12.37l52.15 65.33c11.1,15.31 0.84,33.92 -22.83,33.92l-97.8 0c-24.92,0 -38.12,-14.44 -57.39,-37.05l-45.86 -56.56 -200 0 -29.75 69.53c-6.28,14.68 -20.72,24.07 -36.66,24.07l-106.78 0c-18.01,0 -30.17,-18.19 -23.06,-34.55 56.14,-131.11 113.72,-261.77 169.23,-393.29 9.64,-23.05 32.04,-37.91 56.74,-37.91l428.7 0zm-59.89 179.46c17.39,-41.04 -12.79,-86.28 -57.37,-86.28l-218.23 0c-31.22,65.98 -54.87,120.42 -82.73,186.4l233.71 -0.84c50.05,0 95.29,-29.96 114.78,-75.81l9.84 -23.47z"/>
  <path class="fil0" d="M3630.59 251.31c89.23,0 149.54,90.9 114.56,172.98 -38.76,89.43 -77.27,179.07 -115.41,268.69 -6.28,14.68 -20.71,24.29 -36.86,24.29l-106.37 0c-17.8,0 -29.95,-18.2 -22.84,-34.56l25.13 -59.26 -315.38 0 -29.54 69.32c-6.28,14.68 -20.74,24.29 -36.86,24.29l-105.97 0c-17.81,0 -29.73,-18.19 -22.82,-34.55l119.15 -279.99c10.26,-24.1 23.9,-45.87 40.44,-64.93 45.22,-53.82 111.62,-86.28 185.32,-86.28l307.44 0zm-59.69 179.46c17.18,-41.04 -13,-86.28 -57.58,-86.28l-142.21 0c-48.6,1.26 -92.16,30.59 -111.2,75.62l-47.13 110.78 315.62 0c14.23,-33.29 28.25,-66.8 42.51,-100.12z"/>
  <path class="fil0" d="M3050.9 251.31c19.06,0 31.82,19.27 24.5,36.66l-87.34 203.97c-61.99,144.73 -204.6,239.39 -362.93,241.07l-43.14 0c-28.48,0 -53.41,-10.69 -72.05,-27.65 -45.87,18.01 -95.49,27.65 -146.59,27.65l-79.17 0c-76.44,0 -127.95,-77.27 -98.02,-146.83l129.42 -302.61c8.4,-19.67 27.65,-32.24 49.02,-32.24l96.12 0c19.06,0 32.04,19.27 24.5,36.66l-150.17 350.98c78.75,-9.61 147.65,-58.42 181.99,-130.26 34.56,-80.4 69.11,-160.83 103.45,-241.26 4.2,-9.84 13.83,-16.12 24.52,-16.12l107.84 0c19.07,0 32.06,19.27 24.5,36.66l-150.14 350.98c82.08,-10.03 151.19,-62.6 183.88,-139.48l99.25 -232.04c3.99,-9.84 13.63,-16.12 24.29,-16.12l116.24 0z"/>
  <path class="fil0" d="M2069.94 251.31c89.22,0 149.54,90.9 114.57,172.98l-20.75 47.97c-26.38,61.76 -76.01,108.89 -136.32,133.18 -17.39,5.46 -31.62,9.43 -44.19,12.37l52.15 65.33c11.11,15.31 0.84,33.92 -22.83,33.92l-97.8 0c-24.92,0 -38.12,-14.44 -57.39,-37.05l-45.85 -56.56 -199.79 0 -29.95 69.53c-6.28,14.68 -20.75,24.07 -36.66,24.07l-106.79 0c-18.01,0 -30.17,-18.19 -23.05,-34.55 56.14,-131.11 113.72,-261.77 169.23,-393.29 9.64,-23.05 32.04,-37.91 56.75,-37.91l428.7 0zm-59.89 179.46c17.39,-41.04 -12.78,-86.28 -57.37,-86.28l-218.23 0c-31.22,65.98 -54.87,120.42 -82.73,186.4l233.72 -0.84c50.05,0 95.29,-29.96 114.77,-75.81l9.84 -23.47z"/>
  <path class="fil0" d="M1341.56 251.31c89.23,0 149.54,91.11 114.56,173.19l-60.52 142.21c-39.17,91.93 -129.42,151.62 -229.12,151.62l-307.45 0c-89.19,0 -149.51,-91.3 -114.53,-173.41l60.52 -142.18c38.94,-91.74 129.21,-151.42 229.1,-151.42l307.44 0zm-59.89 179.89c17.38,-41.04 -12.79,-86.5 -57.4,-86.5l-141.13 0c-50.08,0 -95.29,29.96 -114.77,76.25l-49.63 117.48c-17.17,41.04 12.97,86.49 57.37,86.49l141.37 0c50.05,0 95.29,-29.96 114.77,-76.22l49.42 -117.5z"/>
  <path class="fil0" d="M765.01 251.31c18.02,0 29.96,18.22 23.03,34.55l-16.75 39.15c-5.02,11.73 -16.54,19.48 -29.31,19.48l-342.84 0c-50.05,0 -95.08,29.75 -114.77,75.62l-28.04 65.96 389.31 0c17.59,0 29.52,18.85 22.61,35.61l-11.94 29.11c-7.75,18.62 -25.75,30.99 -45.63,30.99l-395.2 0 -47.32 110.99c-6.29,14.68 -20.74,24.29 -36.86,24.29l-106.39 0c-17.8,0 -29.94,-18.19 -22.83,-34.55l119.37 -279.99c39.15,-91.74 129.42,-151.21 229.12,-151.21l414.45 0z"/>
  <path class="fil1" d="M5784.39 711.62l-336.47 -672.92c-11.78,-23.59 14.16,-48.14 37.05,-35.04l769.67 439.78c36.94,21.11 35.44,74.9 -2.61,93.93l-396.16 198.07c-26.32,13.16 -58.31,2.49 -71.49,-23.82z"/>
  <path class="fil2" d="M5329.92 942.86l264.07 -400.98c11.27,-17.1 36.8,-15.64 46.04,2.64l96.36 190.86c13.33,26.34 2.68,58.49 -23.73,71.7l-348.56 174.26c-24.38,12.2 -49.16,-15.73 -34.18,-38.48z"/>
 </g>
</svg>