<svg viewBox="0 0 16 18" fill="none" xmlns="http://www.w3.org/2000/svg"><path d="M5.917.25a2.718 2.718 0 00-2.709 2.708c0 .548.206 1.03.49 1.459H1.541A1.05 1.05 0 00.5 5.458v2.917c0 .488.375.846.833.955v5.295a2.718 2.718 0 002.709 2.708h7.916a2.718 2.718 0 002.709-2.708V9.33c.458-.11.833-.467.833-.955V5.458a1.05 1.05 0 00-1.042-1.041h-2.155c.283-.428.489-.91.489-1.459A2.718 2.718 0 0010.083.25C9.23.25 8.498.676 8 1.299 7.502.676 6.77.25 5.917.25zm0 1.25a1.45 1.45 0 011.458 1.458v1.459H5.917a1.45 1.45 0 01-1.459-1.459A1.45 1.45 0 015.917 1.5zm4.166 0a1.45 1.45 0 011.459 1.458 1.45 1.45 0 01-1.459 1.459H8.625V2.958A1.45 1.45 0 0110.083 1.5zM1.75 5.667h5.625v2.5H1.75v-2.5zm6.875 0h5.625v2.5H8.625v-2.5zm-6.042 3.75h4.792v6.666H4.042a1.45 1.45 0 01-1.459-1.458V9.417zm6.042 0h4.792v5.208a1.45 1.45 0 01-1.459 1.458H8.625V9.417z" fill="#FFF"/></svg>