<svg width="138" height="48" fill="none" xmlns="http://www.w3.org/2000/svg"><g clip-path="url(#clip0_2630_6996)" fill="#fff"><path d="M128.666 2.848c2.454 0 4.103.474 5.082 1.437.966.963 1.435 2.63 1.435 5.085v29.288c0 2.454-.469 4.108-1.435 5.057-.965.963-2.628 1.424-5.082 1.424H9.24c-2.44 0-4.09-.461-5.03-1.41-.938-.95-1.394-2.603-1.394-5.071V9.383c0-2.82.308-4.366 1.02-5.18.79-.922 2.52-1.342 5.417-1.342h119.413m0-1.898H9.253C2.12.949.938 3.444.938 9.383v29.302c0 5.925 2.441 8.38 8.302 8.38h119.426c5.874 0 8.395-2.455 8.395-8.38V9.383c0-5.939-2.521-8.434-8.395-8.434v.014z"/><path d="M67.82 27.39c-2.508 0-4.506 1.912-4.506 4.556s1.984 4.556 4.506 4.556c2.52 0 4.506-1.912 4.506-4.556S70.34 27.39 67.82 27.39zm0 7.2c-1.368 0-2.508-1.166-2.508-2.753 0-1.586 1.153-2.752 2.508-2.752 1.354 0 2.508 1.057 2.508 2.752 0 1.695-1.154 2.753-2.508 2.753zm-9.737-7.2c-2.508 0-4.506 1.912-4.506 4.556s1.985 4.556 4.506 4.556c2.522 0 4.506-1.912 4.506-4.556s-1.984-4.556-4.506-4.556zm0 7.2c-1.368 0-2.508-1.166-2.508-2.753 0-1.586 1.154-2.752 2.508-2.752 1.355 0 2.508 1.057 2.508 2.752 0 1.695-1.153 2.753-2.508 2.753zm-11.627-5.83v1.911h4.506c-.107 1.058-.523 1.912-1.046 2.44-.63.638-1.676 1.384-3.46 1.384-2.83 0-4.922-2.224-4.922-5.085 0-2.86 2.2-5.085 4.922-5.085 2.722 0 2.615.638 3.46 1.384l1.368-1.384c-1.154-1.057-2.615-1.911-4.707-1.911-3.769 0-7.014 3.172-7.014 6.996 0 3.824 3.245 6.997 7.014 6.997 3.768 0 3.567-.637 4.814-2.007 1.26-1.275 1.677-3.078 1.677-4.447 0-1.37 0-.841-.108-1.166h-6.49l-.014-.028zm47.555 1.477c-.415-1.057-1.461-2.86-3.768-2.86-2.307 0-4.184 1.803-4.184 4.555 0 2.753 1.89 4.556 4.398 4.556s3.246-1.274 3.662-2.007l-1.462-1.057c-.523.745-1.153 1.274-2.2 1.274-1.045 0-1.676-.42-2.199-1.383l5.968-2.535-.215-.53v-.013zm-6.075 1.478c0-1.695 1.368-2.644 2.307-2.644.939 0 1.462.42 1.676.95l-3.983 1.694zm-4.922 4.34H85V22.82h-1.985v13.234zm-3.138-7.73c-.523-.528-1.368-1.057-2.414-1.057-2.2 0-4.291 2.007-4.291 4.556s1.984 4.447 4.291 4.447c2.307 0 1.891-.529 2.307-1.057h.107v.637c0 1.695-.939 2.644-2.414 2.644s-1.985-.84-2.2-1.587l-1.676.746c.523 1.166 1.784 2.644 3.984 2.644 2.199 0 4.184-1.383 4.184-4.664V27.58h-1.891v.745h.013zm-2.306 6.251c-1.368 0-2.508-1.166-2.508-2.752 0-1.587 1.153-2.753 2.508-2.753 1.354 0 2.414 1.166 2.414 2.753 0 1.586-1.047 2.752-2.414 2.752zm25.56-11.756h-4.707v13.234h1.985v-4.976h2.722c2.199 0 4.292-1.587 4.292-4.136 0-2.549-2.093-4.135-4.292-4.135v.013zm.107 6.36h-2.829v-4.556h2.829c1.462 0 2.307 1.274 2.307 2.224-.107 1.166-.939 2.332-2.307 2.332zm12.043-1.912c-1.461 0-2.937.637-3.46 2.007l1.784.745c.416-.745 1.046-.949 1.784-.949 1.046 0 1.985.637 2.092 1.695v.109c-.309-.217-1.153-.53-1.985-.53-1.891 0-3.768 1.058-3.768 2.97 0 1.912 1.569 2.97 3.245 2.97 1.676 0 1.985-.637 2.508-1.275h.107v1.058h1.891v-5.085c-.214-2.332-1.985-3.702-4.184-3.702l-.014-.013zm-.214 7.308c-.63 0-1.569-.312-1.569-1.166 0-.854 1.153-1.383 2.092-1.383.939 0 1.261.217 1.784.42-.215 1.275-1.261 2.116-2.307 2.116v.013zm10.997-6.996l-2.199 5.722h-.108l-2.306-5.722h-2.093l3.46 8.054-1.984 4.447h1.984l5.338-12.501h-2.092zm-17.595 8.474h1.984V22.82h-1.984v13.234zM43.184 14.97h3.259c.013.081.04.162.04.27 0 .11.013.218.013.326 0 .434-.067.841-.201 1.22a3.01 3.01 0 01-.617 1.031c-.295.326-.657.57-1.073.746-.415.176-.885.258-1.421.258-.537 0-.94-.082-1.368-.258a3.328 3.328 0 01-1.113-.732 3.376 3.376 0 01-.751-1.112 3.48 3.48 0 01-.282-1.41c0-.515.094-.976.282-1.41.187-.434.442-.8.75-1.112a3.466 3.466 0 011.114-.732 3.56 3.56 0 011.368-.258c.482 0 1.019.095 1.448.285.43.19.791.447 1.086.786l-.858.854a2.27 2.27 0 00-.724-.528 2.297 2.297 0 00-.952-.19c-.362 0-.59.054-.859.162-.268.109-.51.272-.71.461a2.394 2.394 0 00-.67 1.681c-.001.353.066.665.187.95.12.285.281.529.496.732.201.204.443.353.724.461.268.109.563.163.872.163.308 0 .657-.054.898-.15a2.27 2.27 0 00.63-.392 1.58 1.58 0 00.323-.434c.093-.177.16-.367.214-.584h-2.092V14.97h-.013zm5.632-1.831v1.56h2.67v1.206h-2.67v1.56h2.964v1.206h-4.224v-6.725h4.224v1.207h-2.964v-.014zm5.526 5.532V13.14h-1.864v-1.207h4.975v1.207H55.59v5.532h-1.26.013zm6.061-6.739h1.261v6.726h-1.26v-6.726zm3.997 6.739V13.14h-1.864v-1.207h4.976v1.207h-1.865v5.532h-1.26.013zm9.026.149a3.61 3.61 0 01-1.382-.27 3.302 3.302 0 01-1.1-.747 3.37 3.37 0 01-.724-1.125 3.678 3.678 0 01-.268-1.383c0-.488.094-.95.268-1.383.175-.434.416-.8.725-1.126.308-.311.67-.569 1.1-.745a3.564 3.564 0 011.38-.271c.497 0 .953.094 1.382.27.43.177.791.435 1.1.747.308.311.55.691.724 1.125a3.686 3.686 0 010 2.766c-.174.434-.416.8-.724 1.125-.309.312-.684.57-1.1.746-.43.177-.885.271-1.381.271zm0-1.206c.308 0 .603-.055.871-.163a2.117 2.117 0 001.18-1.207c.121-.285.175-.596.175-.949a2.392 2.392 0 00-.644-1.681 2.34 2.34 0 00-.71-.475 2.088 2.088 0 00-.872-.163 2.32 2.32 0 00-.872.163 2.119 2.119 0 00-1.18 1.207 2.382 2.382 0 00-.175.949 2.392 2.392 0 00.644 1.681c.201.204.443.353.71.475.27.122.564.163.873.163zm4.492-5.682h1.462l2.682 4.515h.08l-.08-1.301v-3.214h1.247v6.726h-1.314l-2.83-4.773h-.08l.08 1.301v3.472h-1.234v-6.726h-.013z"/><path fill-rule="evenodd" clip-rule="evenodd" d="M30 19.946l-16.294-9.478 12.875 12.935L30 19.946zm-17.796-9.383a.766.766 0 00-.134.393v26.82c0 .081.04.163.067.244l13.626-13.803-13.559-13.654zm14.377 14.44L13.224 38.536a.47.47 0 00.12-.055l16.885-9.817-3.634-3.66h-.014zm9.817-1.342l-5.392-3.132-3.634 3.674 3.849 3.878 5.177-3.01a.819.819 0 000-1.41z"/></g><defs><clipPath id="clip0_2630_6996"><path fill="#fff" d="M0 0h138v48H0z"/></clipPath></defs></svg>