<svg width="50" height="50" viewBox="0 0 50 50" fill="none" xmlns="http://www.w3.org/2000/svg">
<path d="M32.2918 3.00001C32.2473 3.00098 32.2029 3.00517 32.159 3.01256H18.5306C18.2871 3.01259 18.0535 3.10933 17.8813 3.2815C17.709 3.45367 17.6123 3.68718 17.6122 3.93067V21.3748H11.5586C7.76899 21.3748 4.68156 24.4759 4.68156 28.275C4.68156 28.3378 4.6831 29.1713 4.68335 29.679C3.1452 30.1611 2 31.5547 2 33.2475C2 34.7481 2.96867 35.9187 4.24031 36.529L5.93355 40.9097L5.90844 40.8308C6.18852 41.8053 6.87271 42.4196 7.57478 42.7962L6.86806 44.2182C6.22724 45.4995 6.75615 47.0833 8.03755 47.7239C8.40845 47.9085 8.81119 48 9.20524 48C10.1647 48 11.0885 47.4653 11.5442 46.5583V46.5565L13.1119 43.4094H25.7879L27.3538 46.5565L27.3555 46.5583C27.8109 47.4646 28.7332 48 29.6927 48C30.0868 48 30.4895 47.9085 30.8604 47.7239C32.1418 47.0833 32.6707 45.4995 32.0299 44.2182L31.1582 42.4644C31.2333 42.483 31.3104 42.4921 31.3878 42.4913H41.4898V43.4094H47V41.5732V3.93067C47 3.68718 46.9032 3.45367 46.731 3.2815C46.5588 3.10933 46.3252 3.01259 46.0816 3.01256H32.4478C32.3963 3.00395 32.3441 2.99975 32.2918 3.00001ZM19.449 4.84879H31.3878V23.5212C30.1343 22.2027 28.3724 21.3748 26.4192 21.3748H19.449V4.84879ZM33.2245 4.84879H45.1633V40.6551H32.1447L33.7393 36.5308C35.0109 35.9202 35.9796 34.7491 35.9796 33.2475C35.9796 31.5549 34.8343 30.1612 33.2962 29.679C33.2963 29.4992 33.2961 29.4451 33.2962 29.2128C33.2965 28.7464 33.2962 28.3169 33.2962 28.275C33.2962 27.8844 33.2567 27.5041 33.194 27.1309C33.2154 27.0502 33.2256 26.9669 33.2245 26.8834V4.84879ZM36.8836 21.3622C36.6404 21.366 36.4085 21.4662 36.2391 21.6406C36.0696 21.8151 35.9763 22.0497 35.9796 22.2929V25.0472C35.9779 25.1689 36.0004 25.2897 36.0457 25.4026C36.0911 25.5155 36.1585 25.6182 36.2439 25.7049C36.3294 25.7915 36.4312 25.8603 36.5435 25.9073C36.6558 25.9542 36.7763 25.9784 36.898 25.9784C37.0197 25.9784 37.1402 25.9542 37.2524 25.9073C37.3647 25.8603 37.4665 25.7915 37.552 25.7049C37.6374 25.6182 37.7048 25.5155 37.7502 25.4026C37.7956 25.2897 37.818 25.1689 37.8163 25.0472V22.2929C37.818 22.1701 37.795 22.0481 37.7487 21.9343C37.7024 21.8206 37.6337 21.7172 37.5468 21.6304C37.4598 21.5436 37.3563 21.4752 37.2424 21.4291C37.1285 21.3831 37.0065 21.3603 36.8836 21.3622ZM11.5586 23.211H18.3764C18.4755 23.2274 18.5767 23.2274 18.6759 23.211H26.4192C29.2122 23.211 31.4595 25.4658 31.4595 28.275C31.4595 28.2404 31.4597 28.7446 31.4595 29.211C31.4594 29.45 31.4578 29.5194 31.4577 29.6916C30.1968 29.9683 29.1057 30.7319 28.6614 31.9241L28.6829 31.8721L27.6659 34.162C27.6491 34.1568 27.6418 34.1546 27.6246 34.1494C27.1132 33.9944 26.3985 33.7952 25.5368 33.5989C23.8133 33.2064 21.5043 32.8207 19.0651 32.8207C16.6255 32.8207 14.2806 33.2089 12.5182 33.6025C11.637 33.7993 10.9026 33.9976 10.3765 34.153C10.3457 34.1621 10.3324 34.1675 10.303 34.1763L9.35411 32.064C8.93585 30.8186 7.82399 29.995 6.52009 29.7059C6.51984 29.1742 6.5183 28.2221 6.5183 28.275C6.5183 25.4637 8.76526 23.211 11.5586 23.211ZM5.78109 31.2911C6.66737 31.2911 7.39797 31.8846 7.63576 32.6987L7.6537 32.7597L9.39537 36.6384L10.2133 36.1309C10.2418 36.1207 10.2762 36.1076 10.3299 36.0897C10.4589 36.0466 10.6523 35.9861 10.8967 35.9139C11.3854 35.7696 12.082 35.5806 12.9182 35.3939C14.5905 35.0204 16.822 34.6569 19.0651 34.6569C21.3087 34.6569 23.4998 35.0192 25.1296 35.3903C25.9445 35.5759 26.6193 35.7635 27.0919 35.9068C27.3282 35.9784 27.5146 36.0381 27.639 36.0807C27.692 36.0989 27.7264 36.1119 27.7537 36.1219L28.577 36.6312L30.3725 32.5912L30.3833 32.5643C30.6614 31.818 31.3587 31.2911 32.1985 31.2911C33.2803 31.2911 34.1429 32.1546 34.1429 33.2475C34.1429 34.1527 33.532 34.8939 32.7097 35.1231L32.2667 35.2469L30.3187 40.2857L30.3062 40.3252C30.1386 40.9079 29.6517 41.1993 29.0452 41.3867C28.4387 41.5742 27.8739 41.5732 27.8739 41.5732H27.8685H26.4874C26.4494 41.5672 26.4111 41.5636 26.3726 41.5625C26.3204 41.5616 26.2682 41.5652 26.2166 41.5732H12.572H10.111H10.1057C10.1057 41.5732 9.54081 41.5742 8.93439 41.3867C8.32801 41.1992 7.84108 40.9085 7.67343 40.3252L7.66087 40.2857L5.71293 35.2451L5.2681 35.1213C4.44406 34.8926 3.83673 34.1548 3.83673 33.2475C3.83673 32.153 4.69778 31.2911 5.78109 31.2911ZM29.4595 43.1727L30.3869 45.0377V45.0395C30.5836 45.4328 30.4326 45.8845 30.0389 46.0813C29.9236 46.1383 29.8087 46.1638 29.6927 46.1638C29.4069 46.1638 29.1383 46.0151 28.9968 45.7334V45.737L27.8398 43.4094H27.8542C27.8542 43.4094 28.5988 43.4151 29.4595 43.1727ZM9.35411 43.3449C9.80198 43.4057 10.1254 43.4094 10.1254 43.4094H11.0599L9.90298 45.7334C9.76177 46.0145 9.49107 46.1638 9.20524 46.1638C9.08925 46.1638 8.97432 46.1384 8.85906 46.0813C8.46536 45.8845 8.31435 45.4328 8.51108 45.0395V45.0377L9.35411 43.3449Z" fill="#232D40"/>
<path d="M36.2391 21.6406C36.4085 21.4662 36.6404 21.366 36.8836 21.3622C37.0065 21.3603 37.1285 21.3831 37.2424 21.4291C37.3563 21.4752 37.4598 21.5436 37.5468 21.6304C37.6337 21.7172 37.7024 21.8206 37.7487 21.9343C37.795 22.0481 37.818 22.1701 37.8163 22.2929V25.0472C37.818 25.1689 37.7956 25.2897 37.7502 25.4026C37.7048 25.5155 37.6374 25.6182 37.552 25.7049C37.4665 25.7915 37.3647 25.8603 37.2524 25.9073C37.1402 25.9542 37.0197 25.9784 36.898 25.9784C36.7763 25.9784 36.6558 25.9542 36.5435 25.9073C36.4312 25.8603 36.3294 25.7915 36.2439 25.7049C36.1585 25.6182 36.0911 25.5155 36.0457 25.4026C36.0004 25.2897 35.9779 25.1689 35.9796 25.0472V22.2929C35.9763 22.0497 36.0696 21.8151 36.2391 21.6406Z" fill="#232D40"/>
<path d="M36.2391 21.6406C36.4085 21.4662 36.6403 21.366 36.8836 21.3622C37.0065 21.3603 37.1285 21.3831 37.2424 21.4291C37.3563 21.4752 37.4598 21.5437 37.5468 21.6304C37.6337 21.7172 37.7024 21.8206 37.7487 21.9344C37.795 22.0481 37.818 22.1701 37.8163 22.2929V25.0472C37.818 25.1689 37.7956 25.2897 37.7502 25.4026C37.7048 25.5155 37.6374 25.6182 37.552 25.7049C37.4665 25.7915 37.3647 25.8603 37.2524 25.9073C37.1401 25.9542 37.0197 25.9784 36.8979 25.9784C36.7762 25.9784 36.6557 25.9542 36.5435 25.9073C36.4312 25.8603 36.3294 25.7915 36.2439 25.7049C36.1585 25.6182 36.0911 25.5155 36.0457 25.4026C36.0003 25.2897 35.9779 25.1689 35.9796 25.0472V22.2929C35.9763 22.0497 36.0696 21.8151 36.2391 21.6406Z" fill="#40B659"/>
</svg>
