<svg width="50" height="50" viewBox="0 0 50 50" fill="none" xmlns="http://www.w3.org/2000/svg">
<path d="M24.4688 7C22.8518 7 21.3443 8.20195 20.6969 9.86875L20.1656 11.25H15.65V10.4C15.65 9.93184 15.2682 9.55 14.8 9.55H8.85C8.38184 9.55 8 9.93184 8 10.4V11.5953C5.56621 12.3424 3.75 14.5305 3.75 17.2V35.05C3.75 38.3271 6.42285 41 9.7 41H40.3C43.5771 41 46.25 38.3271 46.25 35.05V17.2C46.25 13.9229 43.5771 11.25 40.3 11.25H38.3344L37.8031 9.86875C37.1557 8.20195 35.6516 7 34.0313 7H24.4688ZM24.4688 8.7H34.0313C34.682 8.7 35.8043 9.43711 36.2094 10.4797L36.9531 12.4188C37.0826 12.7441 37.4014 12.9533 37.75 12.95H40.3C42.6574 12.95 44.55 14.8426 44.55 17.2V35.05C44.55 37.4074 42.6574 39.3 40.3 39.3H9.7C7.34258 39.3 5.45 37.4074 5.45 35.05V17.2C5.45 15.085 6.97402 13.3418 8.98281 13.0031C9.39121 12.94 9.69336 12.5914 9.7 12.1797V11.25H13.95V12.1C13.95 12.5682 14.3318 12.95 14.8 12.95H20.75C21.0986 12.9533 21.4174 12.7441 21.5469 12.4188L22.2906 10.4797C22.6957 9.43711 23.818 8.7 24.4688 8.7ZM29.25 14.65C23.1605 14.65 18.2 19.6105 18.2 25.7C18.2 31.7895 23.1605 36.75 29.25 36.75C35.3395 36.75 40.3 31.7895 40.3 25.7C40.3 19.6105 35.3395 14.65 29.25 14.65ZM9.7 15.5C8.76035 15.5 8 16.2604 8 17.2C8 18.1396 8.76035 18.9 9.7 18.9C10.6396 18.9 11.4 18.1396 11.4 17.2C11.4 16.2604 10.6396 15.5 9.7 15.5ZM29.25 16.35C34.423 16.35 38.6 20.527 38.6 25.7C38.6 30.873 34.423 35.05 29.25 35.05C24.077 35.05 19.9 30.873 19.9 25.7C19.9 20.527 24.077 16.35 29.25 16.35Z" fill="#232D40"/>
<path d="M8 17.2C8 16.2604 8.76035 15.5 9.7 15.5C10.6396 15.5 11.4 16.2604 11.4 17.2C11.4 18.1396 10.6396 18.9 9.7 18.9C8.76035 18.9 8 18.1396 8 17.2Z" fill="#40B659"/>
</svg>
