<svg width="50" height="50" viewBox="0 0 50 50" fill="none" xmlns="http://www.w3.org/2000/svg">
<path d="M3.88 9C2.30125 9 1 10.2822 1 11.8378V38.3243C1 39.88 2.30125 41.1622 3.88 41.1622H5.8V42.1081C5.8 43.1427 6.67 44 7.72 44H10.6C11.65 44 12.52 43.1427 12.52 42.1081V41.1622H37.48V42.1081C37.48 43.1427 38.35 44 39.4 44H42.28C43.33 44 44.2 43.1427 44.2 42.1081V41.1622H46.12C47.6987 41.1622 49 39.88 49 38.3243V11.8378C49 10.2822 47.6987 9 46.12 9H3.88ZM3.88 10.8919H46.12C46.66 10.8919 47.08 11.3057 47.08 11.8378V38.3243C47.08 38.8564 46.66 39.2703 46.12 39.2703H38.62C38.4925 39.2444 38.3575 39.2444 38.23 39.2703H6.94C6.8125 39.2444 6.6775 39.2444 6.55 39.2703H3.88C3.34 39.2703 2.92 38.8564 2.92 38.3243V11.8378C2.92 11.3057 3.34 10.8919 3.88 10.8919ZM5.8 13.7297V36.4324H39.4V13.7297H5.8ZM7.72 15.6216H37.48V34.5405H7.72V15.6216ZM43.24 16.5676C42.1787 16.5676 41.32 17.4137 41.32 18.4595C41.32 19.5052 42.1787 20.3514 43.24 20.3514C44.3012 20.3514 45.16 19.5052 45.16 18.4595C45.16 17.4137 44.3012 16.5676 43.24 16.5676ZM33.79 20.2922C33.5988 20.2885 33.4113 20.3403 33.25 20.44C33.25 20.44 28.8063 22.2432 26.08 22.2432C24.7187 22.2432 23.8 21.859 22.69 21.386C21.58 20.913 20.2637 20.3514 18.49 20.3514C14.9425 20.3514 11.14 22.3319 11.14 22.3319C10.66 22.561 10.4575 23.1301 10.69 23.603C10.9225 24.076 11.5 24.2755 11.98 24.0465C11.98 24.0465 15.7187 22.2432 18.49 22.2432C19.8775 22.2432 20.8037 22.6275 21.91 23.1005C23.0163 23.5735 24.325 24.1351 26.08 24.1351C29.5937 24.1351 34.03 22.1546 34.03 22.1546C34.4987 22.0363 34.8063 21.5929 34.7425 21.1199C34.6825 20.647 34.2738 20.2922 33.79 20.2922ZM43.24 23.1892C42.1787 23.1892 41.32 24.0354 41.32 25.0811C41.32 26.1268 42.1787 26.973 43.24 26.973C44.3012 26.973 45.16 26.1268 45.16 25.0811C45.16 24.0354 44.3012 23.1892 43.24 23.1892ZM33.79 25.9679C33.5988 25.9642 33.4113 26.0159 33.25 26.1157C33.25 26.1157 28.8063 27.9189 26.08 27.9189C24.7187 27.9189 23.8 27.5346 22.69 27.0617C21.58 26.5887 20.2637 26.027 18.49 26.027C14.9425 26.027 11.14 28.0076 11.14 28.0076C10.66 28.2367 10.4575 28.8057 10.69 29.2787C10.9225 29.7517 11.5 29.9512 11.98 29.7221C11.98 29.7221 15.7187 27.9189 18.49 27.9189C19.8775 27.9189 20.8037 28.3032 21.91 28.7762C23.0163 29.2492 24.325 29.8108 26.08 29.8108C29.5937 29.8108 34.03 27.8302 34.03 27.8302C34.4987 27.712 34.8063 27.2686 34.7425 26.7956C34.6825 26.3226 34.2738 25.9679 33.79 25.9679ZM43.24 29.8108C42.1787 29.8108 41.32 30.657 41.32 31.7027C41.32 32.7484 42.1787 33.5946 43.24 33.5946C44.3012 33.5946 45.16 32.7484 45.16 31.7027C45.16 30.657 44.3012 29.8108 43.24 29.8108ZM7.72 41.1622H10.6V42.1081H7.72V41.1622ZM39.4 41.1622H42.28V42.1081H39.4V41.1622Z" fill="#232D40"/>
<path d="M33.2502 20.44C33.4114 20.3403 33.5989 20.2885 33.7902 20.2922C34.2739 20.2922 34.6827 20.647 34.7427 21.1199C34.8064 21.5929 34.4989 22.0363 34.0302 22.1546C34.0302 22.1546 29.5939 24.1351 26.0802 24.1351C24.3301 24.1351 23.0237 23.5766 21.9195 23.1045L21.9102 23.1005C20.8039 22.6275 19.8777 22.2433 18.4902 22.2433C15.7189 22.2433 11.9802 24.0465 11.9802 24.0465C11.5002 24.2756 10.9227 24.076 10.6902 23.603C10.4577 23.1301 10.6602 22.561 11.1402 22.3319C11.1402 22.3319 14.9427 20.3514 18.4902 20.3514C20.2621 20.3514 21.5774 20.9118 22.6867 21.3845L22.6902 21.386C23.8002 21.859 24.7189 22.2433 26.0802 22.2433C28.8064 22.2433 33.2502 20.44 33.2502 20.44Z" fill="#40B659"/>
<path d="M33.2502 26.1157C33.4114 26.0159 33.5989 25.9642 33.7902 25.9679C34.2739 25.9679 34.6827 26.3226 34.7427 26.7956C34.8064 27.2686 34.4989 27.712 34.0302 27.8302C34.0302 27.8302 29.5939 29.8108 26.0802 29.8108C24.3301 29.8108 23.0237 29.2523 21.9195 28.7801L21.9102 28.7762C20.8039 28.3032 19.8777 27.9189 18.4902 27.9189C15.7189 27.9189 11.9802 29.7221 11.9802 29.7221C11.5002 29.9512 10.9227 29.7517 10.6902 29.2787C10.4577 28.8058 10.6602 28.2367 11.1402 28.0076C11.1402 28.0076 14.9427 26.027 18.4902 26.027C20.2621 26.027 21.5774 26.5875 22.6867 27.0602L22.6902 27.0617C23.8002 27.5346 24.7189 27.9189 26.0802 27.9189C28.8064 27.9189 33.2502 26.1157 33.2502 26.1157Z" fill="#40B659"/>
</svg>
