<svg width="50" height="50" viewBox="0 0 50 50" fill="none" xmlns="http://www.w3.org/2000/svg">
<path d="M7.00781 3.99805C5.36335 3.99805 4.00781 5.35247 4.00781 6.99805V40.002C4.00781 41.6469 5.36284 43.002 7.00781 43.002H8V45C8.00003 45.2652 8.10539 45.5195 8.29292 45.7071C8.48045 45.8946 8.73479 46 9 46H13C13.2652 46 13.5195 45.8946 13.7071 45.7071C13.8946 45.5195 14 45.2652 14 45V43.002L22 43C22 44.645 23.355 46 25 46H43C44.645 46 46 44.645 46 43V23C46 21.355 44.645 20 43 20H33V7C33 5.35494 31.6451 4 30 4L7.00781 3.99805ZM7.00781 5.99805L30 6C30.5629 6 31 6.43706 31 7V15H6.00781V6.99805C6.00781 6.43362 6.44427 5.99805 7.00781 5.99805ZM9.98438 7.98633C9.7195 7.99047 9.46709 8.09953 9.28254 8.28957C9.09799 8.47962 8.99637 8.73512 9 9V12C8.99813 12.1325 9.02261 12.2641 9.07202 12.387C9.12143 12.51 9.1948 12.6219 9.28784 12.7163C9.38088 12.8107 9.49176 12.8856 9.61401 12.9368C9.73627 12.9879 9.86747 13.0142 10 13.0142C10.1325 13.0142 10.2637 12.9879 10.386 12.9368C10.5082 12.8856 10.6191 12.8107 10.7122 12.7163C10.8052 12.6219 10.8786 12.51 10.928 12.387C10.9774 12.2641 11.0019 12.1325 11 12V9C11.0018 8.86621 10.9768 8.73341 10.9264 8.60947C10.876 8.48553 10.8012 8.37297 10.7065 8.27845C10.6118 8.18393 10.4991 8.10937 10.375 8.05919C10.251 8.00902 10.1182 7.98424 9.98438 7.98633ZM6.00781 17H31V20H25C23.355 20 22 21.355 22 23V41L13.0703 41.002C13.0612 41.0018 13.0521 41.0018 13.043 41.002C13.0287 41.001 13.0143 41.0003 13 41H9C8.99023 41.0005 8.98046 41.0012 8.9707 41.002H7.00781C6.44278 41.002 6.00781 40.567 6.00781 40.002V17ZM9.98438 18.9863C9.7195 18.9905 9.46709 19.0995 9.28254 19.2896C9.09799 19.4796 8.99637 19.7351 9 20V24C8.99813 24.1325 9.02261 24.2641 9.07202 24.387C9.12143 24.51 9.1948 24.6219 9.28784 24.7163C9.38088 24.8107 9.49176 24.8856 9.61401 24.9368C9.73627 24.9879 9.86747 25.0142 10 25.0142C10.1325 25.0142 10.2637 24.9879 10.386 24.9368C10.5082 24.8856 10.6191 24.8107 10.7122 24.7163C10.8052 24.6219 10.8786 24.51 10.928 24.387C10.9774 24.2641 11.0019 24.1325 11 24V20C11.0018 19.8662 10.9768 19.7334 10.9264 19.6095C10.876 19.4855 10.8012 19.373 10.7065 19.2784C10.6118 19.1839 10.4991 19.1094 10.375 19.0592C10.251 19.009 10.1182 18.9842 9.98438 18.9863ZM25 22H43C43.565 22 44 22.435 44 23V43C44 43.565 43.565 44 43 44H25C24.435 44 24 43.565 24 43V23C24 22.435 24.435 22 25 22ZM37 24C36.7348 24 36.4804 24.1054 36.2929 24.2929C36.1054 24.4804 36 24.7348 36 25C36 25.2652 36.1054 25.5196 36.2929 25.7071C36.4804 25.8946 36.7348 26 37 26C37.2652 26 37.5196 25.8946 37.7071 25.7071C37.8946 25.5196 38 25.2652 38 25C38 24.7348 37.8946 24.4804 37.7071 24.2929C37.5196 24.1054 37.2652 24 37 24ZM41 24C40.7348 24 40.4804 24.1054 40.2929 24.2929C40.1054 24.4804 40 24.7348 40 25C40 25.2652 40.1054 25.5196 40.2929 25.7071C40.4804 25.8946 40.7348 26 41 26C41.2652 26 41.5196 25.8946 41.7071 25.7071C41.8946 25.5196 42 25.2652 42 25C42 24.7348 41.8946 24.4804 41.7071 24.2929C41.5196 24.1054 41.2652 24 41 24ZM34 28C32.0833 28 30.5186 28.7548 29.502 29.8984C28.4853 31.0421 28 32.5278 28 34C28 35.4722 28.4853 36.9579 29.502 38.1016C30.5186 39.2452 32.0833 40 34 40C35.9167 40 37.4814 39.2452 38.498 38.1016C39.5147 36.9579 40 35.4722 40 34C40 32.5278 39.5147 31.0421 38.498 29.8984C37.4814 28.7548 35.9167 28 34 28ZM34 30C35.4167 30 36.3519 30.4952 37.002 31.2266C37.652 31.9579 38 32.9722 38 34C38 35.0278 37.652 36.0421 37.002 36.7734C36.3519 37.5048 35.4167 38 34 38C32.5833 38 31.6481 37.5048 30.998 36.7734C30.348 36.0421 30 35.0278 30 34C30 32.9722 30.348 31.9579 30.998 31.2266C31.6481 30.4952 32.5833 30 34 30ZM10 43.002H12V44H10V43.002Z" fill="#232D40"/>
<path d="M36.2929 24.2929C36.4804 24.1054 36.7348 24 37 24C37.2652 24 37.5196 24.1054 37.7071 24.2929C37.8946 24.4804 38 24.7348 38 25C38 25.2652 37.8946 25.5196 37.7071 25.7071C37.5196 25.8946 37.2652 26 37 26C36.7348 26 36.4804 25.8946 36.2929 25.7071C36.1054 25.5196 36 25.2652 36 25C36 24.7348 36.1054 24.4804 36.2929 24.2929Z" fill="#40B659"/>
<path d="M40.2929 24.2929C40.4804 24.1054 40.7348 24 41 24C41.2652 24 41.5196 24.1054 41.7071 24.2929C41.8946 24.4804 42 24.7348 42 25C42 25.2652 41.8946 25.5196 41.7071 25.7071C41.5196 25.8946 41.2652 26 41 26C40.7348 26 40.4804 25.8946 40.2929 25.7071C40.1054 25.5196 40 25.2652 40 25C40 24.7348 40.1054 24.4804 40.2929 24.2929Z" fill="#40B659"/>
<path d="M9.28264 8.28957C9.46719 8.09953 9.7196 7.99047 9.98448 7.98633C10.1183 7.98424 10.2511 8.00902 10.3751 8.05919C10.4992 8.10937 10.6119 8.18393 10.7066 8.27845C10.8013 8.37297 10.8761 8.48553 10.9265 8.60947C10.9769 8.73341 11.0019 8.86621 11.0001 9V12C11.002 12.1325 10.9775 12.2641 10.9281 12.387C10.8787 12.51 10.8053 12.6219 10.7123 12.7163C10.6192 12.8107 10.5083 12.8856 10.3861 12.9368C10.2638 12.9879 10.1326 13.0142 10.0001 13.0142C9.86757 13.0142 9.73637 12.9879 9.61411 12.9368C9.49186 12.8856 9.38098 12.8107 9.28794 12.7163C9.1949 12.6219 9.12153 12.51 9.07212 12.387C9.02271 12.2641 8.99823 12.1325 9.0001 12V9C8.99647 8.73512 9.09809 8.47962 9.28264 8.28957Z" fill="#40B659"/>
<path d="M9.28264 19.2896C9.46719 19.0995 9.7196 18.9905 9.98448 18.9863C10.1183 18.9842 10.2511 19.009 10.3751 19.0592C10.4992 19.1094 10.6119 19.1839 10.7066 19.2784C10.8013 19.373 10.8761 19.4855 10.9265 19.6095C10.9769 19.7334 11.0019 19.8662 11.0001 20V24C11.002 24.1325 10.9775 24.2641 10.9281 24.387C10.8787 24.51 10.8053 24.6219 10.7123 24.7163C10.6192 24.8107 10.5083 24.8856 10.3861 24.9368C10.2638 24.9879 10.1326 25.0142 10.0001 25.0142C9.86757 25.0142 9.73637 24.9879 9.61411 24.9368C9.49186 24.8856 9.38098 24.8107 9.28794 24.7163C9.1949 24.6219 9.12153 24.51 9.07212 24.387C9.02271 24.2641 8.99823 24.1325 9.0001 24V20C8.99647 19.7351 9.09809 19.4796 9.28264 19.2896Z" fill="#40B659"/>
</svg>
