<svg width="50" height="50" viewBox="0 0 50 50" fill="none" xmlns="http://www.w3.org/2000/svg">
<path d="M38.9849 3.00267C38.9471 3.00954 38.9093 3.01984 38.8749 3.03015C38.545 3.08854 38.2804 3.329 38.1876 3.64847C38.0949 3.97138 38.1911 4.31489 38.435 4.54161L39.0123 5.11871L38.5175 5.61338L37.9402 5.03627C37.7581 4.84047 37.4935 4.74085 37.2255 4.76146C37.1877 4.76833 37.1499 4.77863 37.1155 4.78894C36.7856 4.84734 36.521 5.0878 36.4283 5.40727C36.3355 5.73017 36.4317 6.07368 36.6757 6.3004L37.253 6.87751L36.5382 7.6195C36.04 8.1176 35.8922 8.76684 35.9059 9.40578L29.6381 15.6715H29.6107C28.0849 14.4623 25.9647 13.2257 23.5628 13.2257C22.3292 13.2257 21.0234 13.5657 19.7966 14.4073C18.3946 15.3658 17.7967 16.6642 17.4049 17.7326C17.0132 18.8009 16.7624 19.6082 16.2229 20.1234C15.7487 20.5803 14.2745 20.7967 12.2917 21.2227C10.309 21.6486 7.85893 22.4628 5.58411 24.7403C3.26118 27.059 2.57048 29.9754 3.24743 32.8747C3.92094 35.7636 5.85558 38.6595 8.63553 41.3389C8.64584 41.3492 8.65272 41.3561 8.66302 41.3664C12.01 44.8359 15.6971 47 19.2743 47C21.4357 47 23.5215 46.1618 25.2672 44.4168C27.5454 42.1393 28.3598 39.6969 28.7859 37.7114C29.212 35.7259 29.4285 34.2556 29.8856 33.7816C30.3976 33.2491 31.2291 33.0121 32.3047 32.6274C33.3803 32.2426 34.6689 31.6415 35.631 30.2365C36.9918 28.251 37.0433 26.0937 36.4832 24.2731C36.0159 22.7582 35.1534 21.446 34.3115 20.3982L40.6068 14.1051C41.2459 14.1188 41.8954 13.9711 42.3937 13.473L43.1359 12.7585L43.7132 13.3356C44.0637 13.686 44.6272 13.686 44.9777 13.3356C45.3282 12.9852 45.3282 12.4218 44.9777 12.0714L44.4004 11.4943L44.8953 10.9997L45.4726 11.5768C45.8231 11.9272 46.3866 11.9272 46.7371 11.5768C47.0876 11.2264 47.0876 10.663 46.7371 10.3127L46.1598 9.73555L46.2423 9.62562C47.2182 8.65348 47.2182 7.0527 46.2423 6.08055L43.9606 3.77214C43.9537 3.76527 43.94 3.77901 43.9331 3.77214C43.4486 3.29809 42.8094 3.03015 42.1737 3.03015C41.5277 3.03015 40.8748 3.28435 40.3869 3.77214L40.2769 3.85458L39.6996 3.27748C39.5175 3.08167 39.2529 2.98205 38.9849 3.00267ZM42.1737 4.78894C42.3593 4.78894 42.5483 4.86108 42.696 5.00879L45.0052 7.31721C45.3042 7.61263 45.3042 8.06263 45.0052 8.36149L41.1566 12.2089C40.9676 12.3978 40.7133 12.4699 40.4418 12.4012L39.947 12.2638L39.6171 12.6211L32.7171 19.5188C32.669 19.5498 32.6208 19.5875 32.5796 19.6288C32.5074 19.6837 32.4422 19.749 32.3872 19.8211C32.3562 19.8658 32.3288 19.9104 32.3047 19.9585L26.3668 25.867C25.9235 24.8811 25.1263 24.0841 24.1401 23.641L30.1055 17.6776C30.1158 17.6673 30.1227 17.6604 30.133 17.6501L30.188 17.6226C30.2876 17.5574 30.3701 17.4749 30.4354 17.3753C30.456 17.3478 30.4732 17.3203 30.4903 17.2929L37.3904 10.4226L37.7478 10.0653L37.6103 9.57066C37.5416 9.29585 37.6138 9.04509 37.8028 8.85615L41.6514 5.00879C41.8026 4.85764 41.9882 4.78894 42.1737 4.78894ZM42.0638 5.83322C41.9401 5.83322 41.8301 5.87445 41.7339 5.97063L38.4625 9.24089C38.2701 9.43326 38.2701 9.73555 38.4625 9.92792C38.5588 10.0241 38.6928 10.0653 38.8199 10.0653C38.9471 10.0653 39.0536 10.0241 39.1498 9.92792L42.4211 6.65766C42.6136 6.46529 42.6136 6.163 42.4211 5.97063C42.3249 5.87445 42.1875 5.83322 42.0638 5.83322ZM43.6857 7.45461C43.562 7.45461 43.452 7.49583 43.3558 7.59202L40.0845 10.8623C39.892 11.0546 39.892 11.3569 40.0845 11.5493C40.1807 11.6455 40.3147 11.6867 40.4418 11.6867C40.569 11.6867 40.703 11.6455 40.7992 11.5493L44.0431 8.27905C44.2355 8.08668 44.2355 7.78439 44.0431 7.59202C43.9469 7.49583 43.8094 7.45461 43.6857 7.45461ZM23.5628 14.9845C25.2741 14.9845 27.0025 15.9394 28.3461 16.9631L22.0233 23.2838C19.7622 23.459 17.9548 25.3483 17.9548 27.6533C17.9548 30.0716 19.9341 32.0503 22.3532 32.0503C24.659 32.0503 26.5489 30.2434 26.7242 27.983L33.0469 21.6624C33.7445 22.5727 34.4283 23.6513 34.7788 24.7952C35.2255 26.2483 35.2221 27.7151 34.174 29.2472C33.4834 30.2571 32.6758 30.6315 31.6999 30.9785C30.724 31.3254 29.5591 31.5693 28.621 32.5449V32.5724C27.4458 33.7953 27.4767 35.4923 27.0815 37.3266C26.6864 39.161 26.0163 41.1671 24.0301 43.1526C22.5697 44.6126 20.9959 45.2412 19.2743 45.2412C16.4187 45.2412 13.0821 43.3828 9.92758 40.1022H9.90009C7.26789 37.574 5.54287 34.9049 4.97932 32.4899C4.41577 30.075 4.90716 27.9178 6.84866 25.9769C8.83484 23.9914 10.8416 23.3215 12.6766 22.9265C14.5116 22.5315 16.2091 22.5624 17.4324 21.3876C18.4049 20.4566 18.697 19.3059 19.0544 18.3372C19.4117 17.3684 19.7726 16.5577 20.7863 15.8638C21.7347 15.2146 22.6556 14.9845 23.5628 14.9845ZM22.3532 25.0151C23.8205 25.0151 24.9923 26.1865 24.9923 27.6533C24.9923 29.1201 23.8205 30.2915 22.3532 30.2915C20.8859 30.2915 19.7141 29.1201 19.7141 27.6533C19.7141 26.1865 20.8859 25.0151 22.3532 25.0151ZM12.8141 30.4289C12.6869 30.4289 12.5529 30.4701 12.4567 30.5663L11.4121 31.6106C11.2162 31.8029 11.2162 32.1293 11.4121 32.3251L17.6799 38.5908C17.8723 38.7831 18.2022 38.7831 18.3946 38.5908L19.4392 37.5465C19.6317 37.3541 19.6317 37.0278 19.4392 36.832L13.1714 30.5663C13.0752 30.4701 12.9412 30.4289 12.8141 30.4289Z" fill="#232D40"/>
<path d="M12.4572 30.5662C12.5534 30.4701 12.6874 30.4288 12.8145 30.4288C12.9417 30.4288 13.0757 30.4701 13.1719 30.5662L19.4397 36.8319C19.6321 37.0277 19.6321 37.3541 19.4397 37.5465L18.3951 38.5907C18.2026 38.7831 17.8728 38.7831 17.6803 38.5907L11.4125 32.325C11.2167 32.1292 11.2167 31.8029 11.4125 31.6105L12.4572 30.5662Z" fill="#40B659"/>
</svg>
