<svg width="50" height="50" viewBox="0 0 50 50" fill="none" xmlns="http://www.w3.org/2000/svg">
<path d="M11 4C9.35547 4 8 5.35547 8 7V12H7C6.64062 11.9961 6.30469 12.1836 6.12109 12.4961C5.94141 12.8086 5.94141 13.1914 6.12109 13.5039C6.30469 13.8164 6.64062 14.0039 7 14H11C11.3594 14.0039 11.6953 13.8164 11.8789 13.5039C12.0586 13.1914 12.0586 12.8086 11.8789 12.4961C11.6953 12.1836 11.3594 11.9961 11 12H10V7C10 6.44531 10.4453 6 11 6H39C39.5547 6 40 6.44531 40 7V43C40 43.5547 39.5547 44 39 44H11C10.4453 44 10 43.5547 10 43V39H8V43C8 44.6445 9.35547 46 11 46H39C40.6445 46 42 44.6445 42 43V7C42 5.35547 40.6445 4 39 4H11ZM17 12C16.4492 12 16 12.4492 16 13V25C16 25.5508 16.4492 26 17 26H35C35.5508 26 36 25.5508 36 25V13C36 12.4492 35.5508 12 35 12H17ZM18 14H34V24H18V14ZM8 15V18H7C6.64062 17.9961 6.30469 18.1836 6.12109 18.4961C5.94141 18.8086 5.94141 19.1914 6.12109 19.5039C6.30469 19.8164 6.64062 20.0039 7 20H11C11.3594 20.0039 11.6953 19.8164 11.8789 19.5039C12.0586 19.1914 12.0586 18.8086 11.8789 18.4961C11.6953 18.1836 11.3594 17.9961 11 18H10V15H8ZM20 16V18H32V16H20ZM20 20V22H32V20H20ZM8 21V24H7C6.64062 23.9961 6.30469 24.1836 6.12109 24.4961C5.94141 24.8086 5.94141 25.1914 6.12109 25.5039C6.30469 25.8164 6.64062 26.0039 7 26H11C11.3594 26.0039 11.6953 25.8164 11.8789 25.5039C12.0586 25.1914 12.0586 24.8086 11.8789 24.4961C11.6953 24.1836 11.3594 23.9961 11 24H10V21H8ZM8 27V30H7C6.64062 29.9961 6.30469 30.1836 6.12109 30.4961C5.94141 30.8086 5.94141 31.1914 6.12109 31.5039C6.30469 31.8164 6.64062 32.0039 7 32H11C11.3594 32.0039 11.6953 31.8164 11.8789 31.5039C12.0586 31.1914 12.0586 30.8086 11.8789 30.4961C11.6953 30.1836 11.3594 29.9961 11 30H10V27H8ZM8 33V36H7C6.64062 35.9961 6.30469 36.1836 6.12109 36.4961C5.94141 36.8086 5.94141 37.1914 6.12109 37.5039C6.30469 37.8164 6.64062 38.0039 7 38H11C11.3594 38.0039 11.6953 37.8164 11.8789 37.5039C12.0586 37.1914 12.0586 36.8086 11.8789 36.4961C11.6953 36.1836 11.3594 35.9961 11 36H10V33H8Z" fill="#232D40"/>
<path fill-rule="evenodd" clip-rule="evenodd" d="M17 12C16.4492 12 16 12.4492 16 13V25C16 25.5508 16.4492 26 17 26H35C35.5508 26 36 25.5508 36 25V13C36 12.4492 35.5508 12 35 12H17ZM34 14H18V24H34V14ZM20 16V18H32V16H20ZM20 20V22H32V20H20Z" fill="#40B659"/>
</svg>
