<svg width="50" height="50" viewBox="0 0 50 50" fill="none" xmlns="http://www.w3.org/2000/svg">
<path d="M19 11C15.832 11 13.0625 11.8047 10.9688 13.6211C9.04297 15.2891 7.83203 17.8555 7.23047 21.0977C6.85156 21.1328 6.49219 21.1328 6.08984 21.2422C5.41797 21.4258 4.70312 21.7305 4.20312 22.3984V22.4023C2.97266 24.0352 1 27.0078 1 31C1 32.4258 1.86328 33.5469 2.80469 34.3477C3.60156 35.0273 4.48438 35.5078 5.28125 35.8008C6.05078 38.2305 8.32422 40 11 40C13.6016 40 15.8203 38.3242 16.6484 36H34.3516C35.1797 38.3242 37.3984 40 40 40C42.9844 40 45.4688 37.793 45.9219 34.9297C46.6836 34.8164 47.3438 34.5586 47.8633 34.1562C48.582 33.5938 49 32.7461 49 31.8867V26.8516C49 26.1758 48.7383 25.6211 48.2656 24.9258C47.7969 24.2344 47.0859 23.4766 46.0781 22.7656C44.1523 21.4062 41.0508 20.2891 36.5898 20.082C35.6562 18.7422 34.7227 17.2813 32.832 14.4453C32.4531 13.875 32.1484 13.3672 31.7344 12.8867C31.3242 12.4062 30.7773 11.9766 30.0742 11.6914C28.6719 11.1211 26.7461 11 23 11H19ZM19 13H23C26.6875 13 28.4766 13.2031 29.3242 13.5469C29.7461 13.7148 29.957 13.8906 30.2188 14.1914C30.4805 14.4922 30.7656 14.9492 31.168 15.5547C33.1641 18.5469 34.1602 20.1211 35.1836 21.5781L35.4727 21.9883L35.9766 22C40.4883 22.1055 43.2813 23.2383 44.9258 24.3984C45.75 24.9805 46.2891 25.5742 46.6094 26.0469C46.9297 26.5234 47 26.957 47 26.8516V31.8867C47 32.1523 46.918 32.3555 46.6367 32.5742C46.4766 32.6992 46.2266 32.8164 45.8906 32.8945C45.3711 30.1172 42.9258 28 40 28C36.6992 28 34 30.6992 34 34H17C17 30.6992 14.3008 28 11 28C7.87891 28 5.30078 30.4141 5.02734 33.4688C4.70703 33.2812 4.38281 33.0703 4.10156 32.8281C3.41016 32.2383 3 31.5742 3 31C3 27.6719 4.65625 25.125 5.79688 23.6016C5.89062 23.4805 6.18359 23.2891 6.61719 23.1719C7.04687 23.0508 7.57813 23 8.00391 23L8.86719 22.9961L8.99219 22.1406C9.46484 18.8047 10.6211 16.5664 12.2812 15.1289C13.9375 13.6953 16.168 13 19 13ZM17 15V15.0664C15.2188 15.2891 13.7773 16.0898 12.7891 17.2148C11.6211 18.5469 11.0625 20.2656 11 21.9648L10.9648 23H33.7656L29.8477 16.4688L29.8359 16.4492C29.4961 15.9297 29.1641 15.4922 28.6172 15.2344C28.0703 14.9805 27.5859 15 27 15H17ZM19 17H27C27.5625 17 27.7578 17.043 27.7695 17.0469C27.7813 17.0508 27.875 17.1094 28.1641 17.5508L30.2344 21H19V17ZM17 17.1914V21H13.1992C13.3867 20.082 13.707 19.2031 14.293 18.5312C14.918 17.8203 15.8477 17.3945 17 17.1914ZM21 25C20.4492 25 20 25.4492 20 26C20 26.5508 20.4492 27 21 27H24C24.5508 27 25 26.5508 25 26C25 25.4492 24.5508 25 24 25H21ZM11 30C13.2227 30 15 31.7773 15 34C15 36.2227 13.2227 38 11 38C8.77734 38 7 36.2227 7 34C7 31.7773 8.77734 30 11 30ZM40 30C42.2227 30 44 31.7773 44 34C44 36.2227 42.2227 38 40 38C37.7773 38 36 36.2227 36 34C36 31.7773 37.7773 30 40 30Z" fill="#232D40"/>
<path d="M20 26C20 25.4492 20.4492 25 21 25H24C24.5508 25 25 25.4492 25 26C25 26.5508 24.5508 27 24 27H21C20.4492 27 20 26.5508 20 26Z" fill="#40B659"/>
</svg>
