<?xml version="1.0" encoding="UTF-8"?>
<!DOCTYPE svg PUBLIC "-//W3C//DTD SVG 1.1//EN" "http://www.w3.org/Graphics/SVG/1.1/DTD/svg11.dtd">
<!-- Creator: CorelDRAW 2019 (64-Bit) -->
<svg xmlns="http://www.w3.org/2000/svg" xml:space="preserve" width="0.801528in" height="0.591291in" version="1.1" style="shape-rendering:geometricPrecision; text-rendering:geometricPrecision; image-rendering:optimizeQuality; fill-rule:evenodd; clip-rule:evenodd"
viewBox="0 0 67.93 50.11"
 xmlns:xlink="http://www.w3.org/1999/xlink"
 xmlns:xodm="http://www.corel.com/coreldraw/odm/2003">
 <defs>
  <style type="text/css">
   <![CDATA[
    .fil1 {fill:#01C764;fill-rule:nonzero}
    .fil0 {fill:#232D40;fill-rule:nonzero}
   ]]>
  </style>
 </defs>
 <g id="Layer_x0020_1">
  <metadata id="CorelCorpID_0Corel-Layer"/>
  <path class="fil0" d="M8.98 9.33c-0.79,0 -1.44,-0.64 -1.44,-1.44 0,-0.79 0.64,-1.44 1.44,-1.44l12.94 0c0.79,0 1.44,0.64 1.44,1.44 0,0.79 -0.64,1.44 -1.44,1.44l-12.94 0zm14.56 23.01l2.69 0 0 -4.02 -1.89 0 -0.8 4.02zm4.13 2.88l-4.7 0 -1.32 6.61c-0.48,2.4 -1.78,4.47 -3.57,5.94 -1.79,1.47 -4.08,2.34 -6.53,2.34l-3.91 0c-0.19,0 -0.38,-0.02 -0.56,-0.06l-0.01 -0c-0.67,-0.13 -1.24,-0.5 -1.65,-1l-0.01 0c-0.41,-0.5 -0.65,-1.14 -0.65,-1.82 0,-0.18 0.02,-0.37 0.06,-0.56l3.66 -18.35c-2.32,-0.04 -4.42,-1 -5.95,-2.53l-0.01 0c-1.56,-1.56 -2.53,-3.72 -2.53,-6.1l0 -11.07c0,-2.38 0.97,-4.54 2.53,-6.1l0.08 -0.08c1.55,-1.52 3.68,-2.45 6.02,-2.45l29 0c2.38,0 4.54,0.97 6.1,2.53 1.19,1.19 2.03,2.73 2.37,4.44l5.88 0c0.79,0 1.51,0.32 2.03,0.84l0.1 0.11c0.46,0.51 0.74,1.19 0.74,1.92l0 2.36 11.63 0c0.79,0 1.44,0.64 1.44,1.44 0,0.79 -0.64,1.44 -1.44,1.44l-11.63 0 0 3.39c0,0.79 -0.32,1.51 -0.84,2.03 -0.52,0.52 -1.24,0.84 -2.03,0.84l-5.88 0c-0.33,1.72 -1.18,3.25 -2.37,4.44 -1.56,1.56 -3.72,2.53 -6.1,2.53l-8.52 0 0 5.46c0,0.79 -0.64,1.44 -1.44,1.44zm9.96 -9.77c1.59,0 3.03,-0.64 4.07,-1.68 1.04,-1.04 1.68,-2.48 1.68,-4.07l0 -11.07c0,-1.59 -0.64,-3.03 -1.68,-4.07 -1.04,-1.04 -2.48,-1.68 -4.07,-1.68l-29 0c-1.56,0 -2.97,0.62 -4.01,1.62l-0.06 0.07c-1.04,1.04 -1.68,2.48 -1.68,4.07l0 11.07c0,1.59 0.64,3.03 1.68,4.07 1.04,1.04 2.48,1.68 4.07,1.68 9.78,0 19.3,0 29,0zm-21.37 20.11c1.29,-1.06 2.22,-2.55 2.57,-4.29l2.55 -12.77 -10 0 -3.74 18.74 3.91 0c1.77,0 3.42,-0.62 4.71,-1.68zm35.73 -27.08l0 -8.63 -5.72 0 0 8.63 5.72 0zm-43.01 2.36c-0.79,0 -1.44,-0.64 -1.44,-1.44 0,-0.79 0.64,-1.44 1.44,-1.44l12.94 0c0.79,0 1.44,0.64 1.44,1.44 0,0.79 -0.64,1.44 -1.44,1.44l-12.94 0zm0 -5.75c-0.79,0 -1.44,-0.64 -1.44,-1.44 0,-0.79 0.64,-1.44 1.44,-1.44l12.94 0c0.79,0 1.44,0.64 1.44,1.44 0,0.79 -0.64,1.44 -1.44,1.44l-12.94 0z"/>
  <path class="fil1" d="M34.87 26.41c0,2.29 1.85,4.14 4.14,4.14 2.29,0 4.14,-1.85 4.14,-4.14 0,-2.29 -1.85,-4.14 -4.14,-4.14 -2.29,0 -4.14,1.85 -4.14,4.14z"/>
 </g>
</svg>
