<svg width="50" height="50" viewBox="0 0 50 50" fill="none" xmlns="http://www.w3.org/2000/svg">
<path d="M31.7998 7.6L30.4998 5H19.4998L18.0998 7.6C17.2998 9.1 15.9998 10.2 14.2998 10.6L7.99977 12.2C6.09977 12.7 4.79977 14.4 4.99977 16.3C5.99977 31.7 13.8998 45 13.8998 45H35.9998C35.9998 45 43.7998 31.1 44.8998 16.3C44.9998 14.4 43.6998 12.7 41.8998 12.2L35.5998 10.6C33.9998 10.2 32.5998 9.1 31.7998 7.6Z" stroke="#232D40" stroke-width="1.9" stroke-miterlimit="10"/>
<path d="M25.0004 30.3L21.4004 24.8L25.0004 21.2L28.6004 24.8L25.0004 30.3Z" stroke="#40B659" stroke-width="1.9" stroke-miterlimit="10" stroke-linejoin="round"/>
<path d="M35 10.5C34.7 15 30.7 20 25 20C19.3 20 15.3 15 15 10.5" stroke="#232D40" stroke-width="1.9" stroke-miterlimit="10"/>
</svg>
