<?xml version="1.0" encoding="utf-8"?>
<svg xmlns="http://www.w3.org/2000/svg" height="49.5015mm" style="shape-rendering:geometricPrecision; text-rendering:geometricPrecision; image-rendering:optimizeQuality; fill-rule:evenodd; clip-rule:evenodd" version="1.1" viewBox="0 0 27197.71 5525.49" width="243.658mm">
 <defs>
  <style type="text/css">
   
    .fil0 {fill:#0C54A0}
    .fil1 {fill:#5B5B5B;fill-rule:nonzero}
   
  </style>
 </defs>
 <g id="_x0020_1">
  
  <g id="POZIS_x0020__x0020_">
   <path class="fil0" d="M3567.36 2753.65l-2.56 40.02 -8.34 40.64 -13.9 38.98 -19.29 36.62 -24.13 34.2 -28.88 31.62 -33.13 29.2 -37.27 26.68 -39.99 24.09 -41.74 20.75 -43.42 17.54 -45.12 14.14 -46.59 11.1 -48.22 7.76 -49.64 4.72 -50.4 1.43 -1353.29 0 0 896.83 -1681.46 0 0 -2880.54 3034.81 0 53.02 1.61 51.7 4.78 49.79 8.05 47.74 11.15 45.82 14.66 43.48 17.94 41.47 21.39 39.07 24.66 35.74 27.31 31.71 29.03 27.46 31.27 23.16 33.35 18.41 35.64 13.41 37.43 8.07 39.15 2.5 38.12 0 1228.71zm-1663.53 -40.18l57.21 -1.9 48.28 -5.8 38.86 -9.09 29.09 -11.55 19.51 -12.54 11.44 -12.36 6.43 -12.76 3.65 -19.84 1.69 -30.53 1.64 -35.7 1.47 -37.26 0.97 -38.92 0.93 -40.41 0.55 -42.03 0.44 -43.58 0.06 -45.3 0 -337.18 -0.06 -45.13 -0.44 -43.63 -0.55 -41.97 -0.93 -40.53 -0.97 -38.86 -1.47 -37.32 -1.64 -35.75 -1.69 -30.58 -3.65 -19.61 -6.37 -12.7 -11.5 -12.36 -19.57 -12.59 -28.98 -11.5 -38.91 -9.09 -48.28 -5.8 -57.21 -2.01 -53.18 2.01 -45.12 5.69 -36.61 9.02 -27.74 11.33 -19.18 12.76 -12.37 13.17 -7.62 14.25 -4.97 20.53 -3.21 30.41 -3.27 35.31 -2.72 36.96 -2.29 38.34 -1.74 40.13 -1.25 41.57 -0.76 43.29 -0.33 44.84 0 336.83 0.33 45.02 0.76 43.23 1.25 41.68 1.74 39.95 2.29 38.41 2.72 36.85 3.27 35.35 3.21 30.31 5.01 20.75 7.63 14.31 12.31 13.17 19.18 12.65 27.79 11.44 36.56 9.02 45.06 5.69 53.23 1.9zm3943.37 -857.8l-0.21 -26.5 -0.87 -25.29 -1.31 -24.26 -2.02 -23.28 -2.46 -22.31 -2.94 -21.26 -3.44 -20.07 -1.36 -6.72 -13.56 -17.48 -45.93 -19.78 -77.64 -14.31 -92.58 -4.43 -93.82 5.98 -82.28 15.4 -54.97 21.57 -21.91 21.26 -3.37 8.34 -6.49 18.85 -5.56 19.95 -4.63 20.64 -3.48 21.79 -2.68 22.94 -1.57 23.92 -0.6 25.58 0 1507.71 0.49 27.94 1.19 26.1 2.02 24.84 2.78 23.4 3.54 22.25 4.25 20.76 5.01 19.66 2.12 6.95 17.77 19.09 53.12 21.04 83.32 15.4 96.44 5.69 95.89 -4.6 80.92 -14.6 48.38 -20.11 13.9 -17.48 1.31 -6.21 3.44 -20.42 2.94 -21.61 2.46 -23.12 1.96 -24.2 1.36 -25.47 0.87 -26.67 0.21 -28.34 0 -1508.52zm1563.4 1790.91l-2.62 39.27 -8.34 40.12 -13.89 38.52 -19.23 36.33 -23.98 34.09 -28.66 31.91 -32.96 29.6 -37.05 27.54 -40.11 25.13 -42.12 21.68 -44.08 18.4 -45.93 14.77 -47.46 11.55 -49.3 8.05 -50.84 4.94 -51.93 1.5 -2561.26 0 -53.01 -1.5 -51.6 -4.94 -49.64 -8.05 -47.67 -11.61 -45.39 -14.89 -43.32 -18.51 -40.92 -21.91 -38.58 -25.46 -35.04 -27.83 -31 -29.78 -26.91 -31.96 -22.56 -34.16 -17.81 -36.15 -13.03 -38.12 -7.74 -39.73 -2.51 -38.86 0 -2121.58 2.51 -37.94 7.85 -39.05 13.13 -37.25 17.87 -35.64 22.73 -33.34 26.86 -31.28 31.06 -29.09 35.03 -27.43 38.63 -24.78 40.87 -21.39 43.21 -17.99 45.33 -14.71 47.63 -11.21 49.47 -8.05 51.59 -4.78 52.85 -1.61 2561.43 0 50.51 1.61 49.86 4.78 48.43 8.05 46.91 11.21 45.55 14.6 43.8 17.77 42.23 21.1 40.6 24.31 37.82 27.02 33.51 28.92 29.31 31.15 24.51 33.29 19.72 35.76 14.33 37.71 8.72 39.67 2.62 38.52 0 2121.69zm246.55 383.39l0 -628.76 1041.07 -1509.08 -1041.07 0 0 -742.7 3200.77 0 0 613.01 -1053.01 1528.86 1053.01 0 0 738.67 -3200.77 0zm5201.47 -2880.54l0 2880.54 -1764.17 0 -6.11 -2880.54 1770.28 0z"/>
   <path class="fil0" d="M16328.95 2327.91c219.72,0 399.47,185.46 399.47,412.16 0,302.72 0.04,605.46 0.04,908.17l-2.61 39.24 -8.35 40.11 -13.9 38.47 -19.23 36.31 -23.99 34.04 -28.68 31.89 -32.97 29.58 -37.07 27.49 -40.12 25.12 -42.15 21.64 -44.09 18.36 -45.97 14.79 -47.47 11.53 -49.34 8.04 -50.86 4.94 -51.95 1.5 -2562.41 0 -53.03 -1.5 -51.64 -4.94 -49.65 -8.04 -47.63 -11.61 -45.43 -14.87 -43.33 -18.48 -40.92 -21.9 -38.61 -25.44 -35.05 -27.78 -31.06 -29.77 -26.92 -31.94 -22.58 -34.11 -17.84 -36.12 -13 -38.09 -7.75 -39.68 -2.51 -38.82 0 -612.36 1553.18 0.65 0 324.43 0.45 27.5 1.09 25.63 1.9 24.47 2.46 22.98 3.28 21.63 3.75 20.17 4.45 18.83 1.65 5.87 15.31 17.22 47.47 19.36 76.32 14.08 89.3 4.88 89.3 -4.88 76.31 -14.08 47.42 -19.36 15.48 -17.4 1.74 -5.97 4.49 -18.51 3.86 -19.75 3.17 -21.3 2.61 -22.75 1.8 -24.31 1.09 -25.83 0.2 -28.27 -0.11 -288.99 -2.43 -44.22 -7.31 -40.32 -12.43 -36.01 -17.71 -30.84 -23.05 -25.05 -30.32 -19.57 -40.13 -13.45 -55 -5.41 -1477.75 0 -3.66 0.1c-209.9,-11.54 -378.15,-192.26 -378.15,-411.6 0,-305.7 -0.02,-611.39 -0.02,-917.1l2.51 -37.9 7.84 -39 13.14 -37.23 17.88 -35.61 22.74 -33.32 26.88 -31.24 31.06 -29.04 35.16 -27.4 38.61 -24.75 40.88 -21.36 43.22 -17.98 45.36 -14.71 47.56 -11.18 49.52 -8.04 51.61 -4.77 52.88 -1.61 2562.56 0 50.54 1.61 49.87 4.77 48.47 8.04 46.94 11.18 45.56 14.6 43.89 17.75 42.28 21.06 40.57 24.31 37.77 26.98 33.51 28.9 29.35 31.12 24.52 33.39 19.75 35.66 14.32 37.66 8.73 39.65 2.61 38.42 0 599.88 -1580.02 3.16 0 -274.12 -0.31 -25.91 -1.09 -24.58 -1.8 -23.72 -2.61 -22.93 -3.21 -21.99 -3.93 -21.13 -4.53 -20.05 -2.23 -8.27 -16.02 -19.52 -46.88 -20.63 -75.77 -15.06 -88.92 -5.27 -88.78 5.27 -75.94 15.06 -46.99 20.67 -16.2 19.52 -2.19 8.1 -4.5 20.21 -3.88 21.21 -3.26 21.93 -2.46 22.9 -1.85 23.83 -1.09 24.66 -0.45 25.78 0 325.19 1.43 29.17 4.42 26.54 7.82 23.66 11.25 19.8 15.79 16.6 22.74 13.91 33.41 10.34 48.83 4.25 1529.7 0.79z"/>
  </g>
  <g id="_x0020__x0020__x0020__x0020_">
   <path class="fil1" d="M23577.75 692.67c-2.52,-9.07 -8.23,-17.5 -17.1,-25.29 -8.86,-7.78 -18.99,-14.6 -30.39,-20.43 -11.4,-5.83 -22.78,-10.06 -34.19,-12.65 -11.41,-2.6 -19.63,-3.9 -24.7,-3.9 -32.94,0 -63.96,3.9 -93.09,11.69 -29.13,7.77 -57.31,20.42 -84.54,37.93 -27.22,17.51 -54.16,40.54 -80.74,69.08 -26.61,28.53 -53.85,64.21 -81.71,107.01 -15.2,23.34 -29.45,51.23 -42.75,83.66 -13.29,32.43 -25.33,65.19 -36.09,98.26 -10.76,33.07 -19.01,64.85 -24.7,95.34 -5.69,30.5 -8.56,55.45 -8.56,74.91 0,41.51 7.93,69.72 23.76,84.64 15.83,14.91 32.62,22.37 50.35,22.37 43.05,0 91.81,-21.71 146.27,-65.18 54.47,-43.47 103.88,-113.83 148.21,-211.11 18.99,-41.5 33.87,-80.1 44.64,-115.77 10.77,-35.67 22.48,-68.42 35.15,-98.25 3.8,-10.39 9.81,-23.35 18.04,-38.92 8.24,-15.56 17.74,-30.16 28.51,-43.78 10.76,-13.62 21.52,-25.28 32.29,-35.02 10.76,-9.73 21.22,-14.6 31.34,-14.6zm271.69 484.49c-29.13,27.25 -65.56,58.05 -109.25,92.42 -43.7,34.38 -88.35,67.13 -133.95,98.26 -45.6,31.13 -88.65,57.41 -129.18,78.81 -40.54,21.4 -72.83,32.1 -96.9,32.1 -18.99,0 -33.56,-8.11 -43.7,-24.31 -10.12,-16.22 -15.19,-36.67 -15.19,-61.31 0,-12.96 0.95,-28.53 2.85,-46.69 1.9,-18.16 4.12,-35.99 6.65,-53.5 2.52,-17.5 5.39,-34.38 8.54,-50.6 3.18,-16.2 6.03,-29.5 8.56,-39.87l-7.6 0c-57.01,72.63 -117.47,130.03 -181.44,172.19 -63.96,42.15 -121.91,63.23 -173.84,63.23 -48.13,0 -79.79,-15.57 -94.99,-46.7 -15.19,-31.13 -22.8,-73.28 -22.8,-126.47 0,-35.02 5.08,-74.25 15.2,-117.72 10.15,-43.44 24.7,-87.22 43.7,-131.34 18.99,-44.1 41.8,-86.91 68.4,-128.41 26.6,-41.52 56.99,-79.14 91.18,-112.86 82.33,-80.42 160.23,-135.87 233.69,-166.36 73.46,-30.47 145.02,-45.72 214.67,-45.72 12.68,0 28.5,1.62 47.51,4.88 19,3.23 37.68,9.07 56.05,17.5 18.36,8.43 34.2,19.77 47.51,34.04 13.29,14.28 19.94,32.44 19.94,54.49 0,14.25 -0.95,26.25 -2.85,35.99 -1.9,9.73 -5.38,18.48 -10.45,26.26 -5.08,7.78 -12.03,16.22 -20.9,25.3 -8.86,9.06 -19.63,19.46 -32.29,31.13 -10.15,28.53 -21.86,54.81 -35.16,78.79 -13.29,24 -27.55,56.75 -42.75,98.25 -29.12,81.73 -53.51,151.77 -73.15,210.14 -19.62,58.38 -29.45,94.05 -29.45,107.01 0,28.55 3.48,47.04 10.46,55.47 6.97,8.43 15.5,12.65 25.65,12.65 22.79,0 47.81,-6.16 75.04,-18.48 27.22,-12.32 55.41,-28.21 84.54,-47.69 29.12,-19.44 58.9,-41.18 89.3,-65.18 30.39,-23.99 60.15,-47.02 89.3,-69.06l17.09 23.34zm-1352.72 -455.3c-10.12,0 -21.86,13.28 -35.14,39.89 -13.29,26.59 -26.29,56.75 -38.96,90.48 -12.66,33.71 -23.42,66.46 -32.29,98.25 -8.86,31.78 -13.94,52.85 -15.19,63.23 10.12,-10.38 20.88,-24.97 32.29,-43.79 11.4,-18.8 22.79,-38.59 34.19,-59.34 11.41,-20.75 21.53,-41.82 30.39,-63.23 8.87,-21.4 15.84,-40.53 20.91,-57.41 5.06,-18.14 10.14,-34.04 15.2,-47.66 5.06,-13.62 1.26,-20.43 -11.41,-20.43zm378.09 -231.54c0,37.62 -4.12,80.09 -12.36,127.44 -8.23,47.35 -19.32,96.31 -33.24,146.91 -13.94,50.59 -30.72,101.5 -50.35,152.74 -19.63,51.23 -41.48,99.56 -65.54,144.95 -39.26,75.23 -77.9,137.82 -115.89,187.76 -38.01,49.95 -74.43,89.51 -109.26,118.69 -34.83,29.19 -68.08,49.93 -99.73,62.26 -31.67,12.32 -61.43,18.48 -89.29,18.48 -36.75,0 -61.76,-15.88 -75.07,-47.67 -13.28,-31.78 -19.94,-72.31 -19.94,-121.6 0,-35.02 4.74,-73.94 14.24,-116.75 9.51,-42.81 21.22,-84 35.14,-123.56 13.94,-39.56 27.88,-75.88 41.8,-108.95 13.94,-33.07 25.96,-57.41 36.11,-72.97 44.31,-73.94 85.49,-132.96 123.49,-177.07 38,-44.1 67.75,-66.15 89.29,-66.15 13.94,0 22.8,4.21 26.6,12.65 3.8,8.43 5.7,24.31 5.7,47.67 0,25.93 -7.29,57.06 -21.84,93.38 -14.57,36.33 -32.63,73.95 -54.16,112.86 -21.52,38.91 -44.64,77.18 -69.33,114.79 -24.7,37.62 -47.18,70.05 -67.45,97.29 -1.26,12.97 -2.53,25.29 -3.8,36.97 -1.27,10.37 -2.22,20.43 -2.86,30.16 -0.63,9.73 -0.95,17.19 -0.95,22.38 0,23.34 0.32,44.1 0.95,62.26 0.64,18.16 2.86,33.72 6.65,46.69 3.8,12.97 10.12,22.7 19,29.19 8.86,6.49 21.53,9.72 38,9.72 13.93,0 29.46,-3.24 46.55,-9.72 17.1,-6.49 35.47,-20.1 55.11,-40.87 19.62,-20.76 41.47,-50.26 65.53,-88.54 24.07,-38.26 49.4,-89.16 75.99,-152.73 16.48,-38.92 30.08,-80.1 40.85,-123.56 10.76,-43.45 19.32,-85.61 25.65,-126.48 6.33,-40.84 10.76,-78.15 13.29,-111.87 2.54,-33.73 3.81,-59.66 3.81,-77.82 0,-92.11 -6.65,-169.28 -19.95,-231.56 -13.31,-62.25 -31.03,-112.53 -53.2,-150.79 -22.17,-38.25 -47.18,-65.82 -75.04,-82.69 -27.86,-16.86 -57.01,-25.29 -87.4,-25.29 -16.46,0 -32.29,0.65 -47.5,1.94 -15.19,1.31 -29.77,6.5 -43.7,15.57 -20.27,12.98 -33.24,24.32 -38.95,34.06 -5.69,9.72 -8.54,19.77 -8.54,30.16 0,10.37 1.9,16.21 5.69,17.51 3.8,1.28 5.69,5.19 5.69,11.68 0,7.77 -3.16,11.66 -9.49,11.66 -5.08,0 -11.41,-4.87 -19.01,-14.6 -7.6,-9.72 -11.4,-23.65 -11.4,-41.82 0,-25.95 6.01,-49.29 18.05,-70.04 12.02,-20.76 28.17,-38.59 48.44,-53.5 20.27,-14.92 44.01,-26.61 71.25,-35.04 27.24,-8.43 56.05,-12.65 86.44,-12.65 43.06,0 83.28,8.44 120.64,25.3 37.37,16.86 69.66,44.75 96.9,83.67 27.22,38.9 48.76,89.16 64.6,150.79 15.83,61.6 23.75,137.17 23.75,226.67zm-644.06 704.35c-21.53,18.16 -52.9,41.51 -94.05,70.04 -41.17,28.54 -88.35,57.07 -141.54,85.63 -68.4,36.31 -125.4,64.21 -170.99,83.65 -45.6,19.46 -77.89,29.19 -96.89,29.19 -16.48,0 -26.6,-4.54 -30.39,-13.62 -3.81,-9.09 -5.7,-18.8 -5.7,-29.19 0,-10.37 2.53,-27.25 7.6,-50.59 5.06,-23.35 11.72,-49.94 19.95,-79.77 8.23,-29.84 17.09,-61.63 26.6,-95.35 9.49,-33.73 18.69,-66.15 27.55,-97.28 2.53,-9.09 6.01,-21.09 10.44,-36.01 4.43,-14.91 9.2,-29.5 14.25,-43.77l17.11 -52.54c-16.48,12.97 -36.11,25.94 -58.9,38.92 -20.26,10.37 -45.27,22.37 -75.06,35.99 -29.76,13.62 -65.53,26.28 -107.34,37.95 -15.2,5.18 -29.76,8.75 -43.7,10.69 -13.92,1.94 -25.96,4.22 -36.09,6.82 -12.67,2.59 -24.07,3.88 -34.21,3.88 -2.52,15.56 -6.95,36.32 -13.29,62.26 -6.34,25.93 -13.93,52.54 -22.79,79.77 -8.87,27.25 -18.69,53.2 -29.45,77.85 -10.77,24.65 -22.48,43.44 -35.15,56.41 -21.54,22.05 -40.23,36.32 -56.05,42.81 -15.84,6.49 -31.34,9.73 -46.55,9.73 -21.54,0 -34.51,-3.88 -38.95,-11.68 -4.44,-7.79 -6.66,-20.1 -6.66,-36.97 0,-6.5 2.22,-17.19 6.66,-32.11 4.43,-14.91 9.5,-31.13 15.19,-48.63 5.69,-17.51 11.72,-35.67 18.05,-54.47 6.33,-18.82 11.4,-35.35 15.19,-49.63l32.3 -103.13c-8.87,-10.37 -13.93,-17.18 -15.2,-20.43 -1.26,-3.24 -1.9,-13.28 -1.9,-30.16 0,-14.28 6.65,-26.59 19.96,-36.96 13.31,-10.39 30.71,-16.88 52.24,-19.47l17.1 -42.8c11.4,-27.25 22.17,-55.45 32.3,-84.64 10.12,-29.19 19.95,-57.08 29.45,-83.67 9.5,-26.59 18.36,-50.59 26.59,-71.99 8.25,-21.41 16.15,-38.6 23.75,-51.57 21.53,-37.62 46.55,-62.91 75.04,-75.88 28.5,-12.97 51.61,-19.46 69.35,-19.46 8.87,0 13.31,7.14 13.31,21.4 0,3.91 -1.9,11.36 -5.72,22.38 -3.8,11.03 -8.86,24 -15.19,38.91 -6.34,14.92 -12.98,31.13 -19.95,48.66 -6.97,17.5 -12.99,34.04 -18.05,49.61 -10.14,28.54 -20.57,58.38 -31.34,89.51 -10.78,31.13 -20.59,60.32 -29.45,87.56 -10.15,32.43 -20.27,64.21 -30.42,95.34l28.51 0c19.01,0 41.79,-1.94 68.39,-5.83 75.99,-10.39 133.95,-26.28 173.85,-47.69 39.89,-21.4 63.64,-37.93 71.25,-49.62 7.59,-19.44 12.97,-33.72 16.14,-42.81 3.16,-9.07 8.54,-25.28 16.15,-48.63 13.92,-44.1 27.22,-84 39.89,-119.67 12.67,-35.66 31.67,-67.12 56.98,-94.35 13.94,-14.28 24.71,-23.68 32.31,-28.22 7.59,-4.54 19,-10.7 34.19,-18.48 10.14,-5.19 19.63,-8.43 28.51,-9.73 8.86,-1.29 16.45,-1.94 22.78,-1.94 8.87,0 16.16,2.27 21.86,6.8 5.69,4.54 8.54,13.96 8.54,28.22 0,35.04 -12.66,79.45 -37.99,133.29 -25.33,53.84 -59.53,111.89 -102.59,174.14 -15.2,42.8 -29.45,85.6 -42.75,128.41 -13.29,42.82 -25.33,82.38 -36.09,118.7 -10.77,36.32 -19.01,68.74 -24.7,97.28 -5.69,28.54 -8.56,49.94 -8.56,64.22 0,9.09 0.64,18.48 1.9,28.22 1.28,9.72 7.61,14.59 19.01,14.59 22.79,0 47.5,-4.87 74.1,-14.59 26.6,-9.73 54.47,-22.38 83.58,-37.95 29.14,-15.56 58.9,-33.07 89.31,-52.53 30.41,-19.47 60.16,-38.92 89.3,-58.37l17.1 23.34zm-1198.83 -540.92c0,-20.74 -5.7,-33.71 -17.09,-38.9 -11.41,-5.19 -24.07,-7.79 -38.01,-7.79 -24.07,0 -54.15,9.73 -90.25,29.19 -36.09,19.47 -69.97,49.94 -101.64,91.45 -13.94,18.16 -27.86,40.21 -41.8,66.16 -13.92,25.94 -26.91,54.47 -38.93,85.6 -12.04,31.13 -22.17,63.88 -30.39,98.26 -8.25,34.38 -12.99,68.42 -14.25,102.16 25.33,-22.05 51.29,-44.75 77.89,-68.11 22.79,-20.75 47.5,-43.44 74.1,-68.09 26.6,-24.65 51.93,-49.94 75.99,-75.88 41.8,-44.11 76.33,-83.67 103.54,-118.69 27.25,-35.04 40.85,-66.81 40.85,-95.36zm243.18 560.39c0,5.18 -16.46,20.1 -49.39,44.75 -32.93,24.65 -75.68,50.9 -128.24,78.79 -52.56,27.88 -111.14,52.86 -175.74,74.92 -64.6,22.05 -128.57,33.07 -191.89,33.07 -79.79,0 -139.64,-19.46 -179.53,-58.38 -39.91,-38.92 -59.85,-100.53 -59.85,-184.84 0,-54.49 14.89,-121.29 44.65,-200.41 29.76,-79.14 77.58,-158.91 143.45,-239.33 37.99,-46.69 76.94,-86.91 116.85,-120.63 39.88,-33.73 78.2,-60.98 114.94,-81.73 36.73,-20.75 71.24,-36 103.55,-45.73 32.29,-9.71 59.84,-14.59 82.63,-14.59 36.72,0 62.06,4.88 75.99,14.59 13.93,9.73 20.91,26.92 20.91,51.57 0,31.13 -21.22,71.66 -63.66,121.61 -42.43,49.93 -97.2,107.34 -164.34,172.19 -26.58,25.94 -57.31,55.13 -92.13,87.56 -34.84,32.43 -67.45,63.56 -97.85,93.39 -36.73,33.73 -73.46,68.11 -110.19,103.13 -5.07,81.72 8.24,137.82 39.91,168.3 31.66,30.47 76.63,45.72 134.88,45.72 49.39,0 99.42,-9.4 150.09,-28.21 50.68,-18.81 96.26,-39.25 136.79,-61.29 48.13,-25.94 94.37,-56.44 138.7,-91.45 5.06,7.79 8.23,13.62 9.49,17.51 1.27,3.9 1.27,10.38 0,19.47zm-782.73 -36.98c-10.15,10.37 -24.07,23.03 -41.8,37.95 -17.74,14.91 -36.73,30.16 -57.01,45.72 -20.26,15.57 -40.84,30.8 -61.74,45.72 -20.91,14.91 -38.96,27.57 -54.15,37.94 -68.4,45.41 -120.64,75.56 -156.75,90.47 -36.09,14.94 -63.64,22.39 -82.63,22.39 -13.94,0 -24.7,-2.28 -32.29,-6.82 -7.61,-4.54 -12.99,-10.06 -16.15,-16.54 -3.17,-6.49 -4.76,-14.25 -4.76,-23.34 0,-9.07 0,-18.81 0,-29.18 0,-6.49 2.53,-19.48 7.6,-38.92 5.06,-19.46 11.72,-42.47 19.95,-69.07 8.23,-26.6 17.74,-55.45 28.5,-86.59 10.77,-31.13 21.22,-61.63 31.34,-91.44 25.35,-75.26 47.18,-140.43 65.56,-195.55 18.36,-55.14 27.54,-96.32 27.54,-123.56 0,-6.5 -1.26,-14.59 -3.8,-24.32 -2.53,-9.73 -10.76,-14.59 -24.69,-14.59 -7.6,0 -15.53,0.97 -23.75,2.91 -8.23,1.94 -18.05,6.16 -29.45,12.65 -11.41,6.49 -25.33,16.22 -41.8,29.19 -16.45,12.97 -36.72,29.84 -60.79,50.58 -7.61,1.31 -13.94,-1.94 -19,-9.71 -2.53,-3.91 -3.81,-7.14 -3.81,-9.73 53.2,-50.59 98.16,-90.48 134.9,-119.67 36.73,-29.18 67.44,-51.55 92.14,-67.12 24.69,-15.56 44.65,-25.62 59.84,-30.16 15.2,-4.53 27.86,-6.82 38,-6.82 5.07,0 10.78,0.33 17.11,0.98 6.33,0.65 12.02,3.25 17.09,7.78 5.06,4.54 9.19,11.69 12.36,21.4 3.16,9.73 4.74,23.68 4.74,41.84 0,28.54 -9.18,71.35 -27.55,128.41 -18.37,57.08 -40.85,125.18 -67.45,204.31 -5.06,14.28 -12.66,35.67 -22.79,64.21 -10.12,28.53 -19.94,57.72 -29.45,87.56 -9.5,29.84 -17.74,58.05 -24.7,84.64 -6.97,26.59 -10.44,45.07 -10.44,55.44 0,16.88 3.16,28.88 9.49,36.01 6.33,7.13 14.58,10.69 24.7,10.69 20.27,0 43.06,-6.49 68.4,-19.46 25.33,-12.97 51.29,-28.85 77.89,-47.66 26.6,-18.82 52.24,-38.59 76.94,-59.35 24.7,-20.76 46.55,-38.26 65.54,-52.53l17.11 23.34zm-843.55 -523.41c0,-20.74 -5.7,-33.71 -17.09,-38.9 -11.41,-5.19 -24.07,-7.79 -38.01,-7.79 -24.07,0 -54.15,9.73 -90.25,29.19 -36.09,19.47 -69.97,49.94 -101.64,91.45 -13.93,18.16 -27.86,40.21 -41.79,66.16 -13.93,25.94 -26.91,54.47 -38.95,85.6 -12.03,31.13 -22.17,63.88 -30.39,98.26 -8.25,34.38 -12.99,68.42 -14.25,102.16 25.33,-22.05 51.29,-44.75 77.89,-68.11 22.79,-20.75 47.5,-43.44 74.1,-68.09 26.61,-24.65 51.94,-49.94 76,-75.88 41.79,-44.11 76.32,-83.67 103.54,-118.69 27.24,-35.04 40.84,-66.81 40.84,-95.36zm243.18 560.39c0,5.18 -16.45,20.1 -49.39,44.75 -32.93,24.65 -75.68,50.9 -128.24,78.79 -52.56,27.88 -111.13,52.86 -175.74,74.92 -64.6,22.05 -128.56,33.07 -191.89,33.07 -79.79,0 -139.63,-19.46 -179.53,-58.38 -39.91,-38.92 -59.85,-100.53 -59.85,-184.84 0,-54.49 14.89,-121.29 44.65,-200.41 29.76,-79.14 77.58,-158.91 143.45,-239.33 37.99,-46.69 76.94,-86.91 116.85,-120.63 39.88,-33.73 78.2,-60.98 114.95,-81.73 36.72,-20.75 71.23,-36 103.54,-45.73 32.29,-9.71 59.84,-14.59 82.63,-14.59 36.72,0 62.07,4.88 75.99,14.59 13.94,9.73 20.91,26.92 20.91,51.57 0,31.13 -21.22,71.66 -63.66,121.61 -42.42,49.93 -97.19,107.34 -164.33,172.19 -26.59,25.94 -57.32,55.13 -92.14,87.56 -34.83,32.43 -67.45,63.56 -97.85,93.39 -36.73,33.73 -73.46,68.11 -110.18,103.13 -5.08,81.72 8.23,137.82 39.89,168.3 31.66,30.47 76.63,45.72 134.9,45.72 49.39,0 99.42,-9.4 150.09,-28.21 50.67,-18.81 96.26,-39.25 136.78,-61.29 48.13,-25.94 94.37,-56.44 138.7,-91.45 5.06,7.79 8.23,13.62 9.49,17.51 1.27,3.9 1.27,10.38 0,19.47zm-718.16 -52.54c-24.05,20.75 -53.19,44.75 -87.38,72 -34.21,27.24 -82.97,59.66 -146.29,97.28 -34.21,20.75 -63.66,38.26 -88.35,52.54 -24.7,14.25 -46.56,25.93 -65.56,35.02 -18.99,9.07 -35.78,15.56 -50.34,19.46 -14.57,3.9 -28.82,5.84 -42.74,5.84 -16.48,0 -29.46,-3.25 -38.96,-9.73 -9.49,-6.49 -17.1,-14.59 -22.79,-24.31 -5.7,-9.73 -9.5,-21.09 -11.4,-34.06 -1.9,-12.97 -2.85,-25.28 -2.85,-36.97 0,-20.75 2.21,-47.03 6.64,-78.79 4.43,-31.78 10.45,-65.82 18.04,-102.16 7.61,-36.32 16.48,-74.25 26.61,-113.83 10.14,-39.56 20.26,-78.14 30.39,-115.75 22.8,-89.51 50.03,-183.55 81.7,-282.14l-9.5 -5.83c-11.41,16.86 -29.45,43.76 -54.16,80.74 -24.68,36.96 -52.24,77.18 -82.63,120.63 -30.39,43.45 -61.43,87.23 -93.08,131.35 -31.68,44.1 -60.81,81.72 -87.4,112.84 -55.73,67.46 -104.18,122.58 -145.34,165.39 -41.17,42.81 -77.9,76.54 -110.2,101.19 -32.29,24.65 -61.43,41.5 -87.39,50.58 -25.96,9.09 -50.34,13.63 -73.15,13.63 -32.93,0 -56.03,-10.37 -69.34,-31.13 -13.29,-20.76 -19.96,-49.29 -19.96,-85.61 0,-20.75 4.77,-41.19 14.25,-61.29 9.5,-20.1 19.96,-37.29 31.34,-51.56 10.15,-14.28 23.75,-25.62 40.85,-34.04 17.1,-8.44 32.62,-15.25 46.55,-20.44 1.27,10.38 2.22,22.38 2.86,36 0.63,13.61 2.85,26.26 6.64,37.94 3.8,11.68 10.12,21.73 19,30.16 8.86,8.43 20.91,12.65 36.11,12.65 18.99,0 38.62,-3.88 58.89,-11.68 20.25,-7.78 42.75,-21.4 67.43,-40.87 24.71,-19.46 52.57,-45.72 83.61,-78.81 31.03,-33.07 67.45,-74.91 109.23,-125.49 40.54,-50.59 79.48,-101.83 116.85,-153.72 37.37,-51.88 70.94,-100.86 100.69,-146.91 29.78,-46.04 55.41,-87.24 76.94,-123.54 21.53,-36.33 37.37,-63.57 47.51,-81.73 8.87,-28.54 19,-61.62 30.41,-99.22 11.39,-37.62 23.42,-74.92 36.09,-111.89 12.66,-36.97 25.65,-71.99 38.96,-105.07 13.29,-33.07 26.26,-58.69 38.93,-76.85 31.67,-37.62 60.48,-62.59 86.44,-74.92 25.97,-12.31 47.18,-18.47 63.66,-18.47 10.14,0 16.46,2.59 19,7.79 2.53,5.18 3.8,14.91 3.8,29.18 0,12.97 -4.11,32.75 -12.36,59.34 -8.23,26.6 -18.67,55.79 -31.34,87.56 -12.66,31.78 -25.96,65.19 -39.89,100.21 -13.93,35.02 -27.22,67.45 -39.89,97.28 -11.4,25.95 -24.7,63.25 -39.91,111.89 -15.19,48.63 -31.34,102.47 -48.43,161.48 -17.1,59.03 -33.89,119.66 -50.36,181.93 -16.45,62.26 -31.34,119.98 -44.64,173.16 -13.31,53.19 -24.07,98.91 -32.3,137.17 -8.23,38.28 -12.35,61.95 -12.35,71.03 0,7.78 -0.63,17.19 -1.9,28.22 -1.26,11.02 -0.64,22.05 1.9,33.07 2.53,11.03 7.28,20.43 14.24,28.22 6.98,7.77 19.32,11.68 37.06,11.68 40.53,0 89.6,-17.52 147.24,-52.54 57.62,-35.03 120.64,-77.83 189.04,-128.41l13.28 23.34z"/>
   <path class="fil1" d="M18803.15 5210.27c-7.59,10.37 -25.96,30.8 -55.1,61.29 -29.12,30.47 -63.32,62.26 -102.59,95.34 -39.27,33.07 -81.05,62.6 -125.39,88.53 -44.34,25.94 -85.49,38.92 -123.5,38.92 -46.86,0 -87.38,-26.92 -121.59,-80.76 -34.19,-53.84 -65.23,-137.17 -93.09,-250.01 -21.52,29.83 -45.59,59.34 -72.2,88.53 -26.6,29.18 -55.1,63.23 -85.49,102.15 -15.2,19.47 -30.08,39.24 -44.65,59.34 -14.56,20.1 -28.5,38.28 -41.8,54.49 -13.29,16.21 -25.01,29.84 -35.14,40.85 -10.12,11.03 -19,16.54 -26.6,16.54 -13.92,0 -19.95,-3.25 -18.05,-9.73 1.9,-6.49 2.85,-16.22 2.85,-29.19 5.08,-10.37 17.74,-28.85 38.01,-55.45 20.26,-26.59 44.65,-57.07 73.15,-91.45 28.5,-34.37 59.52,-71 93.09,-109.93 33.56,-38.92 66.81,-77.18 99.75,-114.8 -13.94,-51.87 -25.35,-93.39 -34.21,-124.53 -8.86,-31.13 -15.82,-56.43 -20.9,-75.88 -5.07,-19.46 -9.18,-34.7 -12.35,-45.72 -3.16,-11.03 -6.03,-21.73 -8.54,-32.1 -7.61,-28.54 -14.25,-49.29 -19.96,-62.26 -5.69,-12.97 -11.08,-22.7 -16.15,-29.19 -5.07,-6.49 -8.86,-12.33 -11.41,-17.51 -2.51,-5.19 -3.8,-13.62 -3.8,-25.29 0,-10.37 5.7,-23.68 17.1,-39.89 11.41,-16.21 25.34,-32.1 41.8,-47.66 10.12,-10.38 21.22,-18.16 33.24,-23.34 12.04,-5.2 21.22,-7.79 27.55,-7.79 5.08,0 10.77,0.33 17.1,0.97 6.33,0.65 12.35,3.25 18.06,7.79 5.69,4.53 11.07,11.68 16.14,21.4 5.06,9.73 9.5,24.32 13.31,43.78 24.07,119.35 46.86,228.3 68.39,326.89 29.13,-35.04 54.78,-65.51 76.94,-91.45 22.17,-25.95 42.13,-49.29 59.85,-70.05 17.73,-20.75 34.51,-39.56 50.34,-56.43 15.84,-16.86 31.99,-33.73 48.44,-50.59 11.41,-11.68 23.44,-24.32 36.11,-37.94 12.66,-13.61 25.01,-25.94 37.04,-36.97 12.04,-11.02 23.43,-20.1 34.21,-27.24 10.76,-7.14 19.3,-10.69 25.64,-10.69 7.6,0 15.52,1.94 23.75,5.83 8.23,3.88 12.35,12.97 12.35,27.25 0,14.25 -2.85,25.62 -8.55,34.04 -5.69,8.43 -14.25,17.19 -25.65,26.28 -11.4,9.07 -25.64,19.77 -42.74,32.1 -17.11,12.31 -36.41,28.84 -57.94,49.61 -32.94,29.84 -70.94,66.17 -114,108.95 -43.06,42.81 -89.93,96 -140.6,159.56 13.94,54.48 27.24,101.81 39.91,142.03 12.66,40.21 26.6,73.94 41.8,101.19 15.19,27.24 32.6,47.66 52.24,61.28 19.62,13.63 43.39,20.43 71.25,20.43 15.19,0 34.2,-5.51 56.99,-16.53 22.8,-11.03 46.55,-25.29 71.25,-42.8 24.7,-17.52 49.72,-37.29 75.04,-59.35 25.33,-22.06 49.39,-44.11 72.2,-66.16l17.09 23.35zm873.96 15.57c-81.06,59.66 -159.92,108.3 -236.53,145.91 -76.64,37.63 -162.44,56.44 -257.45,56.44 -26.6,0 -47.5,-2.6 -62.7,-7.78 -59.53,32.43 -122.22,48.65 -188.08,48.65 -22.79,0 -44.96,-3.57 -66.49,-10.72 -21.54,-7.13 -40.84,-19.13 -57.94,-35.99 -17.11,-16.87 -30.73,-38.92 -40.85,-66.16 -10.14,-27.24 -15.19,-60.32 -15.19,-99.22 0,-36.33 3.15,-70.05 9.49,-101.19 6.34,-31.13 15.19,-66.15 26.6,-105.07 8.86,-31.13 19.32,-61.94 31.34,-92.42 12.04,-30.47 24.39,-59.03 37.06,-85.61 12.66,-26.59 25.65,-50.59 38.95,-71.99 13.29,-21.41 25.64,-37.94 37.05,-49.62 8.86,-9.09 20.27,-17.18 34.19,-24.32 13.94,-7.13 29.77,-10.7 47.51,-10.7 12.67,0 21.84,1.94 27.54,5.84 5.7,3.9 10.46,7.79 14.25,11.68l5.7 0c20.27,-19.46 41.17,-38.59 62.7,-57.41 21.52,-18.8 44.64,-35.66 69.34,-50.58 24.69,-14.91 51.63,-27.25 80.75,-36.97 29.13,-9.73 62.7,-14.59 100.69,-14.59 48.13,0 88.34,15.88 120.64,47.66 32.3,31.79 48.46,85.94 48.46,162.48 0,46.69 -8.87,97.93 -26.6,153.7 -17.74,55.78 -42.44,110.58 -74.1,164.42 -31.68,53.84 -68.4,104.1 -110.2,150.79 -41.8,46.7 -87.4,84.97 -136.78,114.79 1.25,1.31 7.6,2.91 18.99,4.88 11.41,1.94 27.24,2.91 47.51,2.91 54.47,0 116.21,-15.25 185.24,-45.73 69.02,-30.48 139.65,-72.96 211.83,-127.45l17.11 23.36zm-284.99 -377.47c0,-46.69 -9.49,-85.3 -28.5,-115.77 -19,-30.48 -52.56,-45.72 -100.68,-45.72 -13.93,0 -34.51,3.88 -61.75,11.68 -27.22,7.77 -51.63,20.75 -73.15,38.9 -12.67,10.39 -26.59,25.95 -41.79,46.71 -15.21,20.74 -29.77,46.04 -43.7,75.88 -13.93,29.83 -26.29,64.53 -37.05,104.09 -10.77,39.57 -18.05,83.35 -21.84,131.34 0,11.68 0.31,30.16 0.95,55.47 0.63,25.29 5.38,51.88 14.25,79.77 8.86,27.89 23.42,53.84 43.69,77.82 20.26,24.01 50.03,39.25 89.3,45.73 40.53,-20.75 76.94,-50.91 109.23,-90.48 32.3,-39.56 59.54,-83.02 81.71,-130.35 22.15,-47.35 39.26,-96.32 51.29,-146.91 12.03,-50.59 18.04,-96.64 18.04,-138.14zm-368.58 537.01c-30.39,-19.44 -52.88,-44.09 -67.43,-73.94 -14.58,-29.81 -24.39,-60.63 -29.45,-92.41 -5.08,-31.77 -6.66,-62.59 -4.77,-92.42 1.9,-29.83 4.13,-55.12 6.66,-75.88l-5.72 0c-3.8,11.68 -8.54,27.89 -14.24,48.63 -5.69,20.76 -9.82,53.2 -12.35,97.3 -2.53,40.21 0.31,72.63 8.55,97.28 8.23,24.65 18.67,43.78 31.34,57.4 12.68,13.63 25.65,22.7 38.96,27.25 13.29,4.54 23.12,6.8 29.45,6.8l18.99 0zm1571.21 -182.89c-10.12,7.79 -24.38,18.16 -42.75,31.13 -18.35,12.98 -37.99,26.59 -58.89,40.87 -20.9,14.28 -42.12,28.53 -63.64,42.81 -21.53,14.27 -41.17,26.59 -58.9,36.97 -37.99,23.35 -70.3,41.84 -96.89,55.45 -26.6,13.62 -49.08,24.32 -67.44,32.1 -18.37,7.79 -33.89,12.97 -46.55,15.56 -12.67,2.6 -24.07,3.9 -34.21,3.9 -16.45,0 -27.22,-6.15 -32.29,-18.48 -5.06,-12.31 -7.59,-24.31 -7.59,-35.99 0,-25.95 6.02,-65.51 18.04,-118.7 12.03,-53.18 30.09,-128.42 54.16,-225.7l18.99 -77.82 -7.6 -3.88c-21.53,23.34 -47.17,55.12 -76.94,95.33 -29.76,40.22 -63,82.37 -99.75,126.47 -40.53,49.29 -76.62,88.85 -108.3,118.7 -31.66,29.84 -60.15,53.18 -85.49,70.04 -25.33,16.86 -47.81,28.22 -67.44,34.04 -19.62,5.84 -37.68,8.76 -54.15,8.76 -29.13,0 -48.77,-11.35 -58.89,-34.06 -10.14,-22.69 -15.2,-47.67 -15.2,-74.91 0,-7.78 0.95,-18.15 2.85,-31.13 1.9,-12.97 4.43,-26.59 7.61,-40.85 3.16,-14.28 7.59,-27.89 13.29,-40.87 5.69,-12.97 12.33,-23.99 19.95,-33.07 10.12,-10.38 22.17,-19.13 36.09,-26.26 13.94,-7.14 27.24,-12.66 39.91,-16.54 0,9.09 -0.31,21.73 -0.95,37.94 -0.64,16.21 0.64,32.11 3.8,47.67 3.17,15.57 8.55,29.18 16.15,40.85 7.6,11.68 19.01,17.51 34.2,17.51 8.87,0 18.36,-0.65 28.5,-1.95 10.14,-1.28 22.79,-6.49 38,-15.56 15.19,-9.09 33.56,-23.34 55.1,-42.81 21.53,-19.46 48.13,-47.34 79.79,-83.66 30.39,-35.02 56.99,-66.16 79.81,-93.39 22.78,-27.24 42.74,-51.88 59.84,-73.94 17.1,-22.05 32.29,-42.15 45.6,-60.31 13.29,-18.16 25.65,-36.33 37.05,-54.49 12.67,-42.81 26.59,-83.98 41.79,-123.54 15.19,-39.56 31.67,-76.2 49.4,-109.94 8.86,-11.68 20.58,-21.07 35.14,-28.21 14.57,-7.14 29.14,-13.31 43.7,-18.48 14.57,-5.19 28.18,-8.76 40.85,-10.7 12.66,-1.94 22.17,-2.91 28.5,-2.91 13.92,0 20.9,9.07 20.9,27.24 0,10.38 -3.16,25.94 -9.49,46.7 -6.35,20.74 -14.58,43.77 -24.7,69.06 -10.14,25.3 -21.22,51.23 -33.25,77.82 -12.03,26.6 -23.75,51.57 -35.15,74.91 -13.93,35.04 -27.86,75.57 -41.8,121.61 -13.92,46.06 -26.59,90.8 -37.99,134.26 -11.41,43.45 -20.92,82.37 -28.51,116.75 -7.6,34.38 -11.4,56.75 -11.4,67.12 0,9.09 0.31,19.13 0.95,30.16 0.64,11.04 9.18,16.55 25.65,16.55 17.74,0 38.32,-4.88 61.74,-14.6 23.43,-9.73 49.08,-22.38 76.94,-37.94 27.88,-15.57 56.69,-33.07 86.45,-52.53 29.77,-19.47 59.23,-38.92 88.35,-58.38l17.09 23.34zm873.96 23.36c-81.06,59.66 -159.92,108.3 -236.54,145.91 -76.63,37.63 -162.43,56.44 -257.44,56.44 -26.6,0 -47.5,-2.6 -62.7,-7.78 -59.53,32.43 -122.23,48.65 -188.08,48.65 -22.79,0 -44.96,-3.57 -66.49,-10.72 -21.54,-7.13 -40.85,-19.13 -57.94,-35.99 -17.11,-16.87 -30.73,-38.92 -40.85,-66.16 -10.15,-27.24 -15.2,-60.32 -15.2,-99.22 0,-36.33 3.16,-70.05 9.49,-101.19 6.35,-31.13 15.2,-66.15 26.61,-105.07 8.86,-31.13 19.31,-61.94 31.34,-92.42 12.03,-30.47 24.39,-59.03 37.05,-85.61 12.67,-26.59 25.66,-50.59 38.96,-71.99 13.28,-21.41 25.64,-37.94 37.05,-49.62 8.86,-9.09 20.26,-17.18 34.19,-24.32 13.93,-7.13 29.77,-10.7 47.51,-10.7 12.66,0 21.84,1.94 27.54,5.84 5.7,3.9 10.45,7.79 14.24,11.68l5.72 0c20.27,-19.46 41.16,-38.59 62.69,-57.41 21.53,-18.8 44.65,-35.66 69.35,-50.58 24.69,-14.91 51.61,-27.25 80.74,-36.97 29.14,-9.73 62.71,-14.59 100.69,-14.59 48.13,0 88.35,15.88 120.64,47.66 32.31,31.79 48.46,85.94 48.46,162.48 0,46.69 -8.86,97.93 -26.6,153.7 -17.73,55.78 -42.44,110.58 -74.1,164.42 -31.67,53.84 -68.4,104.1 -110.19,150.79 -41.8,46.7 -87.4,84.97 -136.79,114.79 1.26,1.31 7.61,2.91 19,4.88 11.4,1.94 27.24,2.91 47.51,2.91 54.46,0 116.21,-15.25 185.23,-45.73 69.03,-30.48 139.65,-72.96 211.84,-127.45l17.11 23.36zm-284.99 -377.47c0,-46.69 -9.49,-85.3 -28.5,-115.77 -19,-30.48 -52.56,-45.72 -100.68,-45.72 -13.94,0 -34.51,3.88 -61.76,11.68 -27.22,7.77 -51.61,20.75 -73.15,38.9 -12.66,10.39 -26.58,25.95 -41.78,46.71 -15.21,20.74 -29.77,46.04 -43.7,75.88 -13.94,29.83 -26.29,64.53 -37.06,104.09 -10.76,39.57 -18.04,83.35 -21.83,131.34 0,11.68 0.31,30.16 0.95,55.47 0.63,25.29 5.38,51.88 14.24,79.77 8.87,27.89 23.43,53.84 43.7,77.82 20.26,24.01 50.03,39.25 89.3,45.73 40.52,-20.75 76.94,-50.91 109.23,-90.48 32.29,-39.56 59.54,-83.02 81.7,-130.35 22.16,-47.35 39.27,-96.32 51.29,-146.91 12.04,-50.59 18.05,-96.64 18.05,-138.14zm-368.58 537.01c-30.39,-19.44 -52.88,-44.09 -67.43,-73.94 -14.58,-29.81 -24.4,-60.63 -29.46,-92.41 -5.07,-31.77 -6.65,-62.59 -4.76,-92.42 1.9,-29.83 4.12,-55.12 6.65,-75.88l-5.7 0c-3.8,11.68 -8.54,27.89 -14.25,48.63 -5.69,20.76 -9.81,53.2 -12.33,97.3 -2.53,40.21 0.31,72.63 8.54,97.28 8.24,24.65 18.69,43.78 31.35,57.4 12.67,13.63 25.65,22.7 38.95,27.25 13.31,4.54 23.12,6.8 29.45,6.8l19 0zm1295.74 -871.67c0,37.62 -4.12,80.09 -12.36,127.44 -8.23,47.35 -19.31,96.31 -33.24,146.91 -13.94,50.59 -30.72,101.5 -50.35,152.74 -19.63,51.23 -41.48,99.56 -65.54,144.95 -39.26,75.23 -77.9,137.82 -115.89,187.76 -38.01,49.95 -74.43,89.51 -109.26,118.69 -34.83,29.19 -68.08,49.93 -99.73,62.26 -31.67,12.32 -61.43,18.48 -89.29,18.48 -36.75,0 -61.76,-15.88 -75.07,-47.67 -13.28,-31.78 -19.94,-72.31 -19.94,-121.6 0,-35.02 4.74,-73.94 14.24,-116.75 9.51,-42.81 21.22,-84 35.15,-123.56 13.93,-39.56 27.87,-75.88 41.79,-108.95 13.94,-33.07 25.96,-57.41 36.11,-72.97 44.33,-73.94 85.49,-132.96 123.49,-177.07 38,-44.1 67.77,-66.15 89.29,-66.15 13.94,0 22.8,4.21 26.61,12.65 3.8,8.43 5.69,24.31 5.69,47.67 0,25.93 -7.29,57.06 -21.84,93.38 -14.57,36.33 -32.63,73.95 -54.15,112.86 -21.53,38.91 -44.65,77.18 -69.34,114.79 -24.7,37.62 -47.18,70.05 -67.45,97.29 -1.26,12.97 -2.53,25.29 -3.8,36.97 -1.27,10.37 -2.22,20.43 -2.86,30.16 -0.63,9.73 -0.95,17.19 -0.95,22.38 0,23.34 0.32,44.1 0.95,62.26 0.64,18.16 2.86,33.72 6.65,46.69 3.8,12.97 10.12,22.7 19,29.19 8.86,6.49 21.53,9.72 38.01,9.72 13.92,0 29.45,-3.24 46.54,-9.72 17.1,-6.49 35.47,-20.1 55.11,-40.87 19.62,-20.76 41.47,-50.26 65.53,-88.54 24.07,-38.26 49.4,-89.16 75.99,-152.73 16.48,-38.92 30.09,-80.1 40.85,-123.56 10.76,-43.45 19.32,-85.61 25.65,-126.48 6.33,-40.84 10.76,-78.15 13.31,-111.87 2.53,-33.73 3.8,-59.66 3.8,-77.82 0,-92.11 -6.64,-169.28 -19.95,-231.56 -13.31,-62.25 -31.03,-112.53 -53.2,-150.79 -22.17,-38.25 -47.18,-65.82 -75.04,-82.69 -27.86,-16.86 -57.01,-25.29 -87.4,-25.29 -16.45,0 -32.29,0.65 -47.5,1.94 -15.19,1.31 -29.77,6.5 -43.69,15.57 -20.27,12.98 -33.25,24.32 -38.96,34.06 -5.69,9.72 -8.54,19.77 -8.54,30.16 0,10.37 1.9,16.21 5.69,17.51 3.8,1.28 5.69,5.19 5.69,11.68 0,7.77 -3.16,11.66 -9.49,11.66 -5.08,0 -11.41,-4.87 -19.01,-14.6 -7.59,-9.72 -11.39,-23.65 -11.39,-41.82 0,-25.95 6.01,-49.29 18.04,-70.04 12.02,-20.76 28.17,-38.59 48.44,-53.5 20.27,-14.92 44.01,-26.61 71.25,-35.04 27.24,-8.43 56.05,-12.65 86.45,-12.65 43.05,0 83.27,8.44 120.63,25.3 37.37,16.86 69.66,44.75 96.9,83.67 27.22,38.9 48.76,89.16 64.6,150.79 15.84,61.6 23.75,137.17 23.75,226.67zm-378.08 231.54c-10.14,0 -21.86,13.28 -35.15,39.89 -13.29,26.59 -26.29,56.75 -38.95,90.48 -12.67,33.71 -23.43,66.46 -32.3,98.25 -8.86,31.78 -13.93,52.85 -15.19,63.23 10.12,-10.38 20.88,-24.97 32.29,-43.79 11.41,-18.8 22.79,-38.59 34.19,-59.34 11.41,-20.75 21.53,-41.82 30.39,-63.23 8.87,-21.4 15.84,-40.53 20.91,-57.41 5.06,-18.14 10.14,-34.04 15.2,-47.66 5.06,-13.62 1.26,-20.43 -11.4,-20.43zm1352.71 455.3c-29.13,27.25 -65.54,58.05 -109.25,92.42 -43.7,34.38 -88.35,67.13 -133.95,98.26 -45.59,31.13 -88.65,57.41 -129.18,78.81 -40.53,21.4 -72.83,32.1 -96.9,32.1 -18.99,0 -33.56,-8.11 -43.69,-24.31 -10.14,-16.22 -15.2,-36.67 -15.2,-61.31 0,-12.96 0.95,-28.53 2.85,-46.69 1.9,-18.16 4.12,-35.99 6.65,-53.5 2.52,-17.5 5.39,-34.38 8.55,-50.6 3.17,-16.2 6.02,-29.5 8.55,-39.87l-7.6 0c-57.01,72.63 -117.47,130.03 -181.44,172.19 -63.96,42.15 -121.91,63.23 -173.84,63.23 -48.13,0 -79.79,-15.57 -94.98,-46.7 -15.2,-31.13 -22.8,-73.28 -22.8,-126.47 0,-35.02 5.07,-74.25 15.19,-117.72 10.15,-43.44 24.7,-87.22 43.7,-131.34 19,-44.1 41.8,-86.91 68.4,-128.41 26.6,-41.52 56.99,-79.14 91.18,-112.86 82.33,-80.42 160.23,-135.87 233.69,-166.36 73.46,-30.47 145.02,-45.72 214.67,-45.72 12.68,0 28.51,1.62 47.52,4.88 18.99,3.23 37.67,9.07 56.03,17.5 18.37,8.43 34.2,19.77 47.51,34.04 13.29,14.28 19.95,32.44 19.95,54.49 0,14.25 -0.95,26.25 -2.86,35.99 -1.9,9.73 -5.38,18.48 -10.45,26.26 -5.07,7.78 -12.02,16.22 -20.9,25.3 -8.86,9.06 -19.63,19.46 -32.29,31.13 -10.15,28.53 -21.86,54.81 -35.16,78.79 -13.29,24 -27.55,56.75 -42.74,98.25 -29.12,81.73 -53.52,151.77 -73.15,210.14 -19.63,58.38 -29.46,94.05 -29.46,107.01 0,28.55 3.49,47.04 10.46,55.47 6.97,8.43 15.5,12.65 25.65,12.65 22.79,0 47.81,-6.16 75.04,-18.48 27.22,-12.32 55.41,-28.21 84.55,-47.69 29.12,-19.44 58.89,-41.18 89.29,-65.18 30.39,-23.99 60.16,-47.02 89.3,-69.06l17.09 23.34zm-271.69 -484.49c-2.52,-9.07 -8.23,-17.5 -17.09,-25.29 -8.87,-7.78 -19,-14.6 -30.41,-20.43 -11.4,-5.83 -22.78,-10.06 -34.19,-12.65 -11.4,-2.6 -19.63,-3.9 -24.7,-3.9 -32.93,0 -63.95,3.9 -93.09,11.69 -29.13,7.77 -57.31,20.42 -84.54,37.93 -27.22,17.51 -54.15,40.54 -80.74,69.08 -26.6,28.53 -53.85,64.21 -81.71,107.01 -15.19,23.34 -29.45,51.23 -42.75,83.66 -13.29,32.43 -25.32,65.19 -36.09,98.26 -10.76,33.07 -19.01,64.85 -24.7,95.34 -5.69,30.5 -8.55,55.45 -8.55,74.91 0,41.51 7.91,69.72 23.75,84.64 15.83,14.91 32.62,22.37 50.35,22.37 43.06,0 91.81,-21.71 146.28,-65.18 54.46,-43.47 103.86,-113.83 148.2,-211.11 19,-41.5 33.87,-80.1 44.65,-115.77 10.76,-35.67 22.47,-68.42 35.14,-98.25 3.8,-10.39 9.81,-23.35 18.05,-38.92 8.23,-15.56 17.73,-30.16 28.5,-43.78 10.76,-13.62 21.53,-25.28 32.29,-35.02 10.76,-9.73 21.22,-14.6 31.34,-14.6zm934.74 -661.54c-12.66,28.53 -25.33,57.72 -37.99,87.56 -10.14,25.94 -21.22,53.18 -33.25,81.72 -12.03,28.54 -22.49,55.13 -31.35,79.78 -10.12,27.24 -18.67,50.59 -25.64,70.04 -6.97,19.47 -13.63,38.6 -19.96,57.4 -6.33,18.82 -13.31,38.28 -20.9,58.38 -7.6,20.1 -16.45,43.78 -26.6,71.03 -48.13,133.6 -91.5,244.19 -130.14,331.74 -38.63,87.55 -68.71,150.14 -90.25,187.76 -22.79,40.21 -44.95,60.31 -66.48,60.31 -22.8,0 -32.94,-10.37 -30.41,-31.13 0,-5.19 6.34,-26.59 19,-64.21 12.67,-37.61 28.5,-83.98 47.5,-139.12 19,-55.13 40.22,-116.09 63.64,-182.9 23.45,-66.81 46.57,-131.66 69.35,-194.56 22.8,-62.92 43.39,-120.64 61.75,-173.18 18.37,-52.53 32.62,-93.07 42.75,-121.6 17.73,-49.29 32.62,-85.94 44.64,-109.94 12.04,-24.01 23.75,-41.18 35.16,-51.57 7.59,-6.49 14.87,-12.31 21.84,-17.5 6.97,-5.2 19.96,-9.72 38.95,-13.63 7.6,-1.28 16.15,-1.94 25.66,-1.94 9.49,0 19.94,-0.65 31.34,-1.94 5.06,0 8.86,5.83 11.39,17.51zm-461.67 1295.85c-3.8,31.13 -15.83,59.35 -36.09,84.64 -20.27,25.29 -50.03,37.94 -89.3,37.94 -26.6,0 -44.64,-5.51 -54.15,-16.54 -9.5,-11.02 -12.35,-32.75 -8.55,-65.18 6.33,-41.51 18.67,-73.94 37.05,-97.29 18.36,-23.34 50.34,-35.02 95.94,-35.02 27.87,0 44.97,7.79 51.3,23.35 6.34,15.57 7.59,38.25 3.8,68.09z"/>
   <path class="fil1" d="M26544.15 3377.01c-30.41,-19.44 -52.88,-44.09 -67.44,-73.94 -14.58,-29.81 -24.39,-60.63 -29.45,-92.41 -5.07,-31.77 -6.66,-62.59 -4.77,-92.42 1.91,-29.83 4.13,-55.12 6.66,-75.88l-5.7 0c-3.81,11.68 -8.55,27.89 -14.25,48.63 -5.69,20.76 -9.81,53.2 -12.33,97.3 -2.53,40.21 0.31,72.63 8.54,97.28 8.23,24.65 18.69,43.78 31.34,57.4 12.68,13.63 25.65,22.7 38.96,27.25 13.29,4.54 23.12,6.8 29.45,6.8l19 0zm-265.97 -184.84c-10.14,10.37 -24.07,23.03 -41.8,37.95 -17.73,14.91 -36.72,30.16 -56.99,45.72 -20.27,15.57 -40.85,30.8 -61.74,45.72 -20.91,14.91 -38.96,27.57 -54.16,37.94 -68.4,45.41 -120.63,75.56 -156.74,90.47 -36.09,14.94 -63.65,22.39 -82.63,22.39 -13.94,0 -24.7,-2.28 -32.3,-6.82 -7.6,-4.54 -12.98,-10.06 -16.14,-16.54 -3.17,-6.49 -4.77,-14.25 -4.77,-23.34 0,-9.07 0,-18.81 0,-29.18 0,-6.49 2.54,-19.48 7.61,-38.92 5.06,-19.46 11.71,-42.47 19.95,-69.07 8.23,-26.6 17.73,-55.45 28.5,-86.59 10.76,-31.13 21.22,-61.63 31.34,-91.44 25.34,-75.26 47.18,-140.43 65.56,-195.55 18.35,-55.14 27.54,-96.32 27.54,-123.56 0,-6.5 -1.26,-14.59 -3.8,-24.32 -2.54,-9.73 -10.77,-14.59 -24.69,-14.59 -7.61,0 -15.53,0.97 -23.75,2.91 -8.24,1.94 -18.05,6.16 -29.45,12.65 -11.41,6.49 -25.33,16.22 -41.8,29.19 -16.46,12.97 -36.73,29.84 -60.8,50.58 -7.6,1.31 -13.93,-1.94 -18.99,-9.71 -2.53,-3.91 -3.82,-7.14 -3.82,-9.73 53.21,-50.59 98.16,-90.48 134.91,-119.67 36.72,-29.18 67.44,-51.55 92.14,-67.12 24.68,-15.56 44.65,-25.62 59.84,-30.16 15.2,-4.53 27.86,-6.82 37.99,-6.82 5.08,0 10.78,0.33 17.11,0.98 6.34,0.65 12.03,3.25 17.1,7.78 5.06,4.54 9.18,11.69 12.36,21.4 3.16,9.73 4.74,23.68 4.74,41.84 0,28.54 -9.19,71.35 -27.55,128.41 -18.37,57.08 -40.85,125.18 -67.45,204.31 -5.06,14.28 -12.67,35.67 -22.79,64.21 -10.12,28.53 -19.95,57.72 -29.45,87.56 -9.51,29.84 -17.74,58.05 -24.7,84.64 -6.98,26.59 -10.45,45.07 -10.45,55.44 0,16.88 3.16,28.88 9.5,36.01 6.33,7.13 14.57,10.69 24.7,10.69 20.27,0 43.05,-6.49 68.4,-19.46 25.33,-12.97 51.29,-28.85 77.89,-47.66 26.6,-18.82 52.24,-38.59 76.94,-59.35 24.7,-20.76 46.55,-38.26 65.53,-52.53l17.11 23.34zm919.54 25.3c-81.06,59.66 -159.91,108.3 -236.53,145.91 -76.63,37.63 -162.44,56.44 -257.45,56.44 -26.6,0 -47.5,-2.6 -62.69,-7.78 -59.54,32.43 -122.23,48.65 -188.1,48.65 -22.79,0 -44.96,-3.57 -66.49,-10.72 -21.54,-7.13 -40.84,-19.13 -57.94,-35.99 -17.11,-16.87 -30.72,-38.92 -40.85,-66.16 -10.14,-27.24 -15.19,-60.32 -15.19,-99.22 0,-36.33 3.16,-70.05 9.49,-101.19 6.34,-31.13 15.2,-66.15 26.6,-105.07 8.86,-31.13 19.32,-61.94 31.34,-92.42 12.04,-30.47 24.4,-59.03 37.06,-85.61 12.66,-26.59 25.65,-50.59 38.96,-71.99 13.28,-21.41 25.63,-37.94 37.04,-49.62 8.86,-9.09 20.27,-17.18 34.19,-24.32 13.94,-7.13 29.78,-10.7 47.51,-10.7 12.67,0 21.84,1.94 27.54,5.84 5.72,3.9 10.46,7.79 14.25,11.68l5.7 0c20.27,-19.46 41.17,-38.59 62.7,-57.41 21.53,-18.8 44.65,-35.66 69.35,-50.58 24.68,-14.91 51.61,-27.25 80.74,-36.97 29.13,-9.73 62.71,-14.59 100.69,-14.59 48.13,0 88.35,15.88 120.64,47.66 32.3,31.79 48.46,85.94 48.46,162.48 0,46.69 -8.86,97.93 -26.6,153.7 -17.74,55.78 -42.44,110.58 -74.1,164.42 -31.68,53.84 -68.4,104.1 -110.2,150.79 -41.8,46.7 -87.39,84.97 -136.78,114.79 1.26,1.31 7.6,2.91 18.99,4.88 11.41,1.94 27.25,2.91 47.52,2.91 54.46,0 116.2,-15.25 185.23,-45.73 69.03,-30.48 139.65,-72.96 211.83,-127.45l17.11 23.36zm-284.98 -377.47c0,-46.69 -9.5,-85.3 -28.51,-115.77 -18.99,-30.48 -52.56,-45.72 -100.67,-45.72 -13.94,0 -34.52,3.88 -61.76,11.68 -27.22,7.77 -51.61,20.75 -73.15,38.9 -12.67,10.39 -26.59,25.95 -41.79,46.71 -15.21,20.74 -29.77,46.04 -43.69,75.88 -13.94,29.83 -26.3,64.53 -37.06,104.09 -10.76,39.57 -18.05,83.35 -21.84,131.34 0,11.68 0.31,30.16 0.95,55.47 0.63,25.29 5.38,51.88 14.25,79.77 8.86,27.89 23.43,53.84 43.7,77.82 20.25,24.01 50.03,39.25 89.29,45.73 40.53,-20.75 76.94,-50.91 109.25,-90.48 32.29,-39.56 59.53,-83.02 81.7,-130.35 22.16,-47.35 39.27,-96.32 51.29,-146.91 12.04,-50.59 18.05,-96.64 18.05,-138.14zm-7151.17 377.47c-81.07,59.66 -159.92,108.3 -236.54,145.91 -76.63,37.63 -162.44,56.44 -257.45,56.44 -26.6,0 -47.48,-2.6 -62.69,-7.78 -59.54,32.43 -122.23,48.65 -188.1,48.65 -22.79,0 -44.95,-3.57 -66.48,-10.72 -21.54,-7.13 -40.85,-19.13 -57.95,-35.99 -17.11,-16.87 -30.72,-38.92 -40.84,-66.16 -10.15,-27.24 -15.2,-60.32 -15.2,-99.22 0,-36.33 3.16,-70.05 9.49,-101.19 6.35,-31.13 15.2,-66.15 26.6,-105.07 8.87,-31.13 19.32,-61.94 31.35,-92.42 12.03,-30.47 24.39,-59.03 37.05,-85.61 12.67,-26.59 25.65,-50.59 38.96,-71.99 13.28,-21.41 25.64,-37.94 37.04,-49.62 8.87,-9.09 20.27,-17.18 34.2,-24.32 13.93,-7.13 29.77,-10.7 47.51,-10.7 12.66,0 21.83,1.94 27.54,5.84 5.7,3.9 10.45,7.79 14.24,11.68l5.72 0c20.26,-19.46 41.16,-38.59 62.69,-57.41 21.53,-18.8 44.65,-35.66 69.35,-50.58 24.69,-14.91 51.61,-27.25 80.74,-36.97 29.13,-9.73 62.71,-14.59 100.69,-14.59 48.13,0 88.35,15.88 120.64,47.66 32.31,31.79 48.46,85.94 48.46,162.48 0,46.69 -8.86,97.93 -26.6,153.7 -17.74,55.78 -42.44,110.58 -74.1,164.42 -31.67,53.84 -68.4,104.1 -110.2,150.79 -41.79,46.7 -87.39,84.97 -136.78,114.79 1.26,1.31 7.6,2.91 19,4.88 11.4,1.94 27.24,2.91 47.51,2.91 54.46,0 116.2,-15.25 185.23,-45.73 69.03,-30.48 139.65,-72.96 211.84,-127.45l17.11 23.36zm-284.99 -377.47c0,-46.69 -9.49,-85.3 -28.5,-115.77 -19,-30.48 -52.57,-45.72 -100.68,-45.72 -13.94,0 -34.52,3.88 -61.76,11.68 -27.22,7.77 -51.61,20.75 -73.15,38.9 -12.66,10.39 -26.59,25.95 -41.78,46.71 -15.21,20.74 -29.78,46.04 -43.7,75.88 -13.94,29.83 -26.29,64.53 -37.06,104.09 -10.76,39.57 -18.04,83.35 -21.84,131.34 0,11.68 0.31,30.16 0.95,55.47 0.63,25.29 5.39,51.88 14.25,79.77 8.86,27.89 23.43,53.84 43.7,77.82 20.25,24.01 50.03,39.25 89.29,45.73 40.53,-20.75 76.95,-50.91 109.25,-90.48 32.29,-39.56 59.53,-83.02 81.7,-130.35 22.16,-47.35 39.27,-96.32 51.29,-146.91 12.04,-50.59 18.05,-96.64 18.05,-138.14zm-368.58 537.01c-30.39,-19.44 -52.88,-44.09 -67.44,-73.94 -14.57,-29.81 -24.39,-60.63 -29.45,-92.41 -5.07,-31.77 -6.65,-62.59 -4.76,-92.42 1.9,-29.83 4.12,-55.12 6.65,-75.88l-5.7 0c-3.8,11.68 -8.54,27.89 -14.25,48.63 -5.69,20.76 -9.81,53.2 -12.33,97.3 -2.53,40.21 0.31,72.63 8.54,97.28 8.23,24.65 18.69,43.78 31.34,57.4 12.68,13.63 25.65,22.7 38.96,27.25 13.31,4.54 23.12,6.8 29.45,6.8l19 0zm1371.73 -173.16c0,5.2 -18.05,21.4 -54.16,48.65 -36.09,27.24 -82.32,56.43 -138.68,87.56 -56.36,31.13 -118.43,59.03 -186.2,83.66 -67.75,24.65 -133.3,36.98 -196.63,36.98 -62.06,0 -111.14,-17.51 -147.24,-52.55 -36.1,-35.02 -54.15,-93.38 -54.15,-175.1 0,-35.02 5.38,-72.97 16.15,-113.83 10.76,-40.84 26.29,-82.69 46.55,-125.5 20.27,-42.81 45.29,-85.61 75.04,-128.42 29.77,-42.8 63.01,-83.66 99.75,-122.57 32.93,-35.03 67.77,-65.83 104.49,-92.42 36.72,-26.59 72.52,-49.29 107.36,-68.09 34.83,-18.82 66.79,-32.76 95.93,-41.84 29.14,-9.09 53.21,-13.63 72.2,-13.63 21.53,0 41.17,3.57 58.9,10.7 17.73,7.14 26.6,28.22 26.6,63.23 0,18.16 -4.43,42.81 -13.31,73.94 -8.86,31.13 -25.96,57.72 -51.3,79.78 -21.53,18.16 -41.48,30.16 -59.84,35.99 -18.36,5.85 -31.99,8.76 -40.84,8.76 -6.34,0 -11.4,-3.88 -15.19,-11.68l18.99 -42.81c10.12,-23.34 15.84,-40.53 17.1,-51.56 1.26,-11.03 1.9,-19.79 1.9,-26.28 0,-14.25 -2.85,-24.65 -8.54,-31.13 -5.72,-6.47 -16.16,-9.71 -31.37,-9.71 -40.52,0 -81.37,15.88 -122.54,47.66 -41.16,31.79 -78.53,72.97 -112.09,123.56 -33.56,50.58 -61.11,107.33 -82.65,170.25 -21.52,62.91 -32.29,125.51 -32.29,187.77 0,22.05 1.26,45.72 3.8,71 2.53,25.3 8.54,48.32 18.05,69.08 9.5,20.76 23.43,37.93 41.8,51.56 18.37,13.62 43.39,20.44 75.04,20.44 36.72,0 74.1,-5.19 112.09,-15.57 38,-10.38 68.39,-20.75 91.2,-31.13 35.47,-15.56 67.77,-31.78 96.89,-48.65 29.13,-16.87 54.15,-32.1 75.06,-45.73 20.9,-13.62 37.04,-24.96 48.44,-34.04 11.41,-9.07 18.36,-13.62 20.9,-13.62 5.07,0 10.45,0.65 16.14,1.94 5.72,1.31 7.93,9.07 6.66,23.35zm731.46 0c0,5.2 -18.05,21.4 -54.16,48.65 -36.09,27.24 -82.32,56.43 -138.68,87.56 -56.37,31.13 -118.43,59.03 -186.2,83.66 -67.77,24.65 -133.3,36.98 -196.63,36.98 -62.06,0 -111.14,-17.51 -147.24,-52.55 -36.1,-35.02 -54.15,-93.38 -54.15,-175.1 0,-35.02 5.38,-72.97 16.15,-113.83 10.76,-40.84 26.29,-82.69 46.54,-125.5 20.27,-42.81 45.29,-85.61 75.04,-128.42 29.78,-42.8 63.02,-83.66 99.76,-122.57 32.93,-35.03 67.75,-65.83 104.49,-92.42 36.72,-26.59 72.52,-49.29 107.35,-68.09 34.84,-18.82 66.81,-32.76 95.94,-41.84 29.13,-9.09 53.2,-13.63 72.2,-13.63 21.53,0 41.17,3.57 58.89,10.7 17.74,7.14 26.61,28.22 26.61,63.23 0,18.16 -4.44,42.81 -13.31,73.94 -8.86,31.13 -25.96,57.72 -51.3,79.78 -21.53,18.16 -41.48,30.16 -59.85,35.99 -18.35,5.85 -31.98,8.76 -40.83,8.76 -6.35,0 -11.41,-3.88 -15.2,-11.68l19 -42.81c10.12,-23.34 15.84,-40.53 17.1,-51.56 1.26,-11.03 1.9,-19.79 1.9,-26.28 0,-14.25 -2.85,-24.65 -8.55,-31.13 -5.7,-6.47 -16.15,-9.71 -31.35,-9.71 -40.53,0 -81.37,15.88 -122.54,47.66 -41.17,31.79 -78.53,72.97 -112.1,123.56 -33.55,50.58 -61.1,107.33 -82.63,170.25 -21.53,62.91 -32.29,125.51 -32.29,187.77 0,22.05 1.26,45.72 3.8,71 2.53,25.3 8.54,48.32 18.05,69.08 9.5,20.76 23.43,37.93 41.79,51.56 18.37,13.62 43.39,20.44 75.04,20.44 36.73,0 74.1,-5.19 112.1,-15.57 37.99,-10.38 68.39,-20.75 91.2,-31.13 35.46,-15.56 67.77,-31.78 96.89,-48.65 29.13,-16.87 54.15,-32.1 75.06,-45.73 20.9,-13.62 37.04,-24.96 48.44,-34.04 11.4,-9.07 18.35,-13.62 20.88,-13.62 5.08,0 10.46,0.65 16.15,1.94 5.7,1.31 7.91,9.07 6.66,23.35zm951.84 5.84c-21.53,18.16 -52.89,40.21 -94.05,66.16 -41.16,25.94 -88.34,55.78 -141.53,89.51 -68.4,41.5 -124.76,70.69 -169.1,87.55 -44.33,16.87 -77.25,25.29 -98.79,25.29 -16.48,0 -26.6,-4.54 -30.39,-13.62 -3.82,-9.09 -5.72,-18.8 -5.72,-29.19 0,-12.97 2.53,-31.44 7.61,-55.44 5.06,-24.01 11.71,-50.6 19.94,-79.79 8.24,-29.19 17.1,-59.99 26.61,-92.41 9.49,-32.43 18.67,-64.21 27.55,-95.34 6.33,-23.36 12.35,-44.44 18.04,-63.23 5.69,-18.82 10.46,-35.35 14.25,-49.63 5.07,-15.57 9.5,-29.83 13.29,-42.8 -44.33,46.69 -91.82,94.68 -142.49,143.97 -43.06,41.51 -91.83,88.22 -146.29,140.1 -54.47,51.88 -111.47,101.83 -170.98,149.82 -25.34,20.76 -46.87,34.69 -64.61,41.84 -17.74,7.13 -30.39,10.7 -37.99,10.7 -25.34,0 -38.01,-18.16 -38.01,-54.48 0,-9.09 0.64,-18.81 1.9,-29.19 1.27,-10.37 4.12,-23.34 8.56,-38.91 4.43,-15.56 10.44,-34.69 18.04,-57.4 7.59,-22.7 18.37,-51.57 32.3,-86.59l102.59 -266.58c18.99,-49.29 34.83,-92.41 47.5,-129.38 12.67,-36.97 24.07,-66.48 34.2,-88.53 10.12,-22.06 22.48,-40.87 37.04,-56.44 14.57,-15.56 29.78,-28.21 45.6,-37.93 15.84,-9.73 31.04,-16.87 45.6,-21.41 14.58,-4.54 26.29,-6.81 35.16,-6.81 8.86,0 13.29,7.14 13.29,21.4 -1.27,10.39 -3.48,25.3 -6.65,44.75 -3.16,19.48 -11.72,46.07 -25.65,79.79l-115.89 305.48c-3.81,11.68 -9.5,26.91 -17.11,45.72 -7.59,18.81 -15.19,37.94 -22.78,57.41 -7.61,19.46 -13.94,36.65 -19,51.56 -5.07,14.91 -7.61,24.32 -7.61,28.21 0,5.2 0.31,10.37 0.95,15.57 0.65,5.19 5.39,7.77 14.25,7.77 13.94,0 34.19,-9.71 60.79,-29.17 26.61,-19.47 56.37,-44.75 89.3,-75.9 29.13,-27.22 55.1,-51.55 77.9,-72.95 22.79,-21.41 44.33,-42.81 64.6,-64.23 20.27,-21.39 40.22,-44.09 59.84,-68.09 19.63,-23.99 40.85,-52.86 63.65,-86.59 7.6,-14.27 14.89,-30.81 21.86,-49.62 6.97,-18.81 14.24,-38.26 21.84,-58.37 7.6,-20.11 16.46,-39.56 26.6,-58.38 10.12,-18.8 21.53,-35.35 34.19,-49.61 22.8,-23.36 44.65,-38.92 65.56,-46.7 20.9,-7.79 38.31,-11.68 52.24,-11.68 6.34,0 12.98,2.27 19.96,6.8 6.97,4.54 10.44,13.96 10.44,28.22 0,18.16 -6.64,43.47 -19.95,75.88 -13.29,32.44 -38.31,74.6 -75.04,126.49 -11.4,25.93 -23.12,58.37 -35.14,97.28 -12.04,38.91 -23.75,77.19 -35.16,114.8 -3.8,14.25 -10.76,37.61 -20.88,70.03 -10.14,32.44 -19.95,65.51 -29.45,99.24 -9.51,33.72 -18.05,64.53 -25.66,92.41 -7.59,27.89 -11.4,44.44 -11.4,49.62 0,22.07 6.97,33.08 20.91,33.08 24.07,0 49.39,-4.87 75.99,-14.59 26.6,-9.73 54.46,-22.38 83.59,-37.95 29.12,-15.56 58.58,-33.07 88.35,-52.53 29.76,-19.47 59.2,-38.92 88.35,-58.37l17.09 23.34zm417.97 -815.26c0,-5.18 1.27,-12 3.8,-20.43 2.53,-8.43 5.07,-15.88 7.61,-22.39 7.59,-18.14 18.36,-37.93 32.29,-59.34 13.94,-21.4 31.67,-32.1 53.2,-32.1 7.59,0 13.31,4.22 17.1,12.65 3.8,8.43 10.76,17.51 20.88,27.25 10.15,9.73 24.71,18.81 43.7,27.24 19.01,8.43 47.51,12.66 85.5,12.66 22.8,0 46.55,-5.2 71.25,-15.57 24.7,-10.38 48.13,-23.68 70.3,-39.89 22.17,-16.22 41.47,-35.35 57.94,-57.4 16.46,-22.06 28.5,-44.75 36.09,-68.09 7.61,-23.36 23.43,-35.04 47.5,-35.04 15.2,0 22.17,10.39 20.91,31.13 0,10.38 -6.97,28.22 -20.91,53.51 -13.92,25.3 -34.19,50.92 -60.79,76.85 -36.73,33.73 -72.2,60.98 -106.4,81.72 -34.19,20.76 -67.12,36.66 -98.8,47.69 -31.66,11.02 -62.05,18.47 -91.18,22.37 -29.14,3.88 -55.72,5.83 -79.79,5.83 -30.41,0 -56.69,-4.52 -78.86,-13.61 -22.17,-9.07 -32.6,-20.76 -31.34,-35.03zm516.77 815.26c-21.53,18.16 -52.88,40.21 -94.04,66.16 -41.16,25.94 -88.34,55.78 -141.55,89.51 -68.38,41.5 -124.76,70.69 -169.07,87.55 -44.34,16.87 -77.28,25.29 -98.8,25.29 -16.46,0 -26.61,-4.54 -30.41,-13.62 -3.8,-9.09 -5.69,-18.8 -5.69,-29.19 0,-12.97 2.52,-31.44 7.59,-55.44 5.08,-24.01 11.72,-50.6 19.96,-79.79 8.24,-29.19 17.1,-59.99 26.59,-92.41 9.51,-32.43 18.69,-64.21 27.55,-95.34 6.34,-23.36 12.36,-44.44 18.05,-63.23 5.72,-18.82 10.46,-35.35 14.25,-49.63 5.07,-15.57 9.5,-29.83 13.29,-42.8 -44.31,46.69 -91.83,94.68 -142.48,143.97 -43.08,41.51 -91.83,88.22 -146.29,140.1 -54.46,51.88 -111.47,101.83 -170.99,149.82 -25.33,20.76 -46.86,34.69 -64.6,41.84 -17.74,7.13 -30.39,10.7 -38.01,10.7 -25.32,0 -37.99,-18.16 -37.99,-54.48 0,-9.09 0.63,-18.81 1.9,-29.19 1.26,-10.37 4.11,-23.34 8.54,-38.91 4.44,-15.56 10.46,-34.69 18.05,-57.4 7.6,-22.7 18.37,-51.57 32.31,-86.59l102.59 -266.58c18.99,-49.29 34.83,-92.41 47.5,-129.38 12.66,-36.97 24.07,-66.48 34.19,-88.53 10.14,-22.06 22.48,-40.87 37.06,-56.44 14.56,-15.56 29.76,-28.21 45.59,-37.93 15.84,-9.73 31.04,-16.87 45.6,-21.41 14.57,-4.54 26.28,-6.81 35.14,-6.81 8.87,0 13.31,7.14 13.31,21.4 -1.26,10.39 -3.48,25.3 -6.64,44.75 -3.17,19.48 -11.72,46.07 -25.65,79.79l-115.9 305.48c-3.8,11.68 -9.5,26.91 -17.1,45.72 -7.6,18.81 -15.19,37.94 -22.8,57.41 -7.59,19.46 -13.92,36.65 -18.99,51.56 -5.08,14.91 -7.59,24.32 -7.59,28.21 0,5.2 0.3,10.37 0.95,15.57 0.61,5.19 5.38,7.77 14.24,7.77 13.92,0 34.19,-9.71 60.8,-29.17 26.6,-19.47 56.36,-44.75 89.29,-75.9 29.12,-27.22 55.1,-51.55 77.89,-72.95 22.8,-21.41 44.34,-42.81 64.6,-64.23 20.27,-21.39 40.23,-44.09 59.85,-68.09 19.63,-23.99 40.84,-52.86 63.65,-86.59 7.59,-14.27 14.89,-30.81 21.84,-49.62 6.97,-18.81 14.24,-38.26 21.86,-58.37 7.59,-20.11 16.45,-39.56 26.6,-58.38 10.12,-18.8 21.53,-35.35 34.19,-49.61 22.8,-23.36 44.65,-38.92 65.54,-46.7 20.91,-7.79 38.31,-11.68 52.25,-11.68 6.33,0 12.97,2.27 19.95,6.8 6.97,4.54 10.45,13.96 10.45,28.22 0,18.16 -6.64,43.47 -19.95,75.88 -13.29,32.44 -38.31,74.6 -75.04,126.49 -11.4,25.93 -23.12,58.37 -35.15,97.28 -12.03,38.91 -23.74,77.19 -35.15,114.8 -3.8,14.25 -10.76,37.61 -20.91,70.03 -10.12,32.44 -19.94,65.51 -29.45,99.24 -9.49,33.72 -18.04,64.53 -25.64,92.41 -7.6,27.89 -11.4,44.44 -11.4,49.62 0,22.07 6.97,33.08 20.9,33.08 24.07,0 49.4,-4.87 75.99,-14.59 26.6,-9.73 54.46,-22.38 83.59,-37.95 29.13,-15.56 58.59,-33.07 88.35,-52.53 29.76,-19.47 59.2,-38.92 88.34,-58.37l17.1 23.34zm727.67 -5.84c0,5.2 -18.05,21.4 -54.16,48.65 -36.09,27.24 -82.32,56.43 -138.68,87.56 -56.36,31.13 -118.43,59.03 -186.2,83.66 -67.77,24.65 -133.3,36.98 -196.63,36.98 -62.06,0 -111.14,-17.51 -147.24,-52.55 -36.1,-35.02 -54.15,-93.38 -54.15,-175.1 0,-35.02 5.38,-72.97 16.15,-113.83 10.76,-40.84 26.29,-82.69 46.55,-125.5 20.26,-42.81 45.27,-85.61 75.04,-128.42 29.77,-42.8 63.01,-83.66 99.75,-122.57 32.93,-35.03 67.75,-65.83 104.49,-92.42 36.72,-26.59 72.52,-49.29 107.35,-68.09 34.84,-18.82 66.81,-32.76 95.94,-41.84 29.13,-9.09 53.2,-13.63 72.2,-13.63 21.53,0 41.17,3.57 58.89,10.7 17.74,7.14 26.61,28.22 26.61,63.23 0,18.16 -4.44,42.81 -13.31,73.94 -8.86,31.13 -25.96,57.72 -51.3,79.78 -21.53,18.16 -41.48,30.16 -59.85,35.99 -18.35,5.85 -31.98,8.76 -40.83,8.76 -6.35,0 -11.41,-3.88 -15.2,-11.68l19 -42.81c10.12,-23.34 15.84,-40.53 17.1,-51.56 1.26,-11.03 1.9,-19.79 1.9,-26.28 0,-14.25 -2.85,-24.65 -8.54,-31.13 -5.72,-6.47 -16.16,-9.71 -31.37,-9.71 -40.52,0 -81.37,15.88 -122.54,47.66 -41.16,31.79 -78.53,72.97 -112.09,123.56 -33.56,50.58 -61.11,107.33 -82.65,170.25 -21.52,62.91 -32.29,125.51 -32.29,187.77 0,22.05 1.26,45.72 3.8,71 2.53,25.3 8.54,48.32 18.05,69.08 9.5,20.76 23.43,37.93 41.8,51.56 18.36,13.62 43.38,20.44 75.04,20.44 36.72,0 74.1,-5.19 112.09,-15.57 38,-10.38 68.39,-20.75 91.2,-31.13 35.46,-15.56 67.77,-31.78 96.89,-48.65 29.13,-16.87 54.15,-32.1 75.06,-45.73 20.9,-13.62 37.04,-24.96 48.44,-34.04 11.4,-9.07 18.35,-13.62 20.9,-13.62 5.07,0 10.45,0.65 16.14,1.94 5.72,1.31 7.93,9.07 6.66,23.35zm967.04 73.94c-34.21,29.83 -70.3,58.38 -108.31,85.6 -37.99,27.25 -76.31,51.89 -114.93,73.94 -38.64,22.07 -77.27,39.58 -115.9,52.54 -38.64,12.97 -75.04,19.46 -109.25,19.46 -24.07,0 -47.18,-2.91 -69.34,-8.75 -22.17,-5.84 -43.08,-16.87 -62.71,-33.08 -19.63,-16.21 -37.67,-39.24 -54.14,-69.06 -16.48,-29.85 -30.39,-68.75 -41.79,-116.75 -17.74,-76.54 -30.09,-134.58 -37.06,-174.14 -6.95,-39.57 -13.62,-71.03 -19.95,-94.38 -10.12,14.28 -19.95,28.22 -29.45,41.84 -9.51,13.62 -19.32,32.76 -29.45,57.41 -8.87,19.44 -17.1,39.24 -24.7,59.34 -7.59,20.11 -14.57,37.94 -20.9,53.5 -7.61,18.16 -14.57,35.67 -20.91,52.54 -11.39,29.83 -20.58,52.22 -27.54,67.13 -6.97,14.92 -14.89,26.92 -23.75,36 -10.12,10.37 -26.28,21.07 -48.44,32.1 -22.17,11.03 -40.85,16.54 -56.05,16.54 -15.2,0 -25.65,-1.94 -31.34,-5.85 -5.72,-3.88 -8.56,-11.03 -8.56,-21.4 0,-6.49 3.17,-18.82 9.51,-36.96 6.33,-18.16 17.09,-48.01 32.29,-89.51 7.6,-19.47 14.24,-37.62 19.95,-54.48 5.7,-16.86 11.4,-33.73 17.1,-50.59 5.7,-16.87 11.72,-34.38 18.05,-52.54 6.33,-18.16 13.31,-38.26 20.9,-60.32 30.39,-85.59 56.99,-161.48 79.8,-227.64 22.79,-66.15 39.27,-112.85 49.39,-140.09 8.87,-24.65 16.46,-45.73 22.8,-63.23 6.33,-17.52 14.57,-31.47 24.69,-41.84 7.6,-9.09 17.42,-17.19 29.45,-24.33 12.04,-7.13 24.7,-12.97 38.01,-17.5 13.29,-4.54 26.28,-8.11 38.93,-10.7 12.68,-2.59 23.44,-3.9 32.31,-3.9 8.86,0 13.29,7.14 13.29,21.42 0,9.07 -4.43,25.28 -13.29,48.63 -8.87,23.34 -17.74,45.39 -26.6,66.15 -21.53,54.48 -41.17,105.39 -58.9,152.74 -17.73,47.34 -33.56,91.78 -47.5,133.28l9.5 1.94c22.8,-24.65 43.69,-47.66 62.69,-69.06 19.01,-21.41 38.96,-42.81 59.86,-64.22 20.9,-21.4 44,-43.45 69.33,-66.15 25.35,-22.7 55.11,-48.32 89.3,-76.86 25.34,-20.75 51.94,-39.56 79.8,-56.43 27.86,-16.86 55.73,-31.13 83.59,-42.81 27.87,-11.66 54.78,-20.43 80.75,-26.25 25.96,-5.85 49.08,-8.76 69.35,-8.76 5.06,0 11.39,0.31 19,0.97 7.59,0.65 14.88,2.59 21.83,5.84 6.98,3.24 12.99,8.1 18.06,14.59 5.06,6.5 7.59,15.57 7.59,27.24 0,22.06 -14.24,51.89 -42.74,89.51 -28.5,37.61 -78.84,79.13 -151.04,124.51l-11.41 -17.5c24.07,-18.16 40.54,-39.56 49.4,-64.21 8.85,-24.65 13.29,-43.47 13.29,-56.44 0,-18.16 -12.67,-27.24 -38,-27.24 -21.53,0 -50.67,7.47 -87.39,22.38 -36.73,14.91 -75.99,39.24 -117.8,72.97 -27.86,22.05 -52.25,42.81 -73.15,62.26 -20.9,19.46 -38.32,36.96 -52.25,52.53 -16.46,18.16 -31.02,35.03 -43.7,50.6l11.4 0c2.54,0 5.72,-0.33 9.51,-0.97 3.8,-0.66 6.97,-0.98 9.5,-0.98 6.34,0 12.98,2.27 19.95,6.81 6.97,4.54 11.72,14.59 14.25,30.16 6.33,36.32 13.61,78.16 21.83,125.5 8.25,47.34 17.42,91.78 27.56,133.28 13.93,64.86 34.83,116.1 62.69,153.72 27.87,37.63 65.87,56.43 114,56.43 34.2,0 67.12,-5.51 98.8,-16.53 31.66,-11.03 61.74,-24.97 90.24,-41.84 28.51,-16.87 54.78,-34.37 78.85,-52.53 24.07,-18.16 44.97,-35.02 62.7,-50.6l17.1 35.03zm902.44 -60.31c-81.06,59.66 -159.91,108.3 -236.53,145.91 -76.63,37.63 -162.44,56.44 -257.45,56.44 -26.6,0 -47.5,-2.6 -62.69,-7.78 -59.54,32.43 -122.23,48.65 -188.1,48.65 -22.79,0 -44.96,-3.57 -66.48,-10.72 -21.55,-7.13 -40.85,-19.13 -57.95,-35.99 -17.11,-16.87 -30.72,-38.92 -40.85,-66.16 -10.14,-27.24 -15.19,-60.32 -15.19,-99.22 0,-36.33 3.16,-70.05 9.49,-101.19 6.35,-31.13 15.2,-66.15 26.6,-105.07 8.87,-31.13 19.32,-61.94 31.34,-92.42 12.04,-30.47 24.4,-59.03 37.06,-85.61 12.67,-26.59 25.65,-50.59 38.96,-71.99 13.28,-21.41 25.64,-37.94 37.04,-49.62 8.86,-9.09 20.27,-17.18 34.19,-24.32 13.94,-7.13 29.78,-10.7 47.52,-10.7 12.66,0 21.83,1.94 27.53,5.84 5.72,3.9 10.46,7.79 14.25,11.68l5.7 0c20.27,-19.46 41.17,-38.59 62.7,-57.41 21.53,-18.8 44.65,-35.66 69.35,-50.58 24.69,-14.91 51.61,-27.25 80.74,-36.97 29.13,-9.73 62.71,-14.59 100.69,-14.59 48.13,0 88.35,15.88 120.64,47.66 32.3,31.79 48.46,85.94 48.46,162.48 0,46.69 -8.86,97.93 -26.6,153.7 -17.74,55.78 -42.44,110.58 -74.1,164.42 -31.68,53.84 -68.4,104.1 -110.2,150.79 -41.79,46.7 -87.39,84.97 -136.78,114.79 1.26,1.31 7.6,2.91 19,4.88 11.4,1.94 27.24,2.91 47.51,2.91 54.46,0 116.2,-15.25 185.23,-45.73 69.03,-30.48 139.65,-72.96 211.83,-127.45l17.11 23.36zm-284.98 -377.47c0,-46.69 -9.5,-85.3 -28.51,-115.77 -18.99,-30.48 -52.56,-45.72 -100.67,-45.72 -13.94,0 -34.52,3.88 -61.76,11.68 -27.22,7.77 -51.61,20.75 -73.15,38.9 -12.67,10.39 -26.59,25.95 -41.78,46.71 -15.21,20.74 -29.78,46.04 -43.7,75.88 -13.94,29.83 -26.3,64.53 -37.06,104.09 -10.76,39.57 -18.05,83.35 -21.84,131.34 0,11.68 0.31,30.16 0.95,55.47 0.63,25.29 5.39,51.88 14.25,79.77 8.86,27.89 23.43,53.84 43.7,77.82 20.25,24.01 50.03,39.25 89.29,45.73 40.53,-20.75 76.94,-50.91 109.25,-90.48 32.29,-39.56 59.53,-83.02 81.7,-130.35 22.16,-47.35 39.27,-96.32 51.29,-146.91 12.04,-50.59 18.05,-96.64 18.05,-138.14zm-368.58 537.01c-30.39,-19.44 -52.88,-44.09 -67.44,-73.94 -14.58,-29.81 -24.39,-60.63 -29.45,-92.41 -5.07,-31.77 -6.65,-62.59 -4.76,-92.42 1.9,-29.83 4.12,-55.12 6.65,-75.88l-5.7 0c-3.8,11.68 -8.55,27.89 -14.25,48.63 -5.69,20.76 -9.81,53.2 -12.33,97.3 -2.53,40.21 0.31,72.63 8.54,97.28 8.23,24.65 18.69,43.78 31.34,57.4 12.68,13.63 25.65,22.7 38.96,27.25 13.29,4.54 23.12,6.8 29.45,6.8l19 0zm-6235.45 -653.75c0,60.97 -12.66,123.54 -37.99,187.75 -25.34,64.23 -56.68,125.51 -94.05,183.89 -37.36,58.38 -77.58,111.22 -120.64,158.57 -43.05,47.35 -82.96,84 -119.69,109.93 -32.93,23.36 -69.34,45.08 -109.23,65.2 -39.91,20.1 -79.48,30.15 -118.74,30.15 -25.34,0 -42.74,-5.19 -52.25,-15.56 -9.5,-10.39 -14.24,-22.05 -14.24,-35.04 0,-27.22 7.28,-56.41 21.83,-87.55 14.58,-31.12 33.26,-61.62 56.06,-91.44 22.8,-29.84 48.46,-59.35 76.95,-88.54 28.49,-29.18 57.31,-55.45 86.43,-78.81 51.95,-41.5 99.75,-76.2 143.45,-104.09 43.7,-27.89 83.27,-51.57 118.74,-71.03 6.33,-20.75 9.5,-38.92 9.5,-54.48 0,-15.56 0,-32.43 0,-50.59 0,-29.84 -3.17,-54.15 -9.5,-72.97 -6.33,-18.81 -14.88,-33.72 -25.65,-44.75 -10.77,-11.03 -22.79,-18.48 -36.1,-22.37 -13.29,-3.9 -27.55,-5.85 -42.74,-5.85 -29.14,0 -65.54,14.28 -109.25,42.82 -43.69,28.53 -94.05,73.94 -151.05,136.19 -12.66,29.85 -26.91,66.48 -42.73,109.94 -15.84,43.45 -32.94,91.44 -51.31,143.98 -18.37,52.53 -38,109.3 -58.89,170.25 -20.9,60.98 -42.12,123.24 -63.65,186.8 -20.26,58.37 -40.21,116.42 -59.84,174.14 -19.63,57.72 -38.01,112.86 -55.1,165.38 -17.1,52.54 -32.63,101.19 -46.55,145.94 -13.94,44.75 -25.34,83.34 -34.21,115.76 -1.26,6.5 -2.21,16.22 -2.85,29.19 -0.63,12.98 -2.21,25.95 -4.74,38.92 -2.53,11.68 -7.91,25.29 -16.14,40.87 -8.24,15.56 -23.12,32.42 -44.65,50.58 -27.86,22.06 -56.37,33.07 -85.5,33.07 -10.12,0 -18.99,-3.88 -26.6,-11.68 -7.59,-7.77 -11.4,-20.74 -11.4,-38.9 0,-11.69 2.53,-30.16 7.6,-55.47 5.07,-25.28 16.46,-60.63 34.19,-106.04 32.94,-93.39 66.5,-186.13 100.69,-278.23 29.14,-79.13 60.49,-164.42 94.04,-255.86 33.58,-91.45 64.92,-176.74 94.05,-255.86 16.46,-45.41 31.34,-86.91 44.65,-124.53 13.29,-37.63 25.96,-74.27 37.99,-109.95 12.04,-35.66 24.7,-72 38.01,-108.95 13.31,-36.96 27.55,-78.15 42.75,-123.56 13.93,-37.61 27.22,-76.22 39.89,-115.77 12.67,-39.56 24.07,-64.52 34.2,-74.91 18.99,-19.44 40.21,-34.69 63.64,-45.72 23.44,-11.03 38.32,-16.54 44.65,-16.54 5.07,0 9.2,0.32 12.36,0.97 3.17,0.66 4.74,4.23 4.74,10.72 0,3.88 -1.9,12.65 -5.7,26.26 -3.8,13.62 -8.54,30.48 -14.24,50.59 -5.69,20.1 -12.67,41.84 -20.9,65.18 -8.24,23.35 -16.14,45.41 -23.75,66.16l9.51 1.94c22.78,-23.35 49.08,-46.37 78.84,-69.07 29.76,-22.7 60.16,-43.13 91.18,-61.29 31.04,-18.16 61.12,-32.75 90.25,-43.78 29.13,-11.03 55.1,-16.54 77.9,-16.54 53.19,0 92.46,14.28 117.8,42.81 25.33,28.54 37.99,79.14 37.99,151.77zm-176.69 229.59c-10.12,3.91 -24.38,10.72 -42.74,20.45 -18.36,9.71 -38.32,21.39 -59.85,35.02 -21.53,13.62 -44.01,29.19 -67.43,46.69 -23.45,17.51 -44.65,35.99 -63.66,55.47 -16.46,16.86 -32.92,34.36 -49.39,52.52 -16.46,18.16 -31.03,36.98 -43.7,56.44 -12.66,19.44 -23.12,38.92 -31.34,58.37 -8.23,19.46 -12.36,39.56 -12.36,60.32 0,23.34 17.74,35.02 53.21,35.02 17.73,0 37.36,-4.86 58.89,-14.59 21.53,-9.72 43.7,-26.28 66.49,-49.62 13.93,-14.28 30.08,-33.07 48.46,-56.43 18.35,-23.34 36.72,-50.26 55.09,-80.75 18.37,-30.48 35.46,-64.21 51.3,-101.17 15.84,-36.97 28.17,-76.2 37.04,-117.73z"/>
  </g>
 </g>
</svg>