<?xml version="1.0" encoding="utf-8"?>
<svg xmlns="http://www.w3.org/2000/svg" viewBox="0 0 163 25">
  <defs>
    <style>.cls-1{fill:#e4004b;fill-rule:evenodd;}</style>
  </defs>
  <title>MENU_logo</title>
  <g data-name="Vrstva 2" id="Vrstva_2">
    <g data-name="Layer 1" id="Layer_1">
      <g data-name="Shape 2 copy 2" id="Shape_2_copy_2">
        <path class="cls-1" d="M38.7,14.8H49.3V9.1h-14Zm34.6,2.5L64,4.3a10.1,10.1,0,0,0-2.8-3A9.7,9.7,0,0,0,56.4,0H53.8V25h5.3V9.3l8.4,11.9a8.7,8.7,0,0,0,3.7,3.1c1.9.9,7.3.7,7.3.7V.1H73.3ZM48.3,0h-11s-5.2-.4-7.4,1.8a11.7,11.7,0,0,0-3.2,7.8c-.4,5.5.6,10.1,2,12.1a6.9,6.9,0,0,0,6,3.2H51.1V19.9h-9c-2.6,0-4.2,0-5-.3a3.6,3.6,0,0,1-2.3-3.1,35.6,35.6,0,0,1,0-8c.2-1.8.6-2.5,1.5-3s3.8-.6,4.8-.6h10ZM16.7,9.7H10.6A2.3,2.3,0,0,1,8.2,7.2,2.2,2.2,0,0,1,10.6,5H24.4L21.7,0H11C8.6,0,4.9-.3,2.2,2.2A7.4,7.4,0,0,0,1,11a6.1,6.1,0,0,0,4.4,3.3,17.1,17.1,0,0,0,4.2.4h3.8a2.7,2.7,0,0,1,2.9,1.7,2.4,2.4,0,0,1-.9,3.1,15.1,15.1,0,0,1-3.2.3H0V25H15.2s5.3.4,8-3.2A7.7,7.7,0,0,0,16.7,9.7ZM90.9,5.5c1.2-.7,3.7-.6,4.8-.6h10l-2.9-5H91.9s-5.3-.4-7.5,1.8a12,12,0,0,0-3.1,7.8c-.4,5.5.6,10.1,1.9,12.1a7.2,7.2,0,0,0,6,3.2h16.5V19.9H96.6a20.5,20.5,0,0,1-5.1-.3,3.7,3.7,0,0,1-2.2-3.1,53.4,53.4,0,0,1,0-8C89.6,6.7,90,6,90.9,5.5ZM159.4,19c-1.3-1.9-3.7-4.8-3.7-4.8a7.6,7.6,0,0,0,4.4-2.3,7.1,7.1,0,0,0,1.2-6.7A7.4,7.4,0,0,0,157.8.9c-1.4-.9-4.2-.8-4.2-.8H138.1V25h7V5.3h4.1c2.8,0,3.5.2,4.2,1a2.8,2.8,0,0,1,.3,3.5,3.5,3.5,0,0,1-2.2,1.4h-5.4s3.4,3.8,6.2,7.6,4,6.2,4,6.2H163S160.8,21,159.4,19ZM132.2,1.8C130.1-.4,124.9,0,124.9,0h-6.7s-5.1-.4-7.3,1.8a11.4,11.4,0,0,0-3,7.8c-.5,5.5.5,10.1,1.8,12.1a6.9,6.9,0,0,0,5.9,3.2h11.9a6.9,6.9,0,0,0,5.9-3.2c1.3-2,2.3-6.6,1.9-12.1A12,12,0,0,0,132.2,1.8Zm-4.8,14.7a3.4,3.4,0,0,1-2.1,3.1,12.9,12.9,0,0,1-2.5.3h-2.7a6.3,6.3,0,0,1-2.3-.3,3.7,3.7,0,0,1-2.2-3.1,53.4,53.4,0,0,1,0-8c.3-1.8.7-2.5,1.6-3a5.4,5.4,0,0,1,2.9-.6H123a5.4,5.4,0,0,1,2.9.6c.9.5,1.3,1.2,1.5,3A35.6,35.6,0,0,1,127.4,16.5Z"/>
      </g>
    </g>
  </g>
</svg>