<?xml version="1.0" encoding="utf-8"?>
<svg xmlns="http://www.w3.org/2000/svg" height="2.13928in" style="shape-rendering:geometricPrecision; text-rendering:geometricPrecision; image-rendering:optimizeQuality; fill-rule:evenodd; clip-rule:evenodd" version="1.1" viewBox="0 0 5342.72 2139.11" width="5.34314in">
 <defs>
  <style type="text/css">
   
    .fil0 {fill:#0098DA}
   
  </style>
 </defs>
 <g id="Layer_x0020_1">
  
  <path class="fil0" d="M5020.22 1323.28c-69.25,2.39 -135.52,14.45 -185.13,38.14 -121.08,54.21 -140.27,163.53 -137.38,246.77 9.52,118.39 113.76,203.59 251.47,210.96 25.53,2.31 49.52,2.31 71.04,0 76.12,-4.55 118.48,-30.76 158.3,-71.12l0 71.12 164.13 0 0 -201.42 0 -249.03 0 -43.04 0 -35.3c2.59,-90.56 -61.64,-246.93 -303.21,-246.93l-19.22 0c-201.81,9.61 -275.6,132.84 -299.35,197.19l-6.86 20.98 70.96 26.51c0,0 47.68,-135.67 232.71,-128.21l2.54 0c182.29,9.22 161.07,161.2 161.07,184.97 -47.74,-14.61 -104.41,-21.6 -161.07,-21.6zm-456.19 140.09c-2.22,-125.64 -35.43,-228.02 -99.02,-303.45 -64.05,-73.57 -154.58,-114.42 -265.85,-114.42l-7.37 0c-108.86,3.13 -201.26,38.61 -277.24,109.36 -73.33,69.25 -111.54,166.27 -111.54,279.76 0,118.91 38.21,209.17 108.72,279.99 69.25,64.41 161.58,100 280.06,104.55l28.68 0c253.84,0 310.88,-177.68 332.26,-234.66l-66.66 -21.57c-59.63,106.93 -189.58,113.71 -267.83,109.29 -6.85,0 -16.48,-2.36 -26.45,-2.36 -45.13,-7.45 -82.65,-26.08 -118.48,-49.9 -37.73,-28.46 -66.25,-68.8 -78.64,-135.01l-2.36 -21.57 199.48 0 372.24 0zm-372.24 -287.08l5.07 0c49.44,0 92.79,16.61 125.56,45.21 30.9,26.13 52.56,64.03 63.89,111.46 0,9.46 7.2,23.82 -9.17,23.82l-185.34 0 -187.27 0c-9.85,0 -9.85,-7.37 -9.85,-11.9 7.75,-45.13 24.29,-80.58 54.68,-109.54 35.81,-35.53 88.31,-59.05 142.44,-59.05zm-908.4 -130.8c-118.78,0 -216.3,38.61 -286.99,105.18 -73.86,68.74 -109.16,168 -109.16,291.47 0,109.02 30.9,199.34 89.97,272.46 62.18,69.1 150.11,106.86 263.38,106.86 16.59,0 28.88,0 42.8,-2.31 135.45,-16.75 189.91,-97.04 189.91,-97.04l0 97.04 184.97 0 0 -182.96 0 -858.44c0,0 0,-21.33 -16.24,-21.33l-151.92 0c-14.29,0 -16.81,21.33 -16.81,21.33l0 313.72 -18.7 -10.11c-26.68,-14.2 -50.26,-23.43 -76.26,-28.3 -26.13,-4.44 -56.52,-7.57 -92.65,-7.57l-2.3 0zm0 619.3c-56.81,0 -104.39,-23.31 -134.99,-58.77 -38.22,-43.1 -54.51,-102.38 -54.51,-185.18 0,-75.95 16.29,-135.31 49.65,-173.21 30.61,-35.81 78.42,-54.73 139.84,-57.03l16.91 0c34.99,0 68.28,6.99 101.78,16.81 25.84,9.4 45,21.22 61.97,35.15 4.6,5.07 9.24,12.07 9.24,26.21l0 312.75c0,12.23 -4.64,24.5 -9.24,28.76 -19.36,14.83 -40.74,25.92 -69.04,35.6 -28.73,14.44 -61.94,21.9 -102.24,21.9l-9.38 -2.98zm-731.09 -723.4l187.81 0 0 -163.64c0,0 1.79,-21.33 -19.44,-21.33l-146.92 0c-23.52,0 -21.46,23.72 -21.46,23.72l0 161.25zm0 109.51l0 768.25 185.78 0 0 -768.25 -185.78 0zm-950.77 794.16c-163.9,90.03 -351.48,135.29 -538.9,137.54l-2.09 0c-42.96,0 -85.63,-2.25 -128.08,-6.7 -128.31,-14.45 -253.86,-50.06 -367.57,-104.57 -249.22,-118.92 -451.26,-324.81 -564.89,-585.81 71.26,322.67 282.67,585.81 564.89,732.67 113.71,56.73 236.96,97.55 367.57,111.54 42.45,7.07 85.12,9.38 130.17,9.38l2.97 0c599.97,0 957.7,-502.92 1019.73,-860.58 0,0 83.32,521.62 85.41,540.62l247.09 0c-5.07,-23.91 -168.61,-1026.95 -173.88,-1041.4 0,0 0,-21.33 -13.92,-21.33l-187.36 0c-21.22,0 -16.46,21.33 -16.46,21.33 2.09,21.31 6.78,61.99 6.78,144.84 0,182.43 -21.44,443.44 -222.95,695.14l-11.53 16.37c0,0 -123.4,-839.56 -125.92,-856.36 0,0 0,-21.33 -14.38,-21.33l-189.95 0c-16.24,0 -16.24,18.99 -16.24,18.99 -2.53,80.83 -40.35,652.64 -389.37,918.41 -39.91,30.69 -82.88,56.6 -130.17,78.04 -40.44,16.54 -83.17,30.55 -128.31,42.74 40.88,1.8 83.03,1.8 128.31,-5.12 42.45,-7.07 85.12,-16.32 130.17,-30.46 52.64,-16.75 104.32,-42.67 154.43,-74.11 161.22,-98.88 270.38,-250.86 305.84,-424.21 0,0 73.71,453.11 83.32,555.34l0 6.86 -4.69 2.16zm-1036.64 -1707.18c-296.59,173.16 -496.61,483.5 -496.61,841.76 0,147.04 36.27,291.68 105,424.53 -16.97,-66.44 -26.43,-137.56 -26.43,-206.57 0,-326.94 164.13,-618.62 418.04,-801.39 108.66,-78.44 232.27,-137.38 367.57,-168.37 42.45,-11.95 85.12,-18.58 130.17,-23.71 38.27,-5.03 78.03,-7.29 118.62,-7.29 356.24,0 683.44,178.12 875.63,464.97 -142.22,-391.4 -529.21,-661.78 -968.34,-661.78l-25.91 0c-45.05,0 -87.72,4.8 -130.17,11.96 -133.14,18.76 -255.94,63.92 -367.57,125.92zm4455.33 1558.1l-33.45 0c-87.8,-7.07 -115.93,-66.49 -123.22,-92.94 0,-11.55 -21.6,-122.92 87.41,-156.59 21.9,-9 45.35,-11.84 69.25,-14.07 54.73,-2 106.18,9.76 139.12,19.06 15.33,4.39 19.19,11.93 19.19,28.68l0 158.59c0,14.14 -3.85,21.6 -16.22,26.08 -25.91,14.53 -78.2,31.19 -142.09,31.19z"/>
 </g>
</svg>