<?xml version="1.0" encoding="UTF-8"?>
<!DOCTYPE svg PUBLIC "-//W3C//DTD SVG 1.1//EN" "http://www.w3.org/Graphics/SVG/1.1/DTD/svg11.dtd">
<!-- Creator: CorelDRAW 2019 (64-Bit) -->
<svg xmlns="http://www.w3.org/2000/svg" xml:space="preserve" width="4.43768in" height="3.59845in" version="1.1" style="shape-rendering:geometricPrecision; text-rendering:geometricPrecision; image-rendering:optimizeQuality; fill-rule:evenodd; clip-rule:evenodd"
viewBox="0 0 4437.26 3598.11"
 xmlns:xlink="http://www.w3.org/1999/xlink"
 xmlns:xodm="http://www.corel.com/coreldraw/odm/2003">
 <defs>
  <style type="text/css">
   <![CDATA[
    .fil0 {fill:#383E4C}
    .fil1 {fill:#383E4C;fill-rule:nonzero}
    .fil2 {fill:#FF8A12;fill-rule:nonzero}
   ]]>
  </style>
 </defs>
 <g id="Layer_x0020_1">
  <metadata id="CorelCorpID_0Corel-Layer"/>
  <g id="_2595075758560">
   <path class="fil0" d="M187.18 1943.38l1780.5 -1780.5 7.41 -7.41 0.09 0.08c99.84,-96.19 235.37,-155.55 384.11,-155.55l684.35 0c304.97,0 554.48,249.52 554.48,554.48l0 684.34c0,148.74 -59.37,284.27 -155.56,384.11l0.09 0.09 -7.4 7.41 -1780.5 1780.5c-249.57,249.57 -657.95,249.57 -907.52,0l-560.03 -560.03c-249.57,-249.57 -249.57,-657.95 0,-907.52zm3167.58 -397.44l3.79 -3.93c78.75,-81.74 122.91,-189.56 122.91,-303.18l0 -684.34c0,-240.58 -197.25,-437.83 -437.82,-437.83l-684.35 0c-113.62,0 -221.43,44.17 -303.17,122.91l-3.93 3.78 -1782.51 1782.51c-204.04,204.04 -204.04,538.51 -0,742.55l560.03 560.03c204.04,204.04 538.51,204.04 742.55,0l1782.51 -1782.51z"/>
   <path class="fil0" d="M2894.26 394.8c85.34,-85.34 223.71,-85.34 309.05,0 85.34,85.34 85.34,223.71 0,309.05 -85.34,85.34 -223.71,85.34 -309.05,0 -85.34,-85.34 -85.34,-223.71 0,-309.05zm82.49 82.49c39.79,-39.79 104.29,-39.79 144.07,0 39.79,39.78 39.79,104.29 0,144.07 -39.78,39.79 -104.29,39.79 -144.07,0 -39.79,-39.79 -39.79,-104.29 0,-144.07z"/>
   <path class="fil1" d="M3047.1 613.38c-32.51,0.99 -59.68,-24.57 -60.67,-57.09 -0.99,-32.52 24.57,-59.68 57.09,-60.67 183.4,-5.42 367.59,26.16 540.37,94.74 166.44,66.06 322.39,166.39 456.95,300.95 264.28,264.28 396.42,610.68 396.42,957.07 0,346.39 -132.14,692.79 -396.42,957.07 -234.61,234.61 -534.26,365.02 -841.3,391.22 -311.86,26.61 -631.06,-54.38 -897.18,-242.98 -26.57,-18.83 -32.86,-55.63 -14.03,-82.2 18.83,-26.57 55.63,-32.86 82.2,-14.03 243.18,172.34 534.52,246.37 818.89,222.11 279.89,-23.88 553.38,-143.09 767.91,-357.62 241.23,-241.23 361.85,-557.4 361.85,-873.56 0,-316.16 -120.61,-632.33 -361.85,-873.56 -122.97,-122.97 -265.33,-214.58 -417.16,-274.85 -157.87,-62.66 -325.94,-91.53 -493.07,-86.59z"/>
   <path class="fil2" d="M856.75 2791.54c101.88,101.88 253.3,99.79 360.77,-7.68 106.76,-106.77 110.25,-259.59 8.37,-361.47 -100.49,-100.49 -254.7,-98.39 -361.47,8.37 -107.46,107.47 -108.16,260.28 -7.68,360.77zm108.86 -108.86c-46.76,-46.76 -49.55,-109.56 -4.19,-154.91 46.76,-46.75 108.86,-43.26 155.61,3.49 46.76,46.75 49.55,110.95 4.19,156.31 -45.36,45.36 -108.86,41.87 -155.61,-4.89zm126.36 -461.31l204.46 204.46c87.23,87.23 186.31,92.81 264.47,14.66 47.45,-47.45 66.29,-103.97 49.55,-155.62l3.49 -3.49 48.15 39.78 98.39 -98.39 -334.94 -334.95 -106.07 106.07 176.55 176.55c44.66,44.66 46.05,94.9 6.28,134.68 -38.38,38.38 -80.25,34.19 -127,-12.56l-177.24 -177.24 -106.07 106.07zm512.95 -327.33l111.65 111.65c95.6,95.6 185.62,93.51 279.82,-0.7 31.4,-31.4 51.64,-62.81 62.11,-94.21l-94.9 -94.9c-5.58,23.73 -18.84,46.76 -40.47,68.39 -41.87,41.87 -73.27,42.57 -115.14,0.7l-96.99 -96.99 110.26 -110.26 -92.81 -92.81 -110.26 110.26 -92.81 -92.81 -106.06 106.06 92.81 92.81 -65.6 65.6 92.81 92.81 65.6 -65.59zm493.41 -9.13l106.06 -106.07 -488.47 -488.47 -106.07 106.07 488.47 488.47zm-23.67 -308.49c100.49,100.49 249.82,100.49 358.68,-8.37 90.02,-90.02 103.97,-201.67 50.24,-287.5l-100.49 100.48c15.35,30.7 5.58,66.99 -30.7,103.27 -45.36,45.36 -92.81,49.55 -143.75,13.96l249.82 -249.82c-6.98,-11.16 -16.05,-21.64 -26.52,-32.1 -103.97,-103.97 -250.51,-102.58 -354.49,1.4 -105.37,105.37 -104.68,256.79 -2.8,358.67zm87.23 -278.42c38.38,-38.38 76.76,-43.27 126.3,-10.47l-143.05 143.05c-29.31,-47.45 -24.42,-91.41 16.75,-132.58zm263.83 -224.75l111.65 111.65c95.6,95.6 185.62,93.51 279.82,-0.7 31.4,-31.4 51.64,-62.81 62.1,-94.21l-94.9 -94.9c-5.59,23.73 -18.84,46.76 -40.48,68.39 -41.87,41.87 -73.27,42.57 -115.14,0.7l-96.99 -96.99 110.26 -110.25 -92.81 -92.81 -110.26 110.26 -92.81 -92.81 -106.06 106.06 92.81 92.81 -65.6 65.6 92.81 92.81 65.6 -65.6z"/>
  </g>
 </g>
</svg>
