<svg width="50" height="50" viewBox="0 0 50 50" fill="none" xmlns="http://www.w3.org/2000/svg">
<path d="M22.8789 4.30078C19.1939 4.38378 16.5 5.50944 14.873 7.64844C12.947 10.1824 12.5869 14.0663 13.7969 19.1973C13.3839 19.7283 13.0124 20.5764 13.1094 21.7344C13.4044 23.8994 14.2284 24.7893 14.8984 25.1523C15.2364 26.9553 16.2195 28.8627 17.1035 29.7637C17.1055 29.9877 17.1093 30.2021 17.1133 30.4141C17.1313 31.3711 17.1465 32.2026 17.0215 33.2656C16.4735 34.6686 14.4397 35.4762 12.0938 36.4062C8.19175 37.9523 3.33595 39.8763 3.00195 45.9453L2.94336 47H36V45H25.7637C25.2653 41.7571 23.5 38.8008 23.5 38.8008L24.2578 38.1855L26.2207 40.627C26.3138 40.7427 26.4314 40.8362 26.5651 40.9008C26.6989 40.9654 26.8453 40.9994 26.9938 41.0003C27.1423 41.0012 27.2891 40.9691 27.4236 40.9062C27.5581 40.8433 27.677 40.7513 27.7715 40.6367L30.625 37.1777C31.4192 37.556 32.2718 37.9018 33.1484 38.248C34.1124 38.629 35.085 39.015 36.002 39.459V37.2578C35.287 36.9428 34.5708 36.6597 33.8848 36.3887C31.5498 35.4667 29.5227 34.6664 28.8887 33.2734C28.8097 31.9534 28.8018 30.9729 28.8008 29.7559C29.6688 28.8429 30.5867 26.9304 30.9707 25.1934C31.6887 24.8534 32.5889 23.9696 32.7969 21.6836C32.8909 20.5586 32.5813 19.7313 32.1543 19.1973C33.0033 16.4693 33.7492 11.7952 31.9512 8.82422C31.0982 7.41522 29.798 6.52855 28.082 6.18555C27.116 4.96555 25.2999 4.30078 22.8789 4.30078ZM22.8984 6.29688C24.7894 6.29688 26.1508 6.77161 26.6348 7.59961L26.8809 8.01953L27.3594 8.08594C28.6914 8.27394 29.6332 8.85247 30.2402 9.85547C31.6892 12.2515 30.9246 16.7312 30.0566 19.1602L29.7402 19.9844L30.5332 20.3809C30.6222 20.4439 30.8627 20.7899 30.8027 21.5059C30.6687 22.9849 30.2006 23.3785 30.0996 23.3965H29.2324L29.1094 24.2559C28.8344 26.1809 27.6797 28.1537 27.3027 28.4277L26.8008 28.7188V29.3008C26.8008 30.3213 26.8114 31.1956 26.8418 32.1211L23 34.2559L19.1055 32.0918C19.1251 31.5024 19.1238 30.9435 19.1133 30.3789C19.1073 30.0349 19.0996 29.6808 19.0996 29.3008L19.0371 28.7363L18.6074 28.4375C18.2164 28.1665 16.9729 26.1717 16.7949 24.3047L16.7812 23.4082H15.873C15.731 23.3522 15.2827 22.8796 15.0957 21.5156C15.0257 20.6776 15.4531 20.3301 15.4531 20.3301L16.043 19.9375L15.8672 19.252C14.6562 14.468 14.8578 10.9705 16.4648 8.85547C17.7048 7.22547 19.8754 6.36588 22.8984 6.29688ZM42 20C37.5701 20 34 23.5701 34 28C34 30.9695 35.6079 33.5473 38 34.9277V47C38 47.2652 38.1054 47.5195 38.293 47.707L40.293 49.707C40.4805 49.8946 40.7348 50 41 50H43C43.2652 50 43.5195 49.8946 43.707 49.707L45.707 47.707C45.8946 47.5195 46 47.2652 46 47V45C46 44.7348 45.8946 44.4805 45.707 44.293L44.9141 43.5L45.707 42.707C45.8946 42.5195 46 42.2652 46 42V40C46 39.8026 45.9415 39.6096 45.832 39.4453L45.2012 38.5L45.832 37.5547C45.9415 37.3904 46 37.1974 46 37V34.9277C48.3921 33.5473 50 30.9695 50 28C50 23.5701 46.4299 20 42 20ZM42 22C45.3701 22 48 24.6299 48 28C48 31.3701 45.3701 34 42 34C38.6299 34 36 31.3701 36 28C36 24.6299 38.6299 22 42 22ZM42 24C41.4696 24 40.9609 24.2107 40.5858 24.5858C40.2107 24.9609 40 25.4696 40 26C40 26.5304 40.2107 27.0391 40.5858 27.4142C40.9609 27.7893 41.4696 28 42 28C42.5304 28 43.0391 27.7893 43.4142 27.4142C43.7893 27.0391 44 26.5304 44 26C44 25.4696 43.7893 24.9609 43.4142 24.5858C43.0391 24.2107 42.5304 24 42 24ZM18.7734 34.1953L21.2695 35.582L18.9902 38.416L17.123 36.1523C17.8455 35.6194 18.4151 34.9839 18.7734 34.1953ZM27.1562 34.2344C27.5437 35.0115 28.1331 35.6392 28.8672 36.166L27.0098 38.416L24.7305 35.582L27.1562 34.2344ZM40 35.7383C40.6402 35.9025 41.3074 36 42 36C42.6926 36 43.3598 35.9025 44 35.7383V36.6973L43.168 37.9453C43.0585 38.1096 43 38.3026 43 38.5C43 38.6974 43.0585 38.8904 43.168 39.0547L44 40.3027V41.5859L42.793 42.793C42.6055 42.9805 42.5002 43.2348 42.5002 43.5C42.5002 43.7652 42.6055 44.0195 42.793 44.207L44 45.4141V46.5859L42.5859 48H41.4141L40 46.5859V35.7383ZM15.377 37.1797L18.2285 40.6367C18.323 40.7513 18.4419 40.8433 18.5764 40.9062C18.7109 40.9691 18.8577 41.0012 19.0062 41.0003C19.1547 40.9994 19.3011 40.9654 19.4349 40.9008C19.5686 40.8362 19.6862 40.7427 19.7793 40.627L21.7422 38.1855L22.5 38.8008C22.5 38.8008 20.7471 41.8114 20.2422 45H5.12109C5.85509 41.028 9.39708 39.6256 12.8301 38.2656C13.7163 37.9143 14.5782 37.5647 15.377 37.1797Z" fill="black"/>
<path d="M40.5858 24.5858C40.9609 24.2107 41.4696 24 42 24C42.5304 24 43.0391 24.2107 43.4142 24.5858C43.7893 24.9609 44 25.4696 44 26C44 26.5304 43.7893 27.0391 43.4142 27.4142C43.0391 27.7893 42.5304 28 42 28C41.4696 28 40.9609 27.7893 40.5858 27.4142C40.2107 27.0391 40 26.5304 40 26C40 25.4696 40.2107 24.9609 40.5858 24.5858Z" fill="#40B659"/>
</svg>
